<?xml version="1.0" encoding="utf-8" ?><svg version="1.1" xmlns = 'http://www.w3.org/2000/svg'><defs><font id='web' horiz-adv-x="1000">
<font-face font-family="web" descent="-467" cap-height="1446" units-per-em="2048" bbox="-268,-467,2445,1960" x-height="1053" ascent="2009" />
<missing-glyph horiz-adv-x="1024" d="M 1024 1446 L 1024 0 L 0 0 L 0 1446 L 1024 1446 Z M 109 102 L 913 102 L 913 1343 L 109 1343 L 109 102 Z" /><glyph horiz-adv-x="469" d="" unicode=" " />
<glyph horiz-adv-x="578" d="M 389 1446 L 389 1237 L 356 475 L 268 475 L 233 1237 L 233 1446 L 389 1446 Z M 397 219 L 397 0 L 227 0 L 227 219 L 397 219 Z" unicode="!" />
<glyph horiz-adv-x="670" d="M 309 1446 L 274 1280 L 203 954 L 115 954 L 133 1280 L 143 1446 L 309 1446 Z M 614 1446 L 580 1280 L 510 954 L 420 954 L 438 1280 L 449 1446 L 614 1446 Z" unicode="&#x22;" />
<glyph horiz-adv-x="1577" d="M 399 319 L 102 319 L 102 432 L 420 432 L 518 967 L 207 967 L 207 1079 L 539 1079 L 606 1446 L 715 1446 L 649 1079 L 1079 1079 L 1147 1446 L 1255 1446 L 1190 1079 L 1485 1079 L 1485 967 L 1169 967 L 1073 432 L 1382 432 L 1382 319 L 1053 319 L 981 -82 L 868 -82 L 940 319 L 512 319 L 440 -82 L 328 -82 L 399 319 Z M 532 432 L 961 432 L 1059 967 L 629 967 L 532 432 Z" unicode="#" />
<glyph horiz-adv-x="1167" d="M 913 1130 C 891 1140 867 1149 841 1158 C 815 1166 789 1174 761 1180 C 733 1186 705 1192 676 1196 C 646 1200 617 1202 588 1202 C 550 1202 513 1198 479 1190 C 445 1182 415 1170 389 1154 C 363 1138 343 1117 328 1092 C 312 1066 305 1036 305 1001 C 305 965 312 935 328 911 C 344 887 365 867 392 851 C 418 834 449 820 484 809 C 519 797 556 786 596 776 C 653 761 707 745 757 728 C 807 711 851 690 889 665 C 926 639 955 608 977 572 C 999 535 1010 490 1010 436 C 1010 390 1001 347 985 308 C 968 269 944 235 912 205 C 880 175 841 150 795 130 C 749 110 696 96 637 88 L 637 -199 L 532 -199 L 532 82 L 524 82 C 493 82 461 83 428 86 C 395 89 362 94 330 100 C 298 106 266 113 236 123 C 206 133 178 144 152 158 L 186 281 C 238 251 295 230 357 217 C 419 203 479 197 537 197 C 582 197 625 201 665 209 C 705 217 741 230 771 248 C 801 265 825 287 843 315 C 861 342 870 374 870 412 C 870 448 861 478 844 503 C 826 528 803 550 773 568 C 743 586 709 601 670 613 C 630 625 589 637 545 649 C 505 659 463 671 419 685 C 375 699 334 719 297 743 C 260 767 230 799 206 838 C 182 876 170 925 170 985 C 170 1034 178 1078 196 1116 C 214 1154 238 1187 270 1215 C 302 1242 340 1264 384 1280 C 428 1296 478 1306 532 1311 L 532 1528 L 637 1528 L 637 1313 C 697 1311 753 1303 803 1290 C 853 1277 900 1263 944 1249 L 913 1130 Z" unicode="$" />
<glyph horiz-adv-x="1790" d="M 1339 1364 L 563 0 L 455 0 L 1231 1364 L 1339 1364 Z M 416 1376 C 474 1376 523 1366 564 1346 C 604 1326 637 1298 663 1264 C 688 1230 706 1190 718 1144 C 729 1098 735 1050 735 999 C 735 937 728 881 715 832 C 701 782 681 741 655 707 C 628 673 595 647 555 629 C 515 611 468 602 416 602 C 355 602 304 613 264 636 C 223 658 190 688 165 726 C 140 763 122 805 112 852 C 101 899 96 947 96 997 C 96 1123 122 1218 176 1281 C 230 1344 310 1376 416 1376 Z M 416 1284 C 373 1284 338 1276 311 1261 C 283 1245 262 1224 246 1198 C 230 1172 218 1141 212 1107 C 206 1073 203 1037 203 999 C 203 979 204 957 206 934 C 208 910 211 887 217 865 C 222 842 230 820 240 799 C 250 778 262 760 278 744 C 294 728 313 716 336 706 C 358 696 385 692 416 692 C 458 692 493 700 521 718 C 549 736 570 759 586 788 C 601 817 612 850 618 886 C 624 922 627 959 627 997 C 627 1029 624 1063 619 1097 C 613 1131 603 1161 588 1189 C 572 1217 551 1239 524 1257 C 496 1275 460 1284 416 1284 Z M 1372 762 C 1430 762 1480 752 1521 732 C 1561 712 1594 684 1620 650 C 1645 616 1663 576 1675 530 C 1686 484 1692 436 1692 385 C 1692 322 1685 266 1671 217 C 1657 168 1637 127 1611 93 C 1584 59 1551 33 1511 15 C 1471 -3 1424 -12 1372 -12 C 1311 -12 1260 0 1220 22 C 1179 44 1146 74 1122 111 C 1097 148 1079 190 1069 238 C 1058 285 1053 333 1053 383 C 1053 635 1159 762 1372 762 Z M 1372 670 C 1329 670 1294 662 1267 647 C 1239 631 1218 610 1202 584 C 1186 558 1174 527 1168 493 C 1162 459 1159 423 1159 385 C 1159 354 1161 321 1166 285 C 1171 249 1181 215 1196 185 C 1211 154 1233 128 1261 108 C 1289 88 1326 78 1372 78 C 1414 78 1449 86 1477 104 C 1505 122 1526 145 1542 174 C 1557 202 1568 235 1574 272 C 1580 308 1583 345 1583 383 C 1583 415 1580 449 1575 483 C 1569 517 1559 547 1544 575 C 1528 603 1507 625 1480 643 C 1452 661 1416 670 1372 670 Z" unicode="%" />
<glyph horiz-adv-x="1399" d="M 1309 -18 C 1274 -13 1242 -5 1212 5 C 1182 16 1154 30 1127 47 C 1099 64 1072 84 1046 108 C 1020 131 993 158 965 188 C 934 156 902 127 869 101 C 836 75 801 52 764 34 C 726 16 686 2 644 -8 C 602 -18 556 -23 506 -23 C 440 -23 381 -14 328 3 C 274 21 229 46 191 80 C 153 113 123 154 103 203 C 82 251 72 307 72 369 C 72 426 81 477 99 523 C 117 568 141 609 173 645 C 204 681 241 712 285 740 C 328 768 375 793 426 815 C 406 836 387 858 368 882 C 349 905 332 930 317 957 C 302 983 290 1012 281 1042 C 272 1072 268 1105 268 1141 C 268 1189 276 1233 294 1273 C 312 1313 336 1347 368 1376 C 399 1405 437 1428 481 1444 C 525 1460 573 1468 625 1468 C 670 1468 713 1461 754 1448 C 794 1434 830 1415 861 1389 C 891 1363 916 1332 934 1295 C 952 1257 961 1215 961 1167 C 961 1119 952 1077 934 1039 C 916 1001 891 968 860 938 C 829 908 793 881 751 857 C 709 833 664 812 616 793 C 643 761 670 730 696 700 C 722 670 748 638 776 606 C 804 573 833 538 864 501 C 895 464 929 423 967 379 C 1005 434 1045 495 1085 562 C 1125 629 1162 698 1196 768 L 1331 739 C 1311 703 1290 666 1268 628 C 1246 590 1224 552 1200 514 C 1176 476 1151 438 1125 400 C 1099 362 1072 326 1044 291 C 1069 261 1093 236 1117 215 C 1140 193 1163 175 1186 160 C 1209 145 1232 132 1256 122 C 1279 112 1303 103 1329 96 L 1309 -18 Z M 522 86 C 596 86 662 102 720 134 C 778 166 833 212 887 272 L 494 735 C 404 701 335 654 286 595 C 237 535 213 463 213 379 C 213 333 220 291 235 255 C 249 219 270 188 297 163 C 324 138 357 119 395 106 C 433 92 475 86 522 86 Z M 399 1153 C 399 1107 412 1061 439 1015 C 465 969 503 917 553 860 C 595 880 634 899 670 919 C 705 939 735 960 760 983 C 784 1006 803 1031 817 1059 C 831 1087 838 1119 838 1155 C 838 1187 832 1217 820 1243 C 808 1269 793 1292 774 1310 C 754 1328 731 1343 705 1353 C 679 1363 651 1368 623 1368 C 590 1368 560 1362 533 1351 C 505 1340 482 1325 462 1306 C 442 1287 426 1264 415 1238 C 404 1212 399 1183 399 1153 Z" unicode="&#x26;" />
<glyph horiz-adv-x="362" d="M 309 1446 L 274 1280 L 203 954 L 115 954 L 133 1280 L 143 1446 L 309 1446 Z" unicode="'" />
<glyph horiz-adv-x="696" d="M 543 -326 C 497 -292 449 -244 400 -184 C 351 -124 306 -53 265 27 C 224 107 190 197 164 295 C 138 393 125 498 125 608 C 125 718 138 822 164 920 C 190 1018 224 1107 265 1187 C 306 1267 351 1336 400 1396 C 449 1455 497 1502 543 1536 L 653 1536 L 653 1511 C 603 1473 554 1422 506 1360 C 458 1297 416 1226 379 1147 C 342 1068 312 983 290 891 C 267 799 256 704 256 608 C 256 511 267 416 290 324 C 312 232 342 146 379 66 C 416 -14 458 -85 506 -148 C 554 -211 603 -262 653 -301 L 653 -326 L 543 -326 Z" unicode="(" />
<glyph horiz-adv-x="696" d="M 43 -326 L 43 -301 C 93 -262 142 -211 190 -148 C 238 -85 280 -14 317 66 C 354 146 384 232 406 324 C 428 416 440 511 440 608 C 440 704 428 799 406 891 C 384 983 354 1068 317 1147 C 280 1226 238 1297 190 1360 C 142 1422 93 1473 43 1511 L 43 1536 L 154 1536 C 199 1502 246 1455 296 1396 C 345 1336 390 1267 431 1187 C 471 1107 505 1018 531 920 C 557 822 571 718 571 608 C 571 534 565 463 553 395 C 541 327 524 262 503 200 C 482 138 458 81 430 27 C 402 -27 373 -76 343 -121 C 312 -165 280 -205 248 -240 C 215 -274 184 -303 154 -326 L 43 -326 Z" unicode=")" />
<glyph horiz-adv-x="815" d="M 197 1257 L 371 1157 L 383 1171 L 346 1362 L 346 1446 L 475 1446 L 475 1362 L 436 1171 L 451 1157 L 621 1255 L 700 1280 L 741 1159 L 659 1130 L 465 1108 L 461 1090 L 604 958 L 655 889 L 549 813 L 500 883 L 418 1063 L 399 1063 L 315 883 L 266 813 L 162 889 L 213 961 L 358 1092 L 354 1112 L 156 1133 L 76 1161 L 117 1282 L 197 1257 Z" unicode="*" />
<glyph horiz-adv-x="1167" d="M 649 1141 L 649 633 L 1153 633 L 1153 510 L 649 510 L 649 0 L 518 0 L 518 510 L 14 510 L 14 633 L 518 633 L 518 1141 L 649 1141 Z" unicode="+" />
<glyph horiz-adv-x="422" d="M 375 219 L 150 -274 L 39 -274 L 203 219 L 375 219 Z" unicode="," />
<glyph horiz-adv-x="629" d="M 535 635 L 535 510 L 94 510 L 94 635 L 535 635 Z" unicode="-" />
<glyph horiz-adv-x="395" d="M 283 219 L 283 0 L 113 0 L 113 219 L 283 219 Z" unicode="." />
<glyph horiz-adv-x="864" d="M 864 1446 L 115 -236 L 0 -236 L 745 1446 L 864 1446 Z" unicode="/" />
<glyph horiz-adv-x="1167" d="M 584 1384 C 673 1384 748 1365 810 1327 C 871 1289 920 1239 958 1176 C 996 1112 1023 1039 1040 957 C 1056 875 1065 789 1065 700 C 1065 576 1054 468 1032 378 C 1010 288 979 213 938 155 C 897 97 847 54 787 26 C 727 -2 660 -16 584 -16 C 522 -16 468 -6 420 12 C 372 30 331 56 295 89 C 259 122 228 161 204 207 C 180 252 160 301 145 354 C 129 407 118 463 112 522 C 105 580 102 640 102 700 C 102 818 112 921 133 1007 C 154 1093 185 1164 226 1220 C 267 1276 318 1317 378 1344 C 438 1370 506 1384 584 1384 Z M 584 1270 C 537 1270 496 1262 461 1248 C 426 1233 396 1213 371 1187 C 345 1161 324 1130 307 1094 C 290 1058 277 1020 267 978 C 257 936 250 891 246 844 C 242 796 240 748 240 700 C 240 659 241 616 244 571 C 247 525 253 480 262 436 C 270 391 282 348 298 308 C 314 267 334 231 360 200 C 385 168 416 143 452 125 C 488 107 532 98 582 98 C 629 98 670 105 706 121 C 741 137 771 158 797 186 C 823 214 844 246 861 284 C 878 322 891 363 901 408 C 911 452 918 499 922 549 C 926 599 928 649 928 700 C 928 740 926 781 923 825 C 919 869 913 912 904 954 C 894 996 882 1037 866 1075 C 850 1113 829 1146 803 1175 C 777 1204 747 1227 711 1244 C 675 1261 632 1270 584 1270 Z" unicode="0" />
<glyph horiz-adv-x="1167" d="M 578 0 L 578 1198 L 584 1233 L 578 1233 L 256 1098 L 256 1227 L 614 1364 L 729 1364 L 715 1231 L 715 0 L 578 0 Z" unicode="1" />
<glyph horiz-adv-x="1167" d="M 1008 0 L 143 0 L 143 125 L 696 700 C 718 723 738 746 758 770 C 777 794 794 818 809 843 C 823 868 835 894 843 920 C 851 946 856 973 856 1001 C 856 1035 849 1069 836 1102 C 823 1134 804 1163 780 1188 C 756 1212 726 1232 690 1247 C 654 1262 614 1270 569 1270 C 430 1270 322 1193 246 1040 L 131 1079 C 147 1117 169 1155 196 1192 C 222 1228 254 1261 292 1290 C 330 1318 373 1341 422 1358 C 470 1375 525 1384 586 1384 C 652 1384 711 1373 762 1352 C 813 1330 856 1302 890 1267 C 924 1232 949 1192 967 1147 C 984 1101 993 1054 993 1006 C 993 964 987 926 976 892 C 964 857 949 824 931 794 C 913 763 892 734 868 707 C 844 679 819 653 795 627 L 293 117 L 1008 117 L 1008 0 Z" unicode="2" />
<glyph horiz-adv-x="1167" d="M 127 1151 C 147 1177 170 1203 197 1231 C 224 1259 255 1284 291 1306 C 327 1328 367 1347 412 1362 C 456 1376 507 1384 563 1384 C 618 1384 670 1376 718 1361 C 766 1346 807 1325 843 1297 C 879 1269 907 1234 927 1194 C 947 1154 958 1109 958 1059 C 958 1019 951 983 939 951 C 927 919 910 890 890 866 C 869 842 845 821 818 804 C 791 787 763 774 733 766 L 733 754 C 769 748 804 737 838 720 C 871 703 900 681 926 654 C 951 626 971 594 986 556 C 1000 518 1008 476 1008 430 C 1008 350 987 280 947 220 C 906 160 852 110 784 70 C 716 30 637 0 548 -19 C 459 -39 366 -49 270 -49 C 245 -49 225 -48 209 -46 C 193 -44 179 -43 166 -41 L 158 80 C 172 78 188 77 207 76 C 225 74 246 74 270 74 C 364 74 448 82 522 100 C 596 117 658 141 710 173 C 762 204 801 242 829 287 C 856 331 870 381 870 436 C 870 476 862 511 846 541 C 830 571 810 595 786 614 C 761 633 733 647 702 656 C 671 665 640 670 610 670 C 604 670 596 669 587 669 C 577 668 564 666 548 664 C 531 661 510 657 484 653 C 458 649 425 643 387 635 L 365 748 L 518 772 C 558 778 597 789 633 805 C 669 820 701 839 729 862 C 756 885 778 912 794 942 C 810 972 819 1006 819 1044 C 819 1076 812 1106 800 1134 C 787 1162 769 1186 746 1206 C 722 1226 694 1241 661 1253 C 628 1264 591 1270 551 1270 C 519 1270 489 1266 463 1259 C 436 1251 410 1240 385 1226 C 360 1211 335 1193 310 1171 C 285 1149 258 1124 229 1096 L 127 1151 L 127 1151 Z" unicode="3" />
<glyph horiz-adv-x="1167" d="M 852 1364 L 852 424 L 1118 424 L 1118 313 L 852 313 L 852 0 L 717 0 L 717 313 L 74 313 L 74 461 L 719 1364 L 852 1364 Z M 178 424 L 717 424 L 717 1034 L 727 1178 L 719 1180 L 178 424 Z" unicode="4" />
<glyph horiz-adv-x="1167" d="M 299 74 C 393 74 476 82 550 99 C 624 115 686 141 737 175 C 787 209 826 253 853 305 C 879 357 893 420 893 492 C 893 526 889 560 881 595 C 873 629 858 661 837 689 C 815 717 786 739 750 757 C 713 775 666 784 610 784 C 586 784 562 782 538 778 C 513 774 487 767 459 757 C 431 746 401 731 370 713 C 338 695 304 671 268 641 L 190 674 L 238 1364 L 989 1364 L 989 1247 L 350 1247 L 315 774 C 349 798 380 819 408 835 C 436 851 462 865 487 875 C 512 885 537 892 562 896 C 586 900 613 903 641 903 C 709 903 767 892 816 871 C 865 849 905 820 937 783 C 969 746 992 703 1007 653 C 1022 603 1030 550 1030 494 C 1030 427 1021 367 1003 315 C 985 262 959 215 927 175 C 895 135 856 100 811 72 C 766 44 716 21 662 3 C 608 -15 550 -28 489 -36 C 427 -44 364 -49 299 -49 C 273 -49 253 -48 237 -46 C 221 -44 207 -43 195 -41 L 186 80 C 200 78 217 77 235 76 C 253 74 274 74 299 74 Z" unicode="5" />
<glyph horiz-adv-x="1167" d="M 795 1415 C 825 1415 850 1414 868 1412 C 886 1410 901 1408 913 1405 L 922 1286 C 907 1287 889 1288 867 1290 C 845 1291 822 1292 797 1292 C 724 1292 659 1280 601 1258 C 543 1235 492 1201 449 1155 C 400 1103 360 1038 330 960 C 300 881 278 789 266 684 C 308 740 360 784 423 818 C 486 851 556 868 633 868 C 692 868 747 858 798 839 C 849 819 893 791 931 755 C 969 718 998 673 1020 619 C 1042 565 1053 504 1053 436 C 1053 361 1041 295 1017 239 C 993 182 960 135 918 97 C 876 59 828 30 772 11 C 716 -8 656 -18 592 -18 C 532 -18 476 -9 425 7 C 373 24 328 50 289 86 C 238 131 199 191 171 267 C 143 343 129 439 129 555 C 129 614 132 675 140 739 C 148 802 160 864 178 925 C 196 986 219 1044 248 1099 C 277 1154 313 1203 356 1247 C 408 1299 471 1340 543 1370 C 615 1400 699 1415 795 1415 Z M 276 580 C 270 563 267 546 266 528 C 264 510 264 489 264 465 C 264 408 272 356 288 308 C 304 260 331 219 367 184 C 395 156 429 134 469 119 C 509 103 554 96 604 96 C 648 96 690 103 728 117 C 766 131 798 153 826 181 C 853 209 874 243 890 285 C 905 327 913 375 913 430 C 913 481 905 526 891 566 C 877 606 856 639 829 667 C 802 694 769 715 731 729 C 692 743 648 750 600 750 C 565 750 532 745 500 737 C 468 729 438 717 410 702 C 382 687 356 669 334 648 C 311 627 292 604 276 580 Z" unicode="6" />
<glyph horiz-adv-x="1167" d="M 1057 1364 L 1057 1253 C 1040 1235 1016 1209 986 1175 C 955 1141 921 1098 883 1047 C 845 995 805 935 763 866 C 721 797 682 719 644 632 C 606 544 573 448 543 343 C 513 238 490 124 475 0 L 324 0 C 336 102 355 200 382 295 C 409 389 440 479 476 563 C 511 647 549 726 590 799 C 630 872 670 938 710 996 C 749 1054 786 1105 820 1147 C 854 1189 883 1223 907 1247 L 154 1247 L 154 1364 L 1057 1364 Z" unicode="7" />
<glyph horiz-adv-x="1167" d="M 389 723 C 365 727 340 737 313 753 C 285 769 260 790 236 816 C 212 842 192 872 176 908 C 160 943 152 982 152 1026 C 152 1071 161 1115 181 1158 C 200 1201 228 1239 265 1273 C 301 1306 346 1333 400 1353 C 454 1373 515 1384 584 1384 C 652 1384 713 1373 767 1353 C 820 1333 865 1306 902 1273 C 939 1239 967 1201 987 1158 C 1006 1115 1016 1071 1016 1026 C 1016 982 1007 943 991 908 C 975 872 954 842 930 816 C 906 790 880 769 852 753 C 824 737 798 727 776 723 L 776 715 C 809 710 842 699 876 681 C 909 663 939 640 966 612 C 993 583 1015 549 1032 511 C 1048 473 1057 431 1057 385 C 1057 315 1044 254 1019 204 C 993 153 959 111 916 79 C 873 46 823 22 766 7 C 708 -8 648 -16 584 -16 C 520 -16 459 -8 402 7 C 344 22 294 46 251 79 C 208 111 174 153 149 204 C 123 254 111 315 111 385 C 111 431 119 473 136 511 C 152 549 174 583 201 612 C 227 640 257 663 290 681 C 323 699 356 710 389 715 L 389 723 Z M 287 1020 C 287 986 293 953 305 923 C 317 893 336 866 361 844 C 385 821 416 803 454 790 C 492 776 536 770 586 770 C 635 770 678 776 716 790 C 753 803 784 821 809 844 C 833 866 852 893 864 923 C 876 953 883 986 883 1020 C 883 1052 876 1083 863 1113 C 850 1143 831 1170 806 1193 C 780 1216 749 1235 712 1249 C 675 1263 632 1270 584 1270 C 535 1270 492 1263 455 1249 C 418 1235 387 1216 362 1193 C 337 1170 318 1143 306 1113 C 293 1083 287 1052 287 1020 Z M 586 98 C 642 98 691 104 733 118 C 774 132 808 151 835 177 C 862 202 882 232 895 268 C 908 304 915 343 915 387 C 915 425 909 460 897 493 C 885 526 867 555 841 580 C 815 604 781 624 739 638 C 697 652 645 659 584 659 C 522 659 471 652 429 638 C 387 624 353 604 327 580 C 301 555 282 526 271 493 C 259 460 254 425 254 387 C 254 343 260 304 273 268 C 285 232 305 202 332 177 C 359 151 394 132 436 118 C 478 104 528 98 586 98 Z" unicode="8" />
<glyph horiz-adv-x="1167" d="M 369 -49 C 339 -49 315 -48 297 -46 C 279 -44 263 -43 250 -41 L 244 80 C 258 78 275 77 297 76 C 319 74 343 74 369 74 C 513 74 629 119 717 211 C 765 262 804 327 834 406 C 864 484 885 576 899 682 C 857 625 804 580 741 547 C 678 514 608 498 532 498 C 472 498 417 507 366 527 C 315 546 271 574 233 611 C 195 647 166 692 145 746 C 123 800 113 861 113 930 C 113 1004 125 1069 149 1126 C 173 1182 205 1230 247 1268 C 288 1306 337 1335 393 1355 C 449 1374 509 1384 573 1384 C 633 1384 688 1375 740 1358 C 791 1340 837 1314 877 1278 C 927 1232 966 1172 994 1096 C 1022 1020 1036 925 1036 811 C 1036 751 1032 689 1024 626 C 1016 562 1003 500 985 439 C 967 378 944 320 915 265 C 886 209 851 160 809 117 C 757 64 694 23 621 -5 C 548 -34 464 -49 369 -49 Z M 889 786 C 894 802 897 819 899 837 C 900 855 901 875 901 899 C 901 957 892 1009 876 1057 C 859 1105 833 1146 799 1180 C 769 1208 735 1230 696 1246 C 656 1262 611 1270 561 1270 C 515 1270 473 1262 435 1248 C 397 1234 364 1213 337 1185 C 309 1157 288 1122 273 1080 C 257 1038 250 990 250 936 C 250 884 257 838 272 798 C 286 758 307 725 335 698 C 362 671 395 651 434 637 C 472 623 516 616 565 616 C 599 616 633 620 665 628 C 697 636 727 648 755 663 C 783 678 808 696 831 717 C 853 737 873 760 889 786 Z" unicode="9" />
<glyph horiz-adv-x="518" d="M 344 219 L 344 0 L 174 0 L 174 219 L 344 219 Z M 344 1053 L 344 834 L 174 834 L 174 1053 L 344 1053 Z" unicode=":" />
<glyph horiz-adv-x="530" d="M 414 219 L 188 -274 L 80 -274 L 242 219 L 414 219 Z M 344 1053 L 344 834 L 174 834 L 174 1053 L 344 1053 Z" unicode=";" />
<glyph horiz-adv-x="1167" d="M 1110 1122 L 1110 977 L 373 643 L 219 580 L 219 559 L 373 502 L 1110 166 L 1110 23 L 57 526 L 57 614 L 1110 1122 Z" unicode="&#x3C;" />
<glyph horiz-adv-x="1167" d="M 1110 887 L 1110 766 L 57 766 L 57 887 L 1110 887 Z M 1110 373 L 1110 254 L 57 254 L 57 373 L 1110 373 Z" unicode="=" />
<glyph horiz-adv-x="1167" d="M 1110 614 L 1110 526 L 57 23 L 57 166 L 795 502 L 946 559 L 946 580 L 795 643 L 57 977 L 57 1122 L 1110 614 Z" unicode="&#x3E;" />
<glyph horiz-adv-x="905" d="M 104 1284 C 122 1308 144 1331 171 1353 C 197 1375 227 1394 260 1410 C 292 1426 327 1438 365 1448 C 402 1457 441 1462 481 1462 C 529 1462 574 1455 616 1441 C 658 1427 695 1408 727 1382 C 759 1356 784 1323 803 1285 C 821 1247 831 1203 831 1153 C 831 1115 826 1081 817 1051 C 807 1021 794 992 776 964 C 758 936 737 909 711 882 C 685 854 656 825 623 793 C 599 769 576 747 556 727 C 535 707 517 685 501 662 C 485 638 473 612 464 582 C 455 552 451 517 451 475 L 332 475 C 332 520 335 558 341 590 C 347 622 358 651 373 678 C 388 705 408 732 432 759 C 456 786 486 818 522 854 C 552 881 578 906 601 928 C 624 950 644 972 660 994 C 676 1015 688 1037 696 1060 C 704 1083 709 1109 709 1137 C 709 1175 702 1208 688 1236 C 674 1263 655 1285 633 1302 C 611 1319 585 1332 557 1340 C 529 1348 501 1352 473 1352 C 421 1352 370 1340 319 1318 C 268 1296 222 1262 180 1217 L 104 1284 Z M 483 219 L 483 0 L 313 0 L 313 219 L 483 219 Z" unicode="?" />
<glyph horiz-adv-x="2128" d="M 1554 1004 L 1348 354 C 1344 346 1342 338 1341 330 C 1339 322 1339 313 1339 305 C 1339 263 1351 230 1377 207 C 1402 183 1437 172 1481 172 C 1525 172 1571 185 1619 212 C 1666 239 1709 277 1749 327 C 1788 376 1820 435 1846 505 C 1871 574 1884 651 1884 737 C 1884 827 1867 910 1833 987 C 1799 1063 1752 1130 1690 1187 C 1628 1243 1553 1288 1466 1320 C 1379 1352 1282 1368 1176 1368 C 1096 1368 1018 1358 942 1340 C 866 1321 795 1294 728 1259 C 661 1223 600 1180 544 1129 C 488 1078 439 1020 399 956 C 359 891 327 820 305 743 C 283 665 272 583 272 496 C 272 407 283 326 305 253 C 327 179 358 113 397 55 C 435 -3 481 -54 533 -98 C 585 -142 640 -178 699 -208 C 758 -237 819 -259 882 -273 C 945 -287 1007 -295 1069 -295 C 1123 -295 1180 -291 1239 -283 C 1297 -275 1354 -264 1408 -251 C 1462 -238 1512 -224 1558 -208 C 1604 -192 1641 -176 1671 -160 L 1708 -244 C 1677 -260 1637 -278 1589 -296 C 1541 -314 1488 -330 1431 -345 C 1373 -359 1313 -371 1250 -381 C 1187 -390 1125 -395 1065 -395 C 997 -395 927 -386 856 -370 C 785 -354 716 -329 649 -297 C 581 -264 518 -223 459 -174 C 400 -124 348 -67 304 -1 C 259 64 224 138 198 221 C 172 303 160 394 160 494 C 160 592 172 684 198 770 C 223 856 258 936 304 1008 C 349 1080 403 1145 466 1202 C 529 1258 598 1306 674 1346 C 749 1386 829 1416 914 1437 C 999 1457 1086 1468 1176 1468 C 1298 1468 1409 1449 1509 1412 C 1609 1374 1694 1323 1765 1257 C 1836 1191 1891 1114 1930 1026 C 1969 938 1989 843 1989 741 C 1989 673 1981 609 1966 550 C 1950 490 1929 436 1903 387 C 1877 337 1846 293 1811 255 C 1775 216 1738 183 1698 156 C 1658 129 1617 109 1575 95 C 1533 81 1492 74 1452 74 C 1421 74 1392 78 1366 86 C 1340 94 1317 106 1298 122 C 1279 138 1264 159 1254 183 C 1243 207 1238 236 1239 268 C 1187 204 1130 156 1070 124 C 1009 92 947 76 885 76 C 847 76 810 82 774 96 C 738 110 707 131 679 160 C 651 189 629 226 613 271 C 596 316 588 370 588 432 C 588 490 595 545 611 598 C 626 650 647 699 673 744 C 699 789 730 830 765 866 C 800 902 837 933 876 959 C 914 985 954 1005 995 1019 C 1035 1033 1074 1040 1112 1040 C 1148 1040 1181 1034 1211 1022 C 1241 1010 1268 993 1291 973 C 1313 953 1332 929 1347 903 C 1362 877 1372 849 1378 821 L 1436 1004 L 1554 1004 Z M 915 184 C 965 184 1018 199 1072 229 C 1126 259 1180 304 1235 365 L 1339 700 C 1334 730 1325 758 1313 786 C 1301 813 1285 837 1265 858 C 1245 879 1223 896 1197 909 C 1171 921 1142 928 1110 928 C 1082 928 1054 922 1024 912 C 994 902 964 887 935 867 C 905 847 877 823 851 795 C 824 767 801 735 781 699 C 761 663 745 624 733 582 C 721 539 715 494 715 446 C 715 401 720 362 731 330 C 741 297 756 270 774 248 C 792 226 813 210 837 200 C 861 189 887 184 915 184 Z" unicode="@" />
<glyph horiz-adv-x="1270" d="M 934 356 L 322 356 L 205 0 L 74 0 L 559 1446 L 715 1446 L 1192 0 L 1049 0 L 934 356 Z M 664 1196 L 639 1300 L 623 1300 L 596 1196 L 358 471 L 901 471 L 664 1196 Z" unicode="A" />
<glyph horiz-adv-x="1337" d="M 676 1446 C 733 1446 790 1440 848 1428 C 905 1416 956 1397 1002 1371 C 1048 1344 1085 1309 1114 1265 C 1142 1221 1157 1168 1157 1104 C 1157 1064 1151 1027 1141 993 C 1131 958 1115 927 1094 899 C 1073 871 1047 848 1016 829 C 985 809 949 795 909 786 L 909 774 C 948 768 987 757 1026 739 C 1064 721 1099 698 1129 668 C 1159 638 1184 603 1203 561 C 1221 519 1231 470 1231 416 C 1231 332 1217 263 1190 209 C 1162 155 1124 112 1076 81 C 1028 50 971 29 905 17 C 839 5 768 0 692 0 L 205 0 L 205 1446 L 676 1446 Z M 342 817 L 659 817 C 775 817 863 840 921 888 C 979 936 1008 1001 1008 1085 C 1008 1122 1000 1156 985 1186 C 969 1216 947 1242 917 1264 C 887 1285 851 1301 808 1313 C 764 1325 715 1331 659 1331 L 342 1331 L 342 817 Z M 342 115 L 735 115 C 789 115 837 120 881 132 C 924 144 961 162 991 187 C 1021 212 1045 244 1061 282 C 1077 320 1085 366 1085 420 C 1085 462 1076 500 1060 535 C 1043 570 1018 600 986 625 C 954 650 914 670 867 684 C 819 698 765 705 705 705 L 342 705 L 342 115 Z" unicode="B" />
<glyph horiz-adv-x="1343" d="M 1217 86 C 1168 55 1107 30 1033 10 C 959 -10 873 -20 774 -20 C 668 -20 574 -1 492 34 C 410 70 342 121 286 187 C 230 252 188 330 160 420 C 131 510 117 609 117 717 C 117 785 123 850 136 914 C 149 978 168 1037 194 1093 C 220 1149 251 1200 289 1246 C 327 1292 370 1331 420 1364 C 470 1397 525 1423 586 1441 C 647 1459 714 1468 786 1468 C 882 1468 965 1458 1037 1438 C 1108 1418 1168 1392 1217 1362 L 1184 1237 C 1158 1253 1132 1268 1104 1282 C 1076 1296 1045 1308 1013 1319 C 981 1329 946 1338 908 1344 C 870 1350 828 1354 782 1354 C 692 1354 614 1337 548 1303 C 482 1269 427 1224 384 1166 C 341 1108 309 1041 289 965 C 268 889 258 808 258 723 C 258 670 262 618 270 566 C 278 514 292 465 310 419 C 328 372 350 329 378 289 C 406 249 439 215 478 186 C 516 157 560 134 610 118 C 660 102 716 94 778 94 C 824 94 866 96 905 102 C 944 108 980 116 1013 126 C 1046 136 1077 148 1105 162 C 1133 176 1160 191 1186 207 L 1217 86 Z" unicode="C" />
<glyph horiz-adv-x="1489" d="M 647 1446 C 747 1446 840 1432 927 1406 C 1013 1380 1089 1338 1153 1281 C 1217 1223 1268 1149 1305 1059 C 1341 969 1360 860 1360 733 C 1360 598 1341 484 1304 391 C 1267 298 1216 223 1152 165 C 1088 107 1012 65 926 39 C 839 13 746 0 647 0 L 205 0 L 205 1446 L 647 1446 Z M 342 1331 L 342 115 L 662 115 C 754 115 835 130 905 160 C 975 190 1033 232 1079 286 C 1125 340 1159 406 1182 482 C 1205 558 1217 641 1217 733 C 1217 815 1205 893 1183 966 C 1161 1038 1127 1102 1081 1156 C 1035 1210 978 1252 908 1284 C 838 1315 756 1331 662 1331 L 342 1331 Z" unicode="D" />
<glyph horiz-adv-x="1307" d="M 1147 1446 L 1147 1331 L 342 1331 L 342 811 L 1055 811 L 1055 696 L 342 696 L 342 115 L 1167 115 L 1167 0 L 205 0 L 205 1446 L 1147 1446 Z" unicode="E" />
<glyph horiz-adv-x="1176" d="M 1098 1446 L 1098 1331 L 342 1331 L 342 811 L 1008 811 L 1008 696 L 342 696 L 342 0 L 205 0 L 205 1446 L 1098 1446 Z" unicode="F" />
<glyph horiz-adv-x="1448" d="M 1223 1257 C 1171 1285 1110 1308 1040 1326 C 970 1344 896 1354 819 1354 C 728 1354 648 1338 578 1306 C 508 1274 450 1231 402 1175 C 354 1119 318 1052 294 976 C 270 899 258 815 258 725 C 258 639 269 558 291 482 C 313 406 346 339 392 282 C 437 224 494 179 564 145 C 634 111 717 94 813 94 C 869 94 926 98 986 106 C 1046 114 1104 132 1161 160 L 1161 608 L 786 608 L 786 721 L 1284 721 L 1284 90 C 1258 73 1226 58 1188 44 C 1150 30 1109 19 1065 10 C 1021 0 977 -6 932 -12 C 887 -17 845 -20 807 -20 C 727 -20 655 -10 591 8 C 526 26 468 52 417 86 C 365 119 321 159 283 205 C 245 251 214 301 190 356 C 165 410 147 468 135 530 C 123 592 117 655 117 719 C 117 824 133 922 165 1014 C 197 1105 243 1184 304 1252 C 364 1319 438 1372 526 1410 C 614 1448 713 1468 825 1468 C 864 1468 904 1466 945 1462 C 985 1458 1024 1453 1062 1446 C 1100 1438 1135 1429 1168 1419 C 1201 1408 1230 1396 1255 1382 L 1223 1257 Z" unicode="G" />
<glyph horiz-adv-x="1446" d="M 342 1446 L 342 788 L 1104 788 L 1104 1446 L 1241 1446 L 1241 0 L 1104 0 L 1104 676 L 342 676 L 342 0 L 205 0 L 205 1446 L 342 1446 Z" unicode="H" />
<glyph horiz-adv-x="547" d="M 342 1446 L 342 0 L 205 0 L 205 1446 L 342 1446 Z" unicode="I" />
<glyph horiz-adv-x="973" d="M 109 209 C 128 193 149 178 172 164 C 195 150 219 137 244 127 C 269 117 295 109 321 103 C 347 97 373 94 399 94 C 447 94 487 101 520 117 C 552 132 578 153 598 179 C 618 205 632 235 640 269 C 648 303 653 340 653 379 L 653 1446 L 786 1446 L 786 356 C 786 302 778 252 762 206 C 746 160 723 120 691 86 C 659 52 620 26 572 8 C 524 -10 467 -20 403 -20 C 373 -20 342 -17 312 -12 C 282 -6 252 0 224 10 C 196 19 169 30 144 43 C 118 55 96 69 76 84 L 109 209 Z" unicode="J" />
<glyph horiz-adv-x="1362" d="M 342 1446 L 342 639 L 1110 1446 L 1278 1446 L 735 883 L 1358 0 L 1188 0 L 641 786 L 342 485 L 342 0 L 205 0 L 205 1446 L 342 1446 Z" unicode="K" />
<glyph horiz-adv-x="1061" d="M 342 1446 L 342 115 L 1044 115 L 1044 0 L 205 0 L 205 1446 L 342 1446 Z" unicode="L" />
<glyph horiz-adv-x="1796" d="M 442 1446 L 897 193 L 909 193 L 1366 1446 L 1591 1446 L 1591 0 L 1458 0 L 1458 1094 L 1464 1329 L 1450 1329 L 961 0 L 836 0 L 346 1329 L 330 1329 L 338 1094 L 338 0 L 205 0 L 205 1446 L 442 1446 Z" unicode="M" />
<glyph horiz-adv-x="1470" d="M 205 1446 L 395 1446 L 1034 352 L 1137 125 L 1151 125 L 1135 379 L 1135 1446 L 1266 1446 L 1266 0 L 1081 0 L 436 1094 L 334 1319 L 317 1319 L 336 1065 L 336 0 L 205 0 L 205 1446 Z" unicode="N" />
<glyph horiz-adv-x="1542" d="M 770 1468 C 862 1468 948 1452 1028 1422 C 1108 1391 1177 1345 1236 1283 C 1294 1221 1340 1144 1374 1051 C 1408 958 1425 849 1425 725 C 1425 603 1408 495 1374 402 C 1340 309 1293 231 1234 169 C 1175 106 1106 59 1026 27 C 946 -4 861 -20 770 -20 C 676 -20 589 -4 509 27 C 429 58 360 105 302 167 C 244 229 198 307 166 400 C 133 493 117 601 117 725 C 117 849 133 957 167 1050 C 201 1143 247 1220 306 1282 C 364 1344 433 1390 513 1421 C 592 1452 678 1468 770 1468 Z M 770 1354 C 686 1354 613 1339 549 1309 C 485 1279 432 1237 389 1182 C 346 1127 313 1061 291 984 C 269 906 258 820 258 725 C 258 635 269 551 291 474 C 313 397 345 330 388 274 C 431 218 485 174 549 142 C 613 110 686 94 770 94 C 854 94 929 108 993 138 C 1057 167 1110 209 1153 264 C 1196 318 1229 385 1251 463 C 1273 541 1284 628 1284 725 C 1284 815 1273 899 1251 976 C 1229 1052 1196 1119 1153 1175 C 1110 1231 1057 1274 993 1306 C 929 1338 854 1354 770 1354 Z" unicode="O" />
<glyph horiz-adv-x="1278" d="M 342 713 L 727 713 C 787 713 838 719 878 732 C 918 745 951 765 977 791 C 1005 819 1026 852 1039 892 C 1052 931 1059 976 1059 1026 C 1059 1068 1053 1107 1041 1144 C 1029 1180 1011 1212 987 1239 C 961 1267 928 1290 886 1306 C 844 1322 791 1331 727 1331 L 342 1331 L 342 713 Z M 711 1446 C 807 1446 885 1434 947 1412 C 1009 1390 1058 1359 1096 1319 C 1130 1281 1156 1238 1173 1188 C 1189 1138 1198 1084 1198 1026 C 1198 961 1188 902 1169 848 C 1149 794 1120 749 1081 711 C 1063 693 1042 677 1020 663 C 997 649 971 637 941 627 C 911 617 878 610 840 605 C 802 600 759 598 711 598 L 342 598 L 342 0 L 205 0 L 205 1446 L 711 1446 Z" unicode="P" />
<glyph horiz-adv-x="1542" d="M 1079 51 C 1033 27 984 10 932 -2 C 880 -14 826 -20 770 -20 C 674 -20 587 -4 507 27 C 427 58 358 105 300 167 C 242 229 197 307 165 400 C 133 493 117 601 117 725 C 117 849 133 957 167 1050 C 201 1143 247 1220 306 1282 C 364 1344 433 1390 513 1421 C 592 1452 678 1468 770 1468 C 862 1468 948 1452 1028 1422 C 1108 1391 1177 1345 1236 1283 C 1294 1221 1340 1144 1374 1051 C 1408 958 1425 849 1425 725 C 1425 655 1419 589 1407 529 C 1395 468 1379 412 1358 362 C 1336 311 1310 265 1280 224 C 1250 183 1216 147 1178 117 L 1362 -104 L 1233 -133 L 1079 51 Z M 770 1354 C 686 1354 613 1339 549 1309 C 485 1279 432 1237 389 1182 C 346 1127 313 1061 291 984 C 269 906 258 820 258 725 C 258 635 269 551 291 474 C 313 397 345 330 388 274 C 431 218 485 174 549 142 C 613 110 686 94 770 94 C 856 94 934 110 1004 143 L 711 498 L 809 567 L 1102 209 C 1162 263 1208 333 1238 421 C 1268 508 1284 609 1284 725 C 1284 815 1273 899 1251 976 C 1229 1052 1196 1119 1153 1175 C 1110 1231 1057 1274 993 1306 C 929 1338 854 1354 770 1354 Z" unicode="Q" />
<glyph horiz-adv-x="1362" d="M 748 1446 C 793 1446 834 1443 871 1437 C 908 1431 941 1423 971 1413 C 1001 1402 1027 1389 1051 1373 C 1074 1357 1095 1340 1114 1321 C 1149 1285 1175 1243 1193 1195 C 1210 1147 1219 1094 1219 1038 C 1219 986 1212 938 1200 894 C 1187 850 1167 811 1141 777 C 1115 743 1081 714 1041 691 C 1001 668 953 651 897 641 L 1300 0 L 1143 0 L 756 621 L 342 621 L 342 0 L 205 0 L 205 1446 L 748 1446 Z M 342 733 L 760 733 C 972 733 1079 834 1079 1038 C 1079 1081 1072 1121 1060 1157 C 1047 1193 1027 1223 1000 1249 C 973 1275 939 1295 898 1309 C 856 1323 807 1331 750 1331 L 342 1331 L 342 733 Z" unicode="R" />
<glyph horiz-adv-x="1120" d="M 940 1282 C 892 1302 839 1320 779 1334 C 719 1348 656 1356 592 1356 C 546 1356 503 1351 462 1342 C 420 1332 384 1317 353 1297 C 322 1276 297 1249 279 1216 C 261 1183 252 1143 252 1096 C 252 1046 262 1004 282 972 C 302 940 329 913 361 892 C 393 870 430 853 470 840 C 510 826 550 814 590 803 C 652 785 710 764 765 742 C 819 720 867 693 908 661 C 949 629 982 590 1006 545 C 1030 500 1042 446 1042 383 C 1042 321 1030 264 1006 213 C 982 162 947 119 901 83 C 855 47 800 19 734 -1 C 668 -21 592 -31 508 -31 C 474 -31 439 -29 403 -26 C 367 -22 331 -17 295 -11 C 259 -5 223 3 189 13 C 155 23 123 35 94 49 L 127 172 C 155 158 186 145 219 134 C 251 123 285 114 319 106 C 353 98 387 93 422 89 C 456 85 490 84 522 84 C 573 84 622 89 668 99 C 714 109 754 126 789 148 C 824 170 852 198 872 232 C 892 266 903 308 903 356 C 903 408 891 452 868 488 C 844 524 815 554 779 578 C 743 602 703 622 661 637 C 618 652 577 665 539 676 C 510 684 480 692 448 702 C 416 711 384 722 353 736 C 321 749 291 765 262 785 C 233 804 208 827 186 854 C 164 881 147 913 134 949 C 121 985 115 1028 115 1077 C 115 1141 126 1198 150 1247 C 174 1296 207 1337 250 1370 C 293 1402 344 1427 404 1443 C 464 1459 530 1468 602 1468 C 676 1468 743 1461 803 1447 C 863 1433 919 1418 971 1401 L 940 1282 Z" unicode="S" />
<glyph horiz-adv-x="1141" d="M 1094 1446 L 1094 1331 L 641 1331 L 641 0 L 500 0 L 500 1331 L 47 1331 L 47 1446 L 1094 1446 Z" unicode="T" />
<glyph horiz-adv-x="1401" d="M 319 1446 L 319 492 C 319 458 320 424 322 391 C 324 358 329 327 337 297 C 345 267 358 240 374 216 C 390 191 413 169 441 151 C 469 133 505 119 547 109 C 589 99 640 94 700 94 C 760 94 811 99 853 109 C 895 119 930 133 958 151 C 986 169 1009 191 1025 216 C 1041 240 1054 267 1062 297 C 1070 327 1075 358 1077 391 C 1079 424 1081 458 1081 492 L 1081 1446 L 1219 1446 L 1219 477 C 1219 437 1216 398 1212 358 C 1208 318 1199 279 1187 243 C 1174 206 1156 172 1133 140 C 1109 108 1078 80 1040 56 C 1002 32 955 14 900 0 C 844 -13 778 -20 702 -20 C 625 -20 559 -13 504 0 C 448 14 401 32 363 56 C 324 80 293 108 269 140 C 245 172 227 206 214 243 C 201 279 192 318 188 358 C 184 398 182 437 182 477 L 182 1446 L 319 1446 Z" unicode="U" />
<glyph horiz-adv-x="1217" d="M 205 1446 L 580 258 L 604 154 L 621 154 L 647 258 L 1020 1446 L 1169 1446 L 684 0 L 530 0 L 51 1446 L 205 1446 Z" unicode="V" />
<glyph horiz-adv-x="1919" d="M 238 1446 L 508 252 L 528 131 L 545 131 L 567 252 L 864 1446 L 1049 1446 L 1348 252 L 1370 131 L 1386 131 L 1407 252 L 1681 1446 L 1831 1446 L 1468 0 L 1282 0 L 983 1194 L 963 1315 L 944 1315 L 924 1194 L 631 0 L 446 0 L 90 1446 L 238 1446 Z" unicode="W" />
<glyph horiz-adv-x="1237" d="M 618 842 L 1014 1446 L 1169 1446 L 698 754 L 1180 0 L 1001 0 L 612 662 L 213 0 L 55 0 L 532 754 L 66 1446 L 240 1446 L 618 842 Z" unicode="X" />
<glyph horiz-adv-x="1219" d="M 190 1446 L 616 651 L 1044 1446 L 1196 1446 L 676 526 L 676 0 L 541 0 L 541 526 L 25 1446 L 190 1446 Z" unicode="Y" />
<glyph horiz-adv-x="1260" d="M 1153 1446 L 1153 1348 L 266 115 L 1163 115 L 1163 0 L 96 0 L 96 98 L 979 1331 L 170 1331 L 170 1446 L 1153 1446 Z" unicode="Z" />
<glyph horiz-adv-x="709" d="M 584 1536 L 584 1438 L 274 1438 L 274 -229 L 584 -229 L 584 -326 L 156 -326 L 156 1536 L 584 1536 Z" unicode="[" />
<glyph horiz-adv-x="864" d="M 119 1446 L 864 -236 L 750 -236 L 0 1446 L 119 1446 Z" unicode="\" />
<glyph horiz-adv-x="709" d="M 553 1536 L 553 -326 L 125 -326 L 125 -229 L 434 -229 L 434 1438 L 125 1438 L 125 1536 L 553 1536 Z" unicode="]" />
<glyph horiz-adv-x="1167" d="M 612 1364 L 1122 414 L 969 414 L 653 1057 L 580 1210 L 561 1210 L 489 1057 L 174 414 L 20 414 L 526 1364 L 612 1364 Z" unicode="^" />
<glyph horiz-adv-x="1167" d="M 1178 -338 L 1178 -438 L -10 -438 L -10 -338 L 1178 -338 Z" unicode="_" />
<glyph horiz-adv-x="840" d="M 256 1530 L 498 1274 L 498 1231 L 434 1231 L 121 1481 L 121 1530 L 256 1530 Z" unicode="`" />
<glyph horiz-adv-x="1081" d="M 844 0 C 835 14 825 37 815 68 C 805 98 799 136 797 180 C 755 114 701 65 637 33 C 572 0 502 -16 426 -16 C 376 -16 330 -9 290 4 C 250 17 215 36 186 62 C 157 87 135 118 119 155 C 103 191 96 233 96 281 C 96 331 107 378 129 420 C 151 462 188 498 241 528 C 294 558 365 581 453 598 C 541 614 652 623 786 625 L 786 709 C 786 795 766 858 728 898 C 690 938 627 958 541 958 C 477 958 416 949 358 932 C 300 915 250 896 207 874 L 158 973 C 173 983 193 993 219 1005 C 244 1016 273 1026 307 1036 C 341 1046 378 1054 418 1060 C 458 1066 500 1069 545 1069 C 604 1069 657 1062 703 1049 C 749 1036 787 1015 819 985 C 850 955 874 917 890 869 C 906 821 915 763 915 694 L 915 264 C 915 230 916 199 920 171 C 924 143 928 118 934 96 C 940 74 946 56 953 40 C 960 24 967 10 973 0 L 844 0 Z M 451 88 C 502 88 548 96 590 112 C 631 128 666 149 695 175 C 724 201 746 231 762 265 C 778 298 786 332 786 367 L 786 543 C 705 539 635 533 576 525 C 517 517 467 507 425 495 C 383 483 350 470 324 455 C 298 440 278 424 264 406 C 249 388 239 370 234 351 C 229 331 227 311 227 291 C 227 227 245 177 282 141 C 319 105 375 88 451 88 Z" unicode="a" />
<glyph horiz-adv-x="1167" d="M 184 0 L 184 1507 L 313 1507 L 313 887 C 349 945 392 990 444 1022 C 495 1053 557 1069 631 1069 C 706 1069 770 1054 824 1026 C 878 998 922 959 957 910 C 991 861 1017 804 1033 739 C 1049 674 1057 605 1057 532 C 1057 492 1054 450 1049 408 C 1044 366 1035 324 1023 284 C 1011 243 994 204 974 168 C 954 132 928 100 897 73 C 866 45 829 24 787 8 C 745 -8 696 -16 641 -16 C 609 -16 578 -13 548 -8 C 517 -2 487 6 458 19 C 429 32 402 50 376 72 C 350 94 326 123 305 158 L 291 0 L 184 0 Z M 616 958 C 563 958 518 949 480 931 C 442 913 410 892 386 866 C 361 840 343 813 331 785 C 319 757 313 732 313 711 L 313 340 C 313 318 318 292 329 264 C 340 236 357 209 381 184 C 405 158 435 137 473 120 C 511 102 556 94 610 94 C 653 94 691 100 724 112 C 756 124 784 140 808 161 C 831 182 850 207 865 235 C 880 263 892 294 901 326 C 909 358 915 392 919 427 C 922 461 924 496 924 530 C 924 583 919 635 911 687 C 902 738 886 784 863 824 C 840 864 809 896 769 921 C 729 945 678 958 616 958 Z" unicode="b" />
<glyph horiz-adv-x="991" d="M 889 66 C 849 40 804 19 755 5 C 705 -8 648 -16 582 -16 C 500 -16 430 -2 371 24 C 311 50 262 87 224 135 C 185 182 156 238 137 303 C 118 368 109 439 109 516 C 109 596 119 671 139 739 C 159 807 190 865 230 914 C 270 962 319 1000 379 1028 C 438 1055 507 1069 586 1069 C 648 1069 704 1061 754 1047 C 804 1032 849 1012 889 987 L 854 877 C 816 901 776 921 733 936 C 689 950 641 958 588 958 C 528 958 477 947 434 925 C 390 903 354 872 326 833 C 298 794 277 748 263 694 C 249 640 242 582 242 518 C 242 464 247 411 258 361 C 269 310 288 265 314 225 C 340 185 376 154 421 130 C 465 106 522 94 590 94 C 641 94 688 101 732 116 C 776 130 816 150 854 176 L 889 66 Z" unicode="c" />
<glyph horiz-adv-x="1165" d="M 874 0 L 860 168 C 814 101 763 54 705 26 C 647 -2 586 -16 520 -16 C 466 -16 418 -8 377 7 C 335 22 299 43 269 69 C 238 95 212 125 192 161 C 171 196 154 234 141 274 C 128 314 119 356 114 399 C 108 441 106 484 106 526 C 106 596 113 664 129 730 C 145 795 170 853 204 903 C 238 953 283 994 338 1024 C 392 1054 459 1069 537 1069 C 607 1069 669 1055 721 1028 C 773 1001 816 957 852 895 L 852 1507 L 981 1507 L 981 0 L 874 0 Z M 551 94 C 603 94 647 102 685 120 C 723 137 754 158 779 184 C 803 209 822 236 834 264 C 846 292 852 318 852 340 L 852 711 C 852 733 846 758 835 786 C 824 814 807 841 783 867 C 759 893 728 914 690 932 C 652 949 607 958 553 958 C 487 958 434 945 394 919 C 354 893 322 859 300 818 C 277 776 262 730 254 678 C 246 626 242 575 242 524 C 242 470 246 418 255 367 C 263 315 279 269 302 229 C 324 188 356 155 396 131 C 436 106 487 94 551 94 Z" unicode="d" />
<glyph horiz-adv-x="1108" d="M 242 508 C 242 455 248 404 260 354 C 272 304 292 260 320 222 C 348 183 385 152 432 129 C 478 105 536 94 606 94 C 637 94 666 96 694 102 C 722 107 748 114 774 124 C 800 134 825 146 850 160 C 874 174 899 191 924 209 L 975 106 C 924 67 869 37 810 16 C 751 -5 683 -16 606 -16 C 520 -16 445 -2 383 24 C 320 50 268 87 228 134 C 188 181 158 237 138 301 C 118 365 109 434 109 510 C 109 591 119 666 141 734 C 163 802 194 861 235 911 C 275 961 325 999 383 1027 C 441 1055 508 1069 582 1069 C 650 1069 710 1057 762 1034 C 814 1011 857 979 893 938 C 929 896 956 847 974 790 C 992 733 1001 671 1001 604 C 1001 589 1000 575 999 562 C 998 549 997 531 995 508 L 242 508 Z M 578 963 C 532 963 490 954 452 938 C 414 922 381 898 353 868 C 324 838 301 801 283 757 C 265 713 252 663 246 608 L 870 608 C 872 658 867 704 855 748 C 843 791 824 829 799 861 C 774 893 743 918 706 936 C 669 954 626 963 578 963 Z" unicode="e" />
<glyph horiz-adv-x="563" d="M 551 1407 C 540 1410 526 1412 510 1414 C 493 1416 477 1417 463 1417 C 412 1417 376 1403 354 1376 C 332 1348 322 1307 322 1251 L 322 1053 L 567 1053 L 567 952 L 322 952 L 322 0 L 193 0 L 193 952 L 18 952 L 18 1053 L 193 1053 L 193 1245 C 193 1285 198 1322 210 1356 C 221 1390 237 1420 259 1446 C 281 1472 307 1492 339 1506 C 371 1520 407 1528 449 1528 C 481 1528 507 1526 527 1522 C 547 1518 561 1514 569 1509 L 551 1407 Z" unicode="f" />
<glyph horiz-adv-x="1165" d="M 981 -29 C 981 -93 973 -152 957 -206 C 941 -260 915 -306 881 -345 C 847 -383 803 -413 750 -435 C 696 -456 633 -467 559 -467 C 492 -467 428 -460 367 -447 C 306 -433 249 -413 195 -385 L 229 -274 C 271 -296 318 -316 371 -332 C 424 -348 487 -356 561 -356 C 604 -356 643 -350 679 -339 C 715 -327 745 -308 771 -282 C 797 -256 817 -221 831 -177 C 845 -133 852 -79 852 -14 L 852 160 C 814 99 766 54 709 26 C 652 -1 590 -16 522 -16 C 468 -16 421 -8 380 6 C 339 21 303 42 272 68 C 241 94 215 125 194 161 C 173 196 156 234 143 274 C 129 314 120 356 114 399 C 108 442 106 485 106 528 C 106 598 113 665 129 730 C 145 795 170 853 204 903 C 238 953 283 993 339 1023 C 395 1053 463 1069 543 1069 C 577 1069 608 1065 638 1059 C 667 1053 695 1042 721 1028 C 747 1013 771 994 794 971 C 817 948 839 920 860 887 L 874 1053 L 981 1053 L 981 -29 Z M 551 94 C 603 94 647 102 685 120 C 723 137 754 158 779 184 C 803 209 822 236 834 264 C 846 292 852 318 852 340 L 852 711 C 852 733 846 758 835 786 C 824 814 807 841 783 867 C 759 893 728 914 690 932 C 652 949 607 958 553 958 C 509 958 471 952 439 940 C 407 928 379 911 356 890 C 333 869 314 845 300 817 C 285 789 273 758 265 726 C 256 694 250 660 247 625 C 243 590 242 556 242 522 C 242 486 243 450 247 415 C 251 380 257 347 266 315 C 275 283 287 254 302 227 C 317 200 336 177 359 157 C 382 137 409 122 441 111 C 472 99 509 94 551 94 Z" unicode="g" />
<glyph horiz-adv-x="1151" d="M 862 0 L 862 700 C 862 737 857 772 848 804 C 838 836 822 863 799 887 C 778 908 752 925 721 938 C 689 951 651 958 606 958 C 558 958 516 950 480 934 C 444 918 413 899 389 875 C 364 851 345 824 332 795 C 319 765 313 737 313 711 L 313 0 L 184 0 L 184 1507 L 313 1507 L 313 879 C 331 915 353 945 377 969 C 401 993 426 1012 454 1027 C 481 1042 510 1053 541 1059 C 572 1065 605 1069 639 1069 C 695 1069 745 1060 788 1042 C 831 1024 868 999 899 967 C 930 935 953 896 968 850 C 983 804 991 748 991 680 L 991 0 L 862 0 Z" unicode="h" />
<glyph horiz-adv-x="498" d="M 324 1507 L 324 1321 L 174 1321 L 174 1507 L 324 1507 Z M 313 1053 L 313 0 L 184 0 L 184 1053 L 313 1053 Z" unicode="i" />
<glyph horiz-adv-x="498" d="M 324 1507 L 324 1321 L 174 1321 L 174 1507 L 324 1507 Z M -6 -342 C 1 -343 9 -344 18 -345 C 26 -345 35 -346 43 -346 C 93 -346 129 -332 151 -304 C 173 -276 184 -234 184 -178 L 184 1053 L 313 1053 L 313 -172 C 313 -212 307 -249 296 -283 C 284 -317 268 -347 246 -373 C 224 -399 198 -419 166 -433 C 134 -447 97 -455 57 -455 C 41 -455 28 -454 16 -454 C 4 -453 -6 -452 -16 -451 L -6 -342 Z" unicode="j" />
<glyph horiz-adv-x="1042" d="M 313 1507 L 313 520 L 842 1053 L 1006 1053 L 578 643 L 1026 0 L 862 0 L 489 557 L 313 393 L 313 0 L 184 0 L 184 1507 L 313 1507 Z" unicode="k" />
<glyph horiz-adv-x="498" d="M 313 1507 L 313 0 L 184 0 L 184 1507 L 313 1507 Z" unicode="l" />
<glyph horiz-adv-x="1749" d="M 819 0 L 819 717 C 819 748 815 778 807 807 C 799 836 787 862 769 884 C 751 906 728 924 698 938 C 668 951 632 958 588 958 C 544 958 506 950 472 934 C 438 918 409 899 386 875 C 362 851 344 824 332 795 C 319 765 313 737 313 711 L 313 0 L 184 0 L 184 868 L 164 1053 L 285 1053 L 305 868 C 323 906 345 937 369 963 C 393 989 418 1009 446 1025 C 473 1041 501 1052 530 1059 C 559 1065 588 1069 618 1069 C 652 1069 686 1065 719 1059 C 751 1052 781 1041 809 1026 C 837 1010 861 990 883 964 C 904 938 921 906 934 868 C 952 905 973 936 996 962 C 1019 988 1044 1008 1071 1024 C 1098 1040 1126 1051 1156 1058 C 1186 1065 1217 1069 1249 1069 C 1303 1069 1351 1061 1391 1045 C 1431 1029 1467 1005 1497 975 C 1525 945 1546 907 1562 863 C 1577 819 1585 762 1585 694 L 1585 0 L 1454 0 L 1454 717 C 1454 748 1450 778 1442 807 C 1434 836 1422 862 1404 884 C 1386 906 1363 924 1333 938 C 1303 951 1267 958 1223 958 C 1183 958 1147 950 1114 936 C 1080 922 1051 902 1027 878 C 1002 853 983 824 969 791 C 955 758 948 723 948 686 L 948 0 L 819 0 Z" unicode="m" />
<glyph horiz-adv-x="1151" d="M 862 0 L 862 700 C 862 737 857 772 848 804 C 839 836 823 863 801 887 C 780 908 754 925 722 938 C 690 951 651 958 606 958 C 558 958 516 950 480 934 C 444 918 413 899 389 875 C 364 851 345 824 332 795 C 319 765 313 737 313 711 L 313 0 L 184 0 L 184 868 L 164 1053 L 285 1053 L 305 868 C 323 904 345 935 370 961 C 394 987 421 1008 450 1024 C 478 1040 508 1051 540 1058 C 572 1065 605 1069 639 1069 C 695 1069 745 1060 788 1042 C 831 1024 868 999 899 967 C 930 935 953 896 968 850 C 983 804 991 748 991 680 L 991 0 L 862 0 Z" unicode="n" />
<glyph horiz-adv-x="1143" d="M 573 1069 C 645 1069 709 1055 766 1029 C 823 1002 871 965 911 917 C 951 869 981 812 1002 746 C 1023 680 1034 607 1034 528 C 1034 454 1023 384 1003 318 C 983 252 953 195 914 145 C 875 95 827 56 770 27 C 712 -1 647 -16 573 -16 C 501 -16 436 -2 379 23 C 321 49 273 86 233 134 C 193 182 162 239 141 306 C 119 372 109 446 109 528 C 109 603 119 673 139 739 C 159 805 189 862 229 911 C 269 960 317 999 375 1027 C 433 1055 499 1069 573 1069 Z M 571 958 C 513 958 463 946 422 924 C 380 902 346 871 320 832 C 293 793 273 747 261 695 C 248 643 242 587 242 528 C 242 470 248 414 260 362 C 272 310 292 264 318 224 C 344 184 378 153 420 129 C 462 105 512 94 571 94 C 629 94 678 105 720 128 C 762 151 796 182 823 222 C 849 261 869 307 882 360 C 894 412 901 468 901 528 C 901 584 894 639 882 691 C 870 743 850 788 824 828 C 798 868 764 899 722 923 C 680 946 629 958 571 958 Z" unicode="o" />
<glyph horiz-adv-x="1167" d="M 285 1053 L 305 879 C 325 911 347 939 370 963 C 392 987 417 1006 443 1022 C 469 1038 497 1049 528 1057 C 559 1065 593 1069 631 1069 C 706 1069 770 1054 824 1026 C 878 998 922 959 957 911 C 991 862 1017 805 1033 741 C 1049 677 1057 609 1057 537 C 1057 496 1054 454 1049 411 C 1043 368 1034 326 1022 285 C 1009 244 992 205 972 169 C 951 132 925 100 894 73 C 863 45 827 24 785 8 C 743 -8 695 -16 641 -16 C 608 -16 576 -13 544 -7 C 512 -1 482 7 454 20 C 426 33 400 50 376 72 C 352 93 331 120 313 152 L 313 -451 L 184 -451 L 184 868 L 164 1053 L 285 1053 Z M 616 958 C 563 958 518 949 480 932 C 442 914 410 893 386 867 C 361 841 343 814 331 786 C 319 758 313 733 313 711 L 313 340 C 313 316 319 290 331 262 C 343 233 360 206 384 181 C 408 156 438 135 474 119 C 510 102 552 94 600 94 C 667 94 722 106 764 131 C 806 156 839 189 863 230 C 887 270 903 316 911 368 C 919 420 924 472 924 526 C 924 580 919 633 911 685 C 902 737 886 783 863 823 C 840 863 809 896 769 921 C 729 945 678 958 616 958 Z" unicode="p" />
<glyph horiz-adv-x="1165" d="M 981 1053 L 981 -451 L 852 -451 L 852 160 C 814 99 766 54 709 26 C 651 -1 588 -16 520 -16 C 467 -16 420 -8 379 7 C 338 22 302 43 272 69 C 241 95 215 125 194 161 C 172 197 155 235 142 275 C 129 315 120 356 114 400 C 108 443 106 486 106 528 C 106 598 113 665 129 730 C 145 795 170 853 204 903 C 238 953 283 993 338 1023 C 392 1053 459 1069 537 1069 C 573 1069 606 1065 636 1059 C 666 1053 695 1042 721 1028 C 747 1013 772 994 795 971 C 817 948 839 920 860 887 L 874 1053 L 981 1053 Z M 561 94 C 607 94 649 102 685 119 C 721 136 752 157 777 182 C 801 207 820 234 833 262 C 845 290 852 316 852 340 L 852 711 C 852 733 846 758 835 786 C 824 814 807 841 783 867 C 759 893 728 914 690 932 C 652 949 607 958 553 958 C 487 958 434 945 394 919 C 354 893 322 859 300 817 C 277 775 262 728 254 676 C 246 624 242 572 242 520 C 242 464 246 411 255 360 C 264 308 280 263 304 224 C 327 184 359 153 401 129 C 442 105 495 94 561 94 Z" unicode="q" />
<glyph horiz-adv-x="688" d="M 653 911 C 631 916 614 919 600 921 C 586 923 571 924 557 924 C 517 924 483 917 453 905 C 423 892 397 875 376 855 C 355 835 339 811 329 785 C 318 759 313 732 313 705 L 313 0 L 184 0 L 184 870 L 164 1053 L 285 1053 L 305 868 C 319 896 336 921 354 945 C 372 968 393 988 415 1006 C 437 1023 460 1036 485 1046 C 510 1056 537 1061 567 1061 C 596 1061 630 1057 670 1049 L 653 911 Z" unicode="r" />
<glyph horiz-adv-x="907" d="M 127 141 C 141 133 159 126 179 118 C 199 110 222 102 247 96 C 271 89 297 84 325 80 C 353 76 382 74 412 74 C 447 74 481 77 514 84 C 547 90 576 101 602 116 C 627 131 647 151 663 175 C 678 199 686 229 686 264 C 686 298 678 326 664 350 C 649 373 629 393 603 410 C 577 427 546 442 510 456 C 474 469 435 482 393 496 C 361 506 328 518 296 534 C 264 550 234 569 208 593 C 182 616 160 643 144 675 C 127 707 119 744 119 788 C 119 834 127 874 145 909 C 163 944 187 973 219 997 C 250 1021 288 1039 332 1051 C 376 1063 424 1069 477 1069 C 503 1069 529 1067 556 1065 C 582 1063 608 1059 634 1055 C 660 1050 684 1044 707 1037 C 730 1030 751 1022 770 1014 L 741 905 C 699 921 656 935 611 947 C 566 959 519 965 469 965 C 437 965 407 961 379 955 C 351 949 327 939 307 926 C 287 912 271 895 259 875 C 247 854 242 829 242 801 C 242 769 248 743 261 721 C 273 699 291 681 315 665 C 338 649 366 635 399 623 C 432 611 469 600 510 588 C 544 578 580 565 616 551 C 652 537 684 518 713 495 C 742 472 766 443 785 409 C 803 375 813 333 813 283 C 813 229 802 182 780 142 C 758 102 728 70 692 44 C 655 18 612 0 564 -12 C 516 -24 466 -31 414 -31 C 380 -31 346 -28 313 -24 C 280 -19 249 -13 221 -7 C 192 -1 167 5 146 13 C 125 20 110 27 100 33 L 127 141 Z" unicode="s" />
<glyph horiz-adv-x="639" d="M 334 1333 L 334 1053 L 578 1053 L 578 952 L 334 952 L 334 248 C 334 226 335 206 338 188 C 341 170 347 154 356 141 C 365 127 378 117 394 109 C 410 101 431 98 457 98 L 586 98 L 578 0 C 570 -3 563 -6 555 -8 C 547 -10 537 -11 526 -12 C 515 -13 502 -14 488 -15 C 474 -15 457 -16 438 -16 C 395 -16 359 -9 329 3 C 299 16 275 34 257 56 C 239 78 225 103 217 133 C 209 162 205 193 205 227 L 205 952 L 33 952 L 33 1053 L 205 1053 L 219 1333 L 334 1333 Z" unicode="t" />
<glyph horiz-adv-x="1151" d="M 293 1053 L 293 352 C 293 315 297 280 306 248 C 315 216 331 188 354 166 C 374 144 401 127 434 114 C 466 100 505 94 549 94 C 595 94 637 101 674 117 C 710 133 741 153 766 177 C 790 201 809 227 822 257 C 835 286 842 314 842 342 L 842 1053 L 971 1053 L 971 184 L 991 0 L 870 0 L 850 184 C 830 147 808 116 784 91 C 760 65 733 45 705 29 C 677 13 647 1 615 -5 C 583 -12 551 -16 518 -16 C 461 -16 411 -7 367 11 C 323 29 286 53 256 84 C 226 116 203 155 187 201 C 171 247 164 305 164 373 L 164 1053 L 293 1053 Z" unicode="u" />
<glyph horiz-adv-x="926" d="M 160 1053 L 442 231 L 463 152 L 471 152 L 494 231 L 776 1053 L 915 1053 L 530 0 L 397 0 L 12 1053 L 160 1053 Z" unicode="v" />
<glyph horiz-adv-x="1448" d="M 180 1053 L 383 279 L 401 188 L 410 188 L 432 279 L 655 1053 L 795 1053 L 1018 279 L 1038 188 L 1049 188 L 1069 279 L 1274 1053 L 1415 1053 L 1114 0 L 983 0 L 750 799 L 729 889 L 719 889 L 700 799 L 465 0 L 336 0 L 39 1053 L 180 1053 Z" unicode="w" />
<glyph horiz-adv-x="930" d="M 463 629 L 729 1053 L 872 1053 L 541 547 L 889 0 L 731 0 L 461 455 L 180 0 L 33 0 L 387 541 L 51 1053 L 207 1053 L 463 629 Z" unicode="x" />
<glyph horiz-adv-x="932" d="M 150 1053 L 451 227 L 471 147 L 479 147 L 500 227 L 778 1053 L 920 1053 L 479 -152 C 465 -190 449 -228 433 -264 C 416 -300 397 -333 375 -361 C 353 -389 327 -412 299 -429 C 271 -446 239 -455 203 -455 C 186 -455 171 -454 157 -452 C 143 -450 133 -447 125 -442 L 115 -344 C 151 -344 182 -340 208 -334 C 233 -328 254 -318 272 -304 C 290 -290 305 -272 317 -250 C 329 -228 341 -202 352 -172 L 410 -16 L 6 1053 L 150 1053 Z" unicode="y" />
<glyph horiz-adv-x="907" d="M 823 1053 L 823 971 L 227 100 L 840 100 L 840 0 L 76 0 L 76 82 L 672 952 L 125 952 L 125 1053 L 823 1053 Z" unicode="z" />
<glyph horiz-adv-x="811" d="M 573 -326 C 555 -326 537 -324 518 -320 C 499 -316 480 -311 461 -303 C 442 -295 424 -286 406 -275 C 388 -264 372 -252 358 -238 C 331 -212 311 -183 297 -151 C 283 -118 276 -85 276 -51 C 276 -39 276 -28 277 -20 C 278 -12 279 -4 281 4 L 334 326 C 338 354 340 373 340 385 C 340 406 337 427 331 448 C 324 469 314 488 302 504 C 290 520 275 534 257 544 C 239 554 220 559 199 559 L 78 559 L 78 678 L 199 678 C 219 678 238 682 256 692 C 274 702 289 715 302 731 C 314 747 324 765 331 786 C 338 806 342 828 342 850 C 342 855 341 861 340 869 C 339 876 337 890 334 911 L 281 1206 C 279 1212 278 1220 277 1230 C 276 1240 276 1250 276 1262 C 276 1296 283 1329 297 1361 C 311 1393 331 1420 356 1444 C 370 1458 387 1471 405 1483 C 423 1494 442 1504 461 1512 C 480 1520 499 1526 518 1530 C 537 1534 555 1536 573 1536 L 711 1536 L 711 1438 L 606 1438 C 574 1438 544 1432 516 1422 C 488 1412 465 1396 446 1376 C 430 1359 419 1340 412 1320 C 404 1300 401 1277 401 1251 C 401 1232 401 1216 403 1203 C 404 1189 406 1175 410 1161 L 453 932 C 456 917 458 901 460 884 C 462 867 463 853 463 842 C 463 825 458 807 449 787 C 439 767 427 747 411 727 C 395 707 376 688 356 670 C 336 652 315 637 293 625 L 293 612 C 315 598 337 583 357 565 C 377 547 395 528 411 509 C 427 489 439 470 449 451 C 458 432 463 415 463 401 C 463 397 462 391 462 384 C 462 377 461 370 461 362 C 460 354 459 347 459 340 C 458 333 457 328 457 324 L 410 53 C 406 33 404 17 403 3 C 401 -10 401 -26 401 -45 C 401 -68 405 -90 413 -112 C 421 -134 433 -153 449 -170 C 467 -189 489 -204 517 -214 C 544 -224 574 -229 606 -229 L 711 -229 L 711 -326 L 573 -326 Z" unicode="{" />
<glyph horiz-adv-x="791" d="M 471 1720 L 471 -348 L 317 -348 L 317 1720 L 471 1720 Z" unicode="|" />
<glyph horiz-adv-x="811" d="M 102 -229 L 205 -229 C 237 -229 267 -224 294 -214 C 321 -204 344 -189 362 -170 C 377 -153 389 -134 398 -112 C 407 -90 412 -68 412 -45 C 412 -26 411 -10 409 3 C 407 17 404 33 401 53 L 354 324 C 353 328 352 333 352 340 C 352 347 351 354 351 362 C 351 370 350 377 350 384 C 350 391 350 397 350 401 C 350 415 354 432 363 451 C 372 470 384 489 400 509 C 415 528 433 547 453 565 C 473 583 495 598 518 612 L 518 625 C 496 637 474 652 454 670 C 434 688 416 707 400 727 C 384 747 371 767 362 787 C 352 807 348 825 348 842 C 348 853 348 867 350 884 C 352 901 354 917 358 932 L 401 1161 C 404 1175 407 1189 409 1203 C 411 1216 412 1232 412 1251 C 412 1277 408 1300 400 1320 C 392 1340 380 1359 365 1376 C 345 1396 322 1412 294 1422 C 266 1432 237 1438 205 1438 L 102 1438 L 102 1536 L 238 1536 C 274 1536 311 1528 351 1512 C 390 1496 425 1474 457 1444 C 480 1420 499 1393 513 1361 C 527 1329 535 1296 535 1262 C 535 1250 534 1240 533 1230 C 532 1220 531 1212 530 1206 L 477 911 C 473 890 471 876 471 869 C 471 861 471 855 471 850 C 470 828 473 806 480 786 C 486 765 496 747 509 731 C 521 715 536 702 554 692 C 571 682 590 678 612 678 L 733 678 L 733 559 L 612 559 C 590 559 571 554 554 544 C 536 534 521 520 509 504 C 497 488 487 469 481 448 C 474 427 471 406 471 385 C 471 373 473 354 477 326 L 530 4 C 531 -4 532 -12 533 -20 C 534 -28 535 -39 535 -51 C 535 -85 528 -118 514 -151 C 500 -183 480 -212 455 -238 C 439 -252 423 -264 405 -275 C 387 -286 368 -295 349 -303 C 330 -311 311 -316 292 -320 C 273 -324 255 -326 238 -326 L 102 -326 L 102 -229 Z" unicode="}" />
<glyph horiz-adv-x="1167" d="M 82 535 C 104 565 129 592 156 616 C 182 640 209 660 237 677 C 264 694 292 707 320 717 C 348 726 375 731 401 731 C 429 731 454 725 477 715 C 500 705 522 692 542 677 C 562 661 581 645 599 627 C 617 609 636 593 655 578 C 674 562 694 549 714 539 C 734 529 757 524 782 524 C 816 524 850 535 885 559 C 919 583 953 615 985 657 L 1081 590 C 1033 531 982 485 926 451 C 870 417 817 401 766 401 C 736 401 710 406 687 416 C 663 426 641 438 621 453 C 601 468 582 484 564 502 C 546 520 527 536 509 551 C 490 566 471 579 451 589 C 431 599 409 604 385 604 C 351 604 316 592 280 568 C 244 544 210 513 178 473 L 82 535 Z" unicode="~" />
<glyph horiz-adv-x="469" d="" unicode=" " />
<glyph horiz-adv-x="578" d="M 186 0 L 186 207 L 221 971 L 309 971 L 342 207 L 342 0 L 186 0 Z M 178 1227 L 178 1446 L 348 1446 L 348 1227 L 178 1227 Z" unicode="¡" />
<glyph horiz-adv-x="1167" d="M 643 -16 C 617 -16 591 -14 567 -10 L 514 -330 L 408 -330 L 465 10 C 415 26 371 51 334 83 C 297 115 266 153 242 197 C 218 241 200 289 188 343 C 176 397 170 454 170 516 C 170 596 180 670 200 738 C 220 805 249 863 289 912 C 329 961 378 999 437 1027 C 496 1054 565 1068 643 1069 L 688 1364 L 795 1364 L 745 1061 C 823 1049 892 1024 950 987 L 913 877 C 876 901 836 921 794 936 C 751 950 703 958 649 958 C 590 958 539 947 495 925 C 451 903 414 872 385 833 C 355 794 333 748 319 694 C 304 640 297 582 297 518 C 297 464 302 411 314 361 C 326 310 345 265 373 225 C 400 185 436 154 482 130 C 527 106 583 94 651 94 C 703 94 750 101 793 116 C 836 130 876 150 913 176 L 950 66 C 910 40 865 19 816 5 C 766 -8 709 -16 643 -16 Z" unicode="¢" />
<glyph horiz-adv-x="1167" d="M 793 651 L 469 651 C 487 611 503 572 516 532 C 528 492 535 449 535 403 C 535 365 530 328 520 293 C 510 258 494 225 473 193 C 493 181 515 169 537 159 C 559 148 582 139 606 131 C 630 123 655 117 683 113 C 710 108 740 106 772 106 C 794 106 815 107 835 110 C 855 113 876 118 897 124 C 918 130 940 138 963 148 C 985 157 1010 168 1038 180 L 1038 66 C 1028 57 1013 48 995 39 C 976 29 955 21 931 13 C 907 5 882 -1 854 -6 C 826 -11 797 -14 768 -14 C 736 -14 705 -11 676 -6 C 647 0 618 7 590 17 C 561 27 532 39 503 54 C 474 68 444 85 412 104 C 378 65 341 37 301 19 C 260 1 215 -8 166 -8 C 142 -8 121 -6 103 -3 C 85 0 70 6 59 14 L 59 121 C 74 117 91 114 109 112 C 127 110 145 109 164 109 C 212 109 252 118 284 136 C 316 154 341 177 360 205 C 379 232 392 262 400 295 C 408 327 412 358 412 387 C 412 434 403 479 387 522 C 370 564 350 607 328 651 L 59 651 L 59 752 L 274 752 C 251 795 232 839 216 884 C 200 928 193 976 193 1028 C 193 1079 202 1126 221 1170 C 240 1213 268 1250 305 1282 C 342 1314 388 1339 443 1357 C 497 1375 561 1384 633 1384 C 669 1384 704 1381 739 1376 C 774 1371 808 1364 840 1355 C 872 1346 901 1335 928 1322 C 955 1308 979 1294 999 1278 L 950 1182 C 898 1210 844 1232 790 1247 C 735 1262 681 1270 627 1270 C 531 1270 457 1248 406 1204 C 355 1160 330 1101 330 1026 C 330 978 339 931 357 886 C 375 841 396 796 420 752 L 793 752 L 793 651 Z" unicode="£" />
<glyph horiz-adv-x="1167" d="M 270 186 C 186 261 145 373 145 522 L 145 727 C 145 761 147 794 152 826 C 156 858 164 888 174 917 C 184 946 198 973 214 998 C 230 1023 250 1045 274 1065 L 115 1364 L 236 1364 L 360 1120 C 422 1151 496 1167 582 1167 C 676 1167 755 1149 819 1114 L 948 1364 L 1069 1364 L 903 1055 C 944 1015 974 968 993 914 C 1012 860 1022 797 1022 727 L 1022 522 C 1022 383 983 276 907 201 L 1073 -115 L 950 -115 L 821 137 C 789 119 753 106 713 96 C 673 86 630 82 582 82 C 492 82 417 98 356 131 L 233 -115 L 111 -115 L 270 186 Z M 582 193 C 631 193 674 200 710 214 C 746 228 776 246 801 270 C 833 301 857 340 871 388 C 885 436 893 490 893 551 L 893 698 C 895 828 867 922 811 979 C 786 1003 755 1022 717 1036 C 679 1050 634 1057 582 1057 C 529 1057 484 1050 446 1036 C 408 1022 377 1002 352 977 C 324 948 303 911 291 865 C 278 819 272 764 272 698 L 272 551 C 272 485 278 429 291 384 C 303 338 324 301 352 272 C 377 246 408 227 446 213 C 484 199 529 193 582 193 Z" unicode="¤" />
<glyph horiz-adv-x="1167" d="M 266 1364 L 592 643 L 918 1364 L 1065 1364 L 836 897 L 1094 897 L 1094 797 L 784 797 L 682 580 L 1094 580 L 1094 479 L 653 479 L 653 0 L 518 0 L 518 479 L 72 479 L 72 580 L 485 580 L 385 797 L 72 797 L 72 897 L 334 897 L 106 1364 L 266 1364 Z" unicode="¥" />
<glyph horiz-adv-x="791" d="M 471 1567 L 471 840 L 317 840 L 317 1567 L 471 1567 Z M 471 530 L 471 -195 L 317 -195 L 317 530 L 471 530 Z" unicode="¦" />
<glyph horiz-adv-x="1290" d="M 324 -152 C 372 -169 422 -183 475 -195 C 527 -207 580 -213 633 -213 C 712 -213 774 -199 820 -171 C 866 -143 889 -101 889 -45 C 889 -11 881 16 866 39 C 851 62 830 82 802 99 C 774 116 741 131 701 143 C 661 155 617 166 567 178 C 533 186 499 195 464 205 C 428 215 394 228 361 243 C 327 257 296 275 267 295 C 237 315 212 338 190 365 C 168 391 150 422 138 457 C 125 491 119 531 119 575 C 119 617 125 656 139 691 C 152 725 170 756 194 782 C 217 808 245 831 277 850 C 309 868 343 883 381 893 C 349 918 323 948 303 984 C 283 1020 274 1062 274 1110 C 274 1150 282 1187 299 1221 C 315 1255 339 1284 371 1308 C 403 1332 442 1350 488 1364 C 534 1377 587 1384 647 1384 C 673 1384 700 1382 729 1380 C 758 1378 787 1374 816 1370 C 845 1365 873 1359 901 1352 C 928 1345 953 1337 975 1329 L 946 1221 C 898 1237 847 1250 794 1262 C 741 1274 689 1280 637 1280 C 563 1280 504 1266 461 1239 C 418 1212 397 1170 397 1114 C 397 1080 404 1052 419 1029 C 434 1006 455 986 483 969 C 511 952 544 938 584 926 C 624 914 669 902 719 891 C 753 883 787 873 823 863 C 858 853 892 840 925 825 C 958 810 989 793 1019 773 C 1048 753 1074 729 1096 703 C 1118 676 1135 645 1148 611 C 1160 576 1167 537 1167 494 C 1167 450 1160 411 1147 377 C 1133 342 1115 311 1091 284 C 1067 257 1040 234 1008 216 C 976 197 941 182 905 172 C 937 147 962 117 982 82 C 1002 47 1012 6 1012 -41 C 1012 -82 1003 -119 986 -153 C 968 -187 943 -216 910 -240 C 876 -264 836 -282 788 -295 C 740 -308 685 -315 623 -315 C 597 -315 569 -313 541 -311 C 512 -309 483 -305 454 -301 C 425 -296 397 -290 370 -283 C 342 -276 317 -268 295 -260 L 324 -152 Z M 600 797 C 583 801 567 805 551 809 C 535 813 519 819 504 825 C 470 821 437 814 406 803 C 374 791 347 775 323 755 C 299 735 281 710 267 681 C 253 651 246 617 246 578 C 246 531 256 492 276 461 C 296 429 326 402 364 380 C 402 357 448 337 502 321 C 556 304 616 287 684 270 C 699 266 714 261 730 257 C 745 253 760 248 776 242 C 811 244 845 251 877 262 C 909 273 937 289 961 309 C 985 329 1004 354 1018 384 C 1032 414 1040 449 1040 489 C 1040 536 1029 575 1009 607 C 988 639 958 666 920 688 C 882 710 835 730 781 746 C 727 762 666 779 600 797 Z" unicode="§" />
<glyph horiz-adv-x="840" d="M 274 1446 L 274 1272 L 137 1272 L 137 1446 L 274 1446 Z M 705 1446 L 705 1272 L 565 1272 L 565 1446 L 705 1446 Z" unicode="¨" />
<glyph horiz-adv-x="1839" d="M 903 -143 C 826 -143 752 -133 681 -114 C 609 -94 542 -67 480 -31 C 418 4 361 47 310 97 C 258 147 214 203 178 265 C 141 326 113 392 93 463 C 73 533 63 607 63 684 C 63 760 73 834 93 904 C 113 974 141 1040 178 1101 C 214 1162 258 1217 310 1267 C 361 1317 418 1359 480 1395 C 542 1431 609 1458 681 1478 C 752 1497 826 1507 903 1507 C 979 1507 1053 1497 1125 1478 C 1196 1458 1263 1431 1325 1395 C 1387 1359 1443 1317 1494 1267 C 1545 1217 1589 1162 1626 1101 C 1662 1040 1691 974 1711 904 C 1731 834 1741 760 1741 684 C 1741 607 1731 533 1711 463 C 1691 392 1662 326 1626 265 C 1589 203 1545 147 1494 97 C 1443 47 1387 4 1325 -31 C 1263 -67 1196 -94 1125 -114 C 1053 -133 979 -143 903 -143 Z M 1186 952 C 1146 971 1104 985 1060 995 C 1016 1005 971 1010 926 1010 C 876 1010 832 1001 792 984 C 752 967 717 944 689 915 C 660 886 638 852 623 812 C 607 772 600 730 600 686 C 600 640 608 598 626 561 C 643 524 667 492 697 466 C 727 440 762 420 802 406 C 842 392 884 385 930 385 C 989 385 1039 390 1080 400 C 1120 410 1158 422 1192 436 L 1235 336 C 1215 327 1195 319 1175 312 C 1154 304 1131 298 1107 293 C 1083 287 1056 283 1027 280 C 998 277 966 276 930 276 C 867 276 808 285 753 305 C 697 324 649 351 607 387 C 565 423 533 466 509 516 C 485 566 473 623 473 686 C 473 746 483 803 505 856 C 526 909 556 955 595 994 C 634 1033 681 1064 737 1086 C 793 1108 855 1120 924 1120 C 978 1120 1031 1113 1084 1101 C 1137 1088 1185 1071 1229 1051 L 1186 952 Z M 903 -45 C 969 -45 1033 -36 1095 -19 C 1157 -1 1214 22 1268 54 C 1322 86 1371 124 1415 168 C 1459 212 1497 262 1529 316 C 1560 370 1584 428 1602 490 C 1619 552 1628 616 1628 684 C 1628 750 1619 813 1602 875 C 1584 937 1560 995 1529 1049 C 1497 1103 1459 1152 1415 1196 C 1371 1240 1322 1278 1268 1310 C 1214 1342 1157 1366 1095 1384 C 1033 1402 969 1411 903 1411 C 837 1411 773 1402 711 1384 C 649 1366 592 1342 538 1310 C 484 1278 434 1240 390 1196 C 346 1152 308 1103 276 1049 C 244 995 220 937 202 875 C 184 813 176 750 176 684 C 176 616 184 552 202 490 C 220 428 244 370 276 316 C 308 262 346 212 390 168 C 434 124 484 86 538 54 C 592 22 649 -1 711 -19 C 773 -36 837 -45 903 -45 Z" unicode="©" />
<glyph horiz-adv-x="864" d="M 338 631 C 298 631 263 636 232 647 C 200 657 173 673 151 693 C 129 713 112 737 100 766 C 88 795 82 828 82 864 C 82 903 90 939 107 971 C 124 1003 153 1031 194 1054 C 235 1077 290 1095 358 1108 C 426 1121 512 1128 614 1130 L 614 1192 C 614 1256 599 1303 571 1333 C 543 1363 496 1378 432 1378 C 380 1378 331 1370 286 1355 C 240 1339 199 1322 162 1303 L 119 1384 C 131 1393 147 1403 167 1413 C 187 1423 211 1433 238 1442 C 265 1451 295 1458 329 1464 C 362 1470 398 1473 436 1473 C 482 1473 524 1467 560 1457 C 596 1447 627 1430 652 1407 C 677 1384 696 1354 709 1318 C 722 1281 729 1236 729 1184 L 729 848 C 729 795 733 752 743 719 C 753 686 762 661 772 645 L 657 645 C 651 655 644 672 636 696 C 628 719 623 747 621 780 C 589 730 548 693 499 668 C 450 643 396 631 338 631 Z M 360 721 C 399 721 434 727 466 739 C 497 751 524 766 546 786 C 568 806 584 828 596 853 C 608 877 614 902 614 928 L 614 1063 C 530 1059 462 1051 408 1041 C 354 1030 311 1016 279 999 C 247 982 225 962 213 940 C 201 918 195 893 195 866 C 195 820 209 785 238 759 C 267 733 308 721 360 721 Z" unicode="ª" />
<glyph horiz-adv-x="1004" d="M 453 887 L 178 578 L 453 268 L 315 268 L 78 526 L 78 631 L 315 887 L 453 887 Z M 846 887 L 571 578 L 846 268 L 709 268 L 471 526 L 471 631 L 709 887 L 846 887 Z" unicode="«" />
<glyph horiz-adv-x="1167" d="M 1094 903 L 1094 236 L 965 236 L 965 784 L 57 784 L 57 903 L 1094 903 Z" unicode="¬" />
<glyph horiz-adv-x="1073" d="M 522 530 C 454 530 392 542 334 566 C 276 590 225 623 183 665 C 140 707 106 757 82 814 C 57 871 45 933 45 999 C 45 1062 57 1122 82 1179 C 106 1236 140 1286 183 1329 C 225 1371 276 1405 334 1430 C 392 1455 454 1468 522 1468 C 590 1468 653 1455 712 1430 C 770 1405 821 1371 865 1329 C 909 1286 943 1236 968 1179 C 993 1122 1006 1062 1006 999 C 1006 933 993 871 968 814 C 943 757 909 707 865 665 C 821 623 770 590 712 566 C 653 542 590 530 522 530 Z M 332 776 L 332 1249 L 592 1249 C 615 1249 637 1245 657 1238 C 677 1231 694 1221 709 1209 C 723 1196 735 1181 743 1164 C 751 1147 756 1128 756 1108 C 756 1078 746 1051 726 1027 C 706 1003 680 986 647 977 L 764 776 L 678 776 L 567 971 L 408 971 L 408 776 L 332 776 Z M 408 1186 L 408 1034 L 592 1034 C 617 1034 638 1041 656 1056 C 673 1071 682 1088 682 1108 C 682 1120 679 1130 674 1140 C 669 1149 662 1157 654 1164 C 646 1171 636 1176 626 1180 C 615 1184 604 1186 592 1186 L 408 1186 Z M 522 590 C 580 590 635 600 687 622 C 738 643 783 672 821 709 C 859 746 889 789 911 839 C 933 889 944 942 944 999 C 944 1055 933 1107 911 1157 C 889 1207 859 1250 821 1288 C 783 1325 738 1354 687 1376 C 635 1398 580 1409 522 1409 C 464 1409 409 1398 359 1376 C 309 1354 265 1325 228 1288 C 191 1250 162 1207 141 1157 C 119 1107 109 1055 109 999 C 109 942 119 889 141 839 C 162 789 191 746 228 709 C 265 672 309 643 359 622 C 409 600 464 590 522 590 Z" unicode="®" />
<glyph horiz-adv-x="840" d="M 676 1393 L 676 1286 L 164 1286 L 164 1393 L 676 1393 Z" unicode="¯" />
<glyph horiz-adv-x="774" d="M 387 1391 C 441 1391 488 1382 526 1364 C 564 1346 594 1321 618 1291 C 642 1260 659 1224 670 1183 C 680 1142 686 1099 686 1053 C 686 939 660 851 610 788 C 560 725 485 694 387 694 C 331 694 283 704 245 725 C 207 745 176 772 153 806 C 129 839 113 877 103 920 C 93 963 88 1007 88 1051 C 88 1163 113 1247 163 1305 C 213 1362 287 1391 387 1391 Z M 387 1298 C 348 1298 316 1291 292 1278 C 267 1264 247 1246 233 1224 C 219 1201 209 1175 203 1145 C 197 1115 195 1085 195 1053 C 195 1027 197 998 201 967 C 205 935 214 906 228 879 C 242 852 261 829 287 811 C 312 793 345 784 387 784 C 425 784 457 791 482 807 C 507 823 527 843 541 868 C 555 893 564 922 570 954 C 575 986 578 1018 578 1051 C 578 1079 575 1108 570 1138 C 565 1167 556 1193 542 1217 C 528 1241 509 1260 484 1275 C 459 1290 427 1298 387 1298 Z" unicode="°" />
<glyph horiz-adv-x="1167" d="M 518 811 L 518 1233 L 649 1233 L 649 811 L 1110 811 L 1110 690 L 649 690 L 649 266 L 518 266 L 518 690 L 57 690 L 57 811 L 518 811 Z M 1110 119 L 1110 0 L 57 0 L 57 119 L 1110 119 Z" unicode="±" />
<glyph horiz-adv-x="766" d="M 659 516 L 100 516 L 100 612 L 424 934 C 439 950 454 965 468 981 C 482 997 494 1013 505 1030 C 516 1046 525 1063 531 1080 C 537 1097 541 1115 541 1133 C 541 1152 537 1171 530 1189 C 522 1207 512 1224 498 1238 C 484 1252 466 1264 446 1273 C 426 1281 403 1286 377 1286 C 293 1286 229 1240 184 1149 L 94 1184 C 104 1207 117 1230 134 1253 C 150 1276 171 1297 195 1315 C 219 1333 246 1347 278 1359 C 310 1370 346 1376 387 1376 C 428 1376 465 1369 498 1357 C 530 1345 558 1328 581 1306 C 603 1284 621 1259 633 1230 C 645 1201 651 1170 651 1137 C 651 1113 647 1090 641 1069 C 634 1047 625 1027 614 1007 C 602 987 588 968 572 950 C 556 932 538 913 520 895 L 227 606 L 659 606 L 659 516 Z" unicode="²" />
<glyph horiz-adv-x="745" d="M 76 1225 C 88 1243 102 1261 120 1279 C 138 1297 158 1313 182 1328 C 205 1342 231 1354 261 1364 C 291 1373 324 1378 360 1378 C 394 1378 427 1373 458 1364 C 489 1355 516 1342 540 1324 C 563 1306 581 1285 595 1260 C 609 1234 616 1206 616 1174 C 616 1149 612 1127 604 1107 C 596 1087 586 1069 574 1054 C 562 1039 547 1027 531 1017 C 514 1007 497 999 479 993 L 479 985 C 500 982 521 976 541 966 C 561 956 580 943 596 927 C 612 911 624 891 634 868 C 644 845 649 819 649 791 C 649 741 636 697 611 659 C 586 621 552 590 509 566 C 466 541 416 522 359 510 C 301 498 240 492 176 492 C 159 492 145 492 135 493 C 125 494 116 496 109 498 L 102 592 C 110 590 121 589 134 589 C 146 588 160 588 176 588 C 232 588 282 592 327 602 C 372 611 410 624 442 642 C 473 660 497 681 514 707 C 530 732 539 761 539 793 C 539 815 534 835 526 852 C 517 868 506 882 492 893 C 478 903 462 911 444 916 C 426 921 407 924 389 924 C 385 924 381 923 376 923 C 370 923 362 922 352 920 C 341 918 327 916 311 914 C 294 911 272 907 246 903 L 229 987 L 330 1004 C 353 1007 375 1013 397 1022 C 419 1030 438 1041 454 1055 C 470 1068 483 1083 493 1101 C 503 1119 508 1139 508 1161 C 508 1198 493 1229 465 1253 C 437 1277 399 1290 352 1290 C 332 1290 315 1287 299 1283 C 283 1278 267 1271 252 1262 C 237 1253 222 1242 207 1229 C 191 1215 175 1200 158 1182 L 76 1225 L 76 1225 Z" unicode="³" />
<glyph horiz-adv-x="840" d="M 715 1530 L 715 1481 L 401 1231 L 338 1231 L 338 1274 L 580 1530 L 715 1530 Z" unicode="´" />
<glyph horiz-adv-x="1186" d="M 870 184 C 851 147 829 116 805 91 C 781 65 754 45 726 29 C 698 13 668 1 636 -5 C 604 -12 572 -16 539 -16 C 515 -16 492 -13 469 -8 C 446 -2 424 5 404 15 C 384 25 365 37 349 52 C 332 67 319 84 309 104 L 301 98 L 315 -55 L 315 -451 L 184 -451 L 184 1053 L 313 1053 L 313 334 C 313 306 317 278 326 250 C 334 222 349 196 369 173 C 389 149 415 130 448 116 C 480 101 521 94 569 94 C 616 94 658 101 694 117 C 730 133 761 153 786 177 C 811 201 830 227 843 257 C 855 286 862 314 862 342 L 862 1053 L 991 1053 L 991 264 C 991 230 992 199 996 171 C 1000 143 1004 118 1010 96 C 1016 74 1022 56 1029 40 C 1036 24 1043 10 1049 0 L 920 0 C 916 6 911 16 906 29 C 900 41 895 56 890 72 C 885 88 881 106 877 125 C 873 144 870 164 870 184 Z" unicode="µ" />
<glyph horiz-adv-x="1395" d="M 1186 1446 L 1186 -451 L 1051 -451 L 1051 1333 L 735 1333 L 735 -451 L 598 -451 L 598 629 L 514 629 C 484 629 458 630 435 634 C 412 638 391 643 372 650 C 353 657 336 666 320 677 C 304 687 288 699 274 713 C 235 749 203 796 177 854 C 151 912 138 978 137 1053 C 137 1117 147 1173 167 1222 C 187 1270 214 1312 246 1346 C 278 1378 316 1403 360 1420 C 404 1437 455 1446 514 1446 L 1186 1446 Z" unicode="¶" />
<glyph horiz-adv-x="473" d="M 338 702 L 338 440 L 135 440 L 135 702 L 338 702 Z" unicode="·" />
<glyph horiz-adv-x="840" d="M 467 6 L 467 -29 C 467 -40 472 -50 483 -59 L 545 -123 C 551 -130 558 -138 566 -148 C 574 -158 581 -169 588 -181 C 594 -193 600 -206 604 -221 C 608 -235 610 -252 610 -270 C 610 -326 590 -371 550 -403 C 510 -435 455 -451 387 -451 C 356 -451 327 -447 300 -441 C 272 -434 249 -423 231 -408 L 252 -317 C 258 -322 267 -327 278 -331 C 289 -335 301 -338 313 -341 C 325 -344 338 -346 351 -348 C 364 -349 376 -350 387 -350 C 401 -350 414 -348 427 -346 C 440 -343 452 -338 463 -332 C 473 -325 482 -316 488 -305 C 494 -294 498 -280 498 -264 C 498 -243 492 -227 482 -215 C 471 -203 459 -190 446 -178 L 389 -123 C 383 -117 377 -110 373 -102 C 369 -94 367 -85 367 -76 L 367 6 L 467 6 Z" unicode="¸" />
<glyph horiz-adv-x="500" d="M 236 1364 L 326 1364 L 317 1278 L 317 516 L 209 516 L 209 1241 L 213 1266 L 209 1266 L 70 1206 L 70 1303 L 236 1364 Z" unicode="¹" />
<glyph horiz-adv-x="909" d="M 457 1473 C 512 1473 562 1462 606 1442 C 650 1422 688 1393 720 1357 C 751 1320 775 1276 792 1225 C 808 1173 817 1117 817 1055 C 817 997 809 942 793 891 C 777 839 753 794 723 756 C 693 717 655 686 611 664 C 566 642 515 631 457 631 C 400 631 349 641 304 661 C 259 681 221 709 189 746 C 157 783 133 828 117 880 C 100 932 92 991 92 1055 C 92 1113 100 1167 116 1218 C 132 1269 155 1313 186 1351 C 217 1389 255 1418 301 1440 C 346 1462 398 1473 457 1473 Z M 455 1376 C 411 1376 374 1367 343 1351 C 312 1334 287 1311 267 1282 C 247 1253 232 1219 223 1180 C 213 1141 209 1099 209 1055 C 209 1011 213 970 222 931 C 231 891 245 857 265 827 C 284 797 309 773 341 755 C 372 737 410 729 455 729 C 498 729 535 737 566 755 C 597 772 622 795 642 825 C 662 855 676 889 686 929 C 695 968 700 1010 700 1055 C 700 1097 695 1138 686 1177 C 677 1215 663 1249 644 1279 C 624 1308 599 1331 568 1349 C 537 1367 499 1376 455 1376 Z" unicode="º" />
<glyph horiz-adv-x="1004" d="M 688 887 L 926 631 L 926 526 L 686 268 L 549 268 L 823 578 L 549 887 L 688 887 Z M 295 887 L 532 631 L 532 526 L 293 268 L 156 268 L 430 578 L 156 887 L 295 887 Z" unicode="»" />
<glyph horiz-adv-x="1518" d="M 236 1364 L 326 1364 L 317 1278 L 317 516 L 209 516 L 209 1241 L 213 1266 L 209 1266 L 70 1206 L 70 1303 L 236 1364 Z M 1116 1364 L 340 0 L 231 0 L 1008 1364 L 1116 1364 Z M 1323 848 L 1323 276 L 1460 276 L 1460 188 L 1323 188 L 1323 0 L 1214 0 L 1214 188 L 823 188 L 823 293 L 1210 848 L 1323 848 Z M 907 276 L 1214 276 L 1214 623 L 1223 713 L 1217 715 L 907 276 Z" unicode="¼" />
<glyph horiz-adv-x="1610" d="M 236 1364 L 326 1364 L 317 1278 L 317 516 L 209 516 L 209 1241 L 213 1266 L 209 1266 L 70 1206 L 70 1303 L 236 1364 Z M 1116 1364 L 340 0 L 231 0 L 1008 1364 L 1116 1364 Z M 938 668 C 948 691 961 714 978 737 C 994 760 1015 781 1039 799 C 1063 817 1090 831 1122 843 C 1154 854 1190 860 1231 860 C 1271 860 1308 853 1341 841 C 1373 829 1401 812 1424 790 C 1447 768 1465 743 1477 714 C 1489 685 1495 654 1495 621 C 1495 597 1491 574 1485 553 C 1478 531 1469 511 1458 491 C 1446 471 1432 452 1416 434 C 1400 416 1382 397 1364 379 L 1071 90 L 1503 90 L 1503 0 L 944 0 L 944 96 L 1266 418 C 1282 434 1297 449 1311 465 C 1325 481 1337 497 1348 514 C 1359 530 1368 547 1374 564 C 1380 580 1384 598 1384 616 C 1384 635 1380 654 1373 673 C 1365 691 1354 708 1340 722 C 1326 736 1308 748 1288 757 C 1268 765 1245 770 1219 770 C 1138 770 1074 724 1026 633 L 938 668 Z" unicode="½" />
<glyph horiz-adv-x="1763" d="M 76 1225 C 88 1243 102 1261 120 1279 C 138 1297 158 1313 182 1328 C 205 1342 231 1354 261 1364 C 291 1373 324 1378 360 1378 C 394 1378 427 1373 458 1364 C 489 1355 516 1342 540 1324 C 563 1306 581 1285 595 1260 C 609 1234 616 1206 616 1174 C 616 1149 612 1127 604 1107 C 596 1087 586 1069 574 1054 C 562 1039 547 1027 531 1017 C 514 1007 497 999 479 993 L 479 985 C 500 982 521 976 541 966 C 561 956 580 943 596 927 C 612 911 624 891 634 868 C 644 845 649 819 649 791 C 649 741 636 697 611 659 C 586 621 552 590 509 566 C 466 541 416 522 359 510 C 301 498 240 492 176 492 C 159 492 145 492 135 493 C 125 494 116 496 109 498 L 102 592 C 110 590 121 589 134 589 C 146 588 160 588 176 588 C 232 588 282 592 327 602 C 372 611 410 624 442 642 C 473 660 497 681 514 707 C 530 732 539 761 539 793 C 539 815 534 835 526 852 C 517 868 506 882 492 893 C 478 903 462 911 444 916 C 426 921 407 924 389 924 C 385 924 381 923 376 923 C 370 923 362 922 352 920 C 341 918 327 916 311 914 C 294 911 272 907 246 903 L 229 987 L 330 1004 C 353 1007 375 1013 397 1022 C 419 1030 438 1041 454 1055 C 470 1068 483 1083 493 1101 C 503 1119 508 1139 508 1161 C 508 1198 493 1229 465 1253 C 437 1277 399 1290 352 1290 C 332 1290 315 1287 299 1283 C 283 1278 267 1271 252 1262 C 237 1253 222 1242 207 1229 C 191 1215 175 1200 158 1182 L 76 1225 Z M 1360 1364 L 584 0 L 477 0 L 1253 1364 L 1360 1364 Z M 1569 848 L 1569 276 L 1706 276 L 1706 188 L 1569 188 L 1569 0 L 1458 0 L 1458 188 L 1069 188 L 1069 293 L 1456 848 L 1569 848 Z M 1153 276 L 1458 276 L 1458 623 L 1466 713 L 1462 715 L 1153 276 Z" unicode="¾" />
<glyph horiz-adv-x="905" d="M 815 162 C 797 137 774 114 748 92 C 721 70 691 52 659 36 C 627 20 592 7 554 -2 C 516 -11 478 -16 438 -16 C 390 -16 344 -9 302 4 C 259 18 222 38 190 64 C 158 90 132 122 114 160 C 95 198 86 243 86 293 C 86 329 90 363 100 393 C 110 423 124 452 142 480 C 160 508 182 535 208 563 C 234 590 263 619 297 651 C 320 674 342 696 363 717 C 383 737 401 759 417 783 C 432 807 444 833 453 863 C 462 893 467 929 467 971 L 588 971 C 588 925 584 886 578 855 C 571 823 560 794 545 767 C 530 740 510 713 486 686 C 461 659 431 628 395 592 C 365 564 339 539 316 517 C 293 495 274 473 258 451 C 242 429 229 407 221 385 C 213 362 209 337 209 309 C 209 270 216 237 230 210 C 244 182 262 160 285 143 C 307 126 333 114 361 106 C 389 98 416 94 444 94 C 496 94 548 105 599 127 C 650 149 697 183 739 229 L 815 162 Z M 434 1227 L 434 1446 L 606 1446 L 606 1227 L 434 1227 Z" unicode="¿" />
<glyph horiz-adv-x="1270" d="M 934 356 L 322 356 L 205 0 L 74 0 L 559 1446 L 715 1446 L 1192 0 L 1049 0 L 934 356 Z M 664 1196 L 639 1300 L 623 1300 L 596 1196 L 358 471 L 901 471 L 664 1196 Z M 471 1903 L 713 1647 L 713 1604 L 649 1604 L 336 1853 L 336 1903 L 471 1903 Z" unicode="À" />
<glyph horiz-adv-x="1270" d="M 934 356 L 322 356 L 205 0 L 74 0 L 559 1446 L 715 1446 L 1192 0 L 1049 0 L 934 356 Z M 664 1196 L 639 1300 L 623 1300 L 596 1196 L 358 471 L 901 471 L 664 1196 Z M 930 1903 L 930 1853 L 616 1604 L 553 1604 L 553 1647 L 795 1903 L 930 1903 Z" unicode="Á" />
<glyph horiz-adv-x="1270" d="M 934 356 L 322 356 L 205 0 L 74 0 L 559 1446 L 715 1446 L 1192 0 L 1049 0 L 934 356 Z M 664 1196 L 639 1300 L 623 1300 L 596 1196 L 358 471 L 901 471 L 664 1196 Z M 688 1903 L 893 1640 L 893 1604 L 834 1604 L 639 1800 L 629 1800 L 434 1604 L 375 1604 L 375 1640 L 582 1903 L 688 1903 Z" unicode="Â" />
<glyph horiz-adv-x="1270" d="M 934 356 L 322 356 L 205 0 L 74 0 L 559 1446 L 715 1446 L 1192 0 L 1049 0 L 934 356 Z M 664 1196 L 639 1300 L 623 1300 L 596 1196 L 358 471 L 901 471 L 664 1196 Z M 367 1765 C 399 1797 427 1819 451 1829 C 474 1839 496 1845 518 1845 C 530 1845 541 1843 552 1841 C 563 1839 574 1835 586 1829 C 597 1823 609 1816 621 1806 C 633 1796 646 1783 662 1769 L 702 1733 C 728 1707 751 1694 772 1694 C 784 1694 796 1697 808 1703 C 820 1709 835 1721 854 1739 L 907 1792 L 979 1743 L 907 1671 C 891 1655 876 1641 862 1631 C 848 1621 835 1613 823 1607 C 811 1601 799 1596 788 1594 C 777 1592 766 1591 756 1591 C 744 1591 732 1592 721 1594 C 710 1596 699 1601 688 1607 C 676 1613 664 1620 652 1630 C 640 1640 626 1652 612 1667 L 571 1706 C 559 1717 547 1726 536 1734 C 524 1741 513 1745 502 1745 C 489 1745 477 1741 465 1734 C 453 1727 438 1715 420 1698 L 367 1645 L 295 1696 L 367 1765 Z" unicode="Ã" />
<glyph horiz-adv-x="1270" d="M 934 356 L 322 356 L 205 0 L 74 0 L 559 1446 L 715 1446 L 1192 0 L 1049 0 L 934 356 Z M 664 1196 L 639 1300 L 623 1300 L 596 1196 L 358 471 L 901 471 L 664 1196 Z M 489 1819 L 489 1645 L 352 1645 L 352 1819 L 489 1819 Z M 920 1819 L 920 1645 L 780 1645 L 780 1819 L 920 1819 Z" unicode="Ä" />
<glyph horiz-adv-x="1270" d="M 934 356 L 322 356 L 205 0 L 74 0 L 559 1446 L 715 1446 L 1192 0 L 1049 0 L 934 356 Z M 664 1196 L 639 1300 L 623 1300 L 596 1196 L 358 471 L 901 471 L 664 1196 Z M 410 1743 C 410 1773 415 1801 427 1827 C 439 1853 455 1876 475 1896 C 495 1916 519 1931 547 1943 C 574 1954 603 1960 635 1960 C 667 1960 696 1954 724 1943 C 751 1931 775 1916 795 1896 C 815 1876 830 1853 842 1827 C 854 1801 860 1773 860 1743 C 860 1713 854 1684 842 1658 C 830 1631 815 1608 795 1589 C 775 1569 751 1554 724 1543 C 696 1531 667 1526 635 1526 C 603 1526 574 1531 547 1543 C 519 1554 495 1569 475 1589 C 455 1608 439 1631 427 1658 C 415 1684 410 1713 410 1743 Z M 485 1743 C 485 1722 489 1703 497 1685 C 505 1667 515 1651 529 1638 C 543 1624 559 1614 577 1606 C 595 1598 614 1595 635 1595 C 655 1595 675 1598 693 1606 C 711 1614 726 1624 740 1638 C 753 1651 764 1667 772 1685 C 780 1703 784 1722 784 1743 C 784 1763 780 1782 772 1800 C 764 1818 753 1833 740 1847 C 726 1861 711 1872 693 1880 C 675 1888 655 1892 635 1892 C 614 1892 595 1888 577 1880 C 559 1872 543 1861 529 1847 C 515 1833 505 1818 497 1800 C 489 1782 485 1763 485 1743 Z" unicode="Å" />
<glyph horiz-adv-x="1995" d="M 893 0 L 893 354 L 313 354 L 109 0 L -37 0 L 827 1446 L 1835 1446 L 1835 1331 L 1028 1331 L 1028 811 L 1743 811 L 1743 696 L 1028 696 L 1028 115 L 1855 115 L 1855 0 L 893 0 Z M 893 1339 L 874 1339 L 811 1198 L 385 469 L 893 469 L 893 1339 Z" unicode="Æ" />
<glyph horiz-adv-x="1343" d="M 1217 86 C 1168 55 1107 30 1033 10 C 959 -10 873 -20 774 -20 C 768 -20 763 -19 759 -19 C 754 -18 749 -18 745 -18 L 745 -29 C 745 -34 746 -39 749 -45 C 752 -50 756 -55 762 -59 L 823 -123 C 830 -130 837 -138 845 -148 C 853 -158 860 -169 867 -181 C 873 -193 879 -206 883 -221 C 887 -235 889 -252 889 -270 C 889 -326 869 -371 829 -403 C 789 -435 734 -451 666 -451 C 634 -451 605 -447 578 -441 C 551 -434 528 -423 510 -408 L 530 -317 C 536 -322 545 -327 556 -331 C 567 -335 579 -338 592 -341 C 604 -344 617 -346 630 -348 C 643 -349 655 -350 666 -350 C 680 -350 693 -348 706 -346 C 719 -343 731 -338 741 -332 C 751 -325 760 -316 766 -305 C 772 -294 776 -280 776 -264 C 776 -243 770 -227 760 -215 C 750 -203 738 -190 725 -178 L 668 -123 C 661 -117 655 -110 651 -102 C 647 -94 645 -85 645 -76 L 645 -10 C 559 4 484 31 418 73 C 352 114 297 166 253 230 C 208 293 174 366 151 449 C 128 531 117 621 117 717 C 117 785 123 850 136 914 C 149 978 168 1037 194 1093 C 220 1149 251 1200 289 1246 C 327 1292 370 1331 420 1364 C 470 1397 525 1423 586 1441 C 647 1459 714 1468 786 1468 C 882 1468 965 1458 1037 1438 C 1108 1418 1168 1392 1217 1362 L 1184 1237 C 1158 1253 1132 1268 1104 1282 C 1076 1296 1045 1308 1013 1319 C 981 1329 946 1338 908 1344 C 870 1350 828 1354 782 1354 C 692 1354 614 1337 548 1303 C 482 1269 427 1224 384 1166 C 341 1108 309 1041 289 965 C 268 889 258 808 258 723 C 258 670 262 618 270 566 C 278 514 292 465 310 419 C 328 372 350 329 378 289 C 406 249 439 215 478 186 C 516 157 560 134 610 118 C 660 102 716 94 778 94 C 824 94 866 96 905 102 C 944 108 980 116 1013 126 C 1046 136 1077 148 1105 162 C 1133 176 1160 191 1186 207 L 1217 86 Z" unicode="Ç" />
<glyph horiz-adv-x="1307" d="M 1147 1446 L 1147 1331 L 342 1331 L 342 811 L 1055 811 L 1055 696 L 342 696 L 342 115 L 1167 115 L 1167 0 L 205 0 L 205 1446 L 1147 1446 Z M 522 1903 L 764 1647 L 764 1604 L 700 1604 L 387 1853 L 387 1903 L 522 1903 Z" unicode="È" />
<glyph horiz-adv-x="1307" d="M 1147 1446 L 1147 1331 L 342 1331 L 342 811 L 1055 811 L 1055 696 L 342 696 L 342 115 L 1167 115 L 1167 0 L 205 0 L 205 1446 L 1147 1446 Z M 981 1903 L 981 1853 L 668 1604 L 604 1604 L 604 1647 L 846 1903 L 981 1903 Z" unicode="É" />
<glyph horiz-adv-x="1307" d="M 1147 1446 L 1147 1331 L 342 1331 L 342 811 L 1055 811 L 1055 696 L 342 696 L 342 115 L 1167 115 L 1167 0 L 205 0 L 205 1446 L 1147 1446 Z M 739 1903 L 944 1640 L 944 1604 L 885 1604 L 690 1800 L 680 1800 L 485 1604 L 426 1604 L 426 1640 L 633 1903 L 739 1903 Z" unicode="Ê" />
<glyph horiz-adv-x="1307" d="M 1147 1446 L 1147 1331 L 342 1331 L 342 811 L 1055 811 L 1055 696 L 342 696 L 342 115 L 1167 115 L 1167 0 L 205 0 L 205 1446 L 1147 1446 Z M 541 1819 L 541 1645 L 403 1645 L 403 1819 L 541 1819 Z M 971 1819 L 971 1645 L 831 1645 L 831 1819 L 971 1819 Z" unicode="Ë" />
<glyph horiz-adv-x="547" d="M 342 1446 L 342 0 L 205 0 L 205 1446 L 342 1446 Z M 117 1903 L 358 1647 L 358 1604 L 295 1604 L -18 1853 L -18 1903 L 117 1903 Z" unicode="Ì" />
<glyph horiz-adv-x="547" d="M 342 1446 L 342 0 L 205 0 L 205 1446 L 342 1446 Z M 565 1903 L 565 1853 L 250 1604 L 188 1604 L 188 1647 L 430 1903 L 565 1903 Z" unicode="Í" />
<glyph horiz-adv-x="547" d="M 342 1446 L 342 0 L 205 0 L 205 1446 L 342 1446 Z M 326 1903 L 530 1640 L 530 1604 L 471 1604 L 276 1800 L 266 1800 L 72 1604 L 12 1604 L 12 1640 L 219 1903 L 326 1903 Z" unicode="Î" />
<glyph horiz-adv-x="547" d="M 342 1446 L 342 0 L 205 0 L 205 1446 L 342 1446 Z M 127 1819 L 127 1645 L -10 1645 L -10 1819 L 127 1819 Z M 557 1819 L 557 1645 L 418 1645 L 418 1819 L 557 1819 Z" unicode="Ï" />
<glyph horiz-adv-x="1530" d="M 59 811 L 246 811 L 246 1446 L 688 1446 C 788 1446 881 1432 968 1406 C 1054 1380 1130 1338 1194 1281 C 1258 1223 1308 1149 1345 1059 C 1382 969 1401 860 1401 733 C 1401 598 1382 484 1345 391 C 1308 298 1257 223 1193 165 C 1129 107 1053 65 967 39 C 880 13 787 0 688 0 L 246 0 L 246 707 L 59 707 L 59 811 Z M 383 1331 L 383 811 L 768 811 L 768 707 L 383 707 L 383 115 L 702 115 C 795 115 876 130 946 160 C 1015 190 1073 232 1119 286 C 1165 340 1199 406 1222 482 C 1245 558 1257 641 1257 733 C 1257 815 1245 893 1223 966 C 1201 1038 1167 1102 1121 1156 C 1075 1210 1018 1252 948 1284 C 878 1315 796 1331 702 1331 L 383 1331 Z" unicode="Ð" />
<glyph horiz-adv-x="1470" d="M 205 1446 L 395 1446 L 1034 352 L 1137 125 L 1151 125 L 1135 379 L 1135 1446 L 1266 1446 L 1266 0 L 1081 0 L 436 1094 L 334 1319 L 317 1319 L 336 1065 L 336 0 L 205 0 L 205 1446 Z M 465 1765 C 497 1797 525 1819 549 1829 C 572 1839 594 1845 616 1845 C 628 1845 640 1843 651 1841 C 662 1839 673 1835 684 1829 C 695 1823 707 1816 719 1806 C 731 1796 744 1783 760 1769 L 801 1733 C 825 1707 848 1694 870 1694 C 882 1694 894 1697 906 1703 C 918 1709 933 1721 952 1739 L 1006 1792 L 1077 1743 L 1006 1671 C 989 1655 974 1641 960 1631 C 946 1621 933 1613 921 1607 C 909 1601 897 1596 886 1594 C 875 1592 864 1591 854 1591 C 842 1591 830 1592 819 1594 C 808 1596 797 1601 786 1607 C 775 1613 763 1620 751 1630 C 739 1640 725 1652 711 1667 L 670 1706 C 657 1717 645 1726 634 1734 C 622 1741 611 1745 600 1745 C 587 1745 575 1741 563 1734 C 551 1727 536 1715 518 1698 L 465 1645 L 393 1696 L 465 1765 Z" unicode="Ñ" />
<glyph horiz-adv-x="1542" d="M 770 1468 C 862 1468 948 1452 1028 1422 C 1108 1391 1177 1345 1236 1283 C 1294 1221 1340 1144 1374 1051 C 1408 958 1425 849 1425 725 C 1425 603 1408 495 1374 402 C 1340 309 1293 231 1234 169 C 1175 106 1106 59 1026 27 C 946 -4 861 -20 770 -20 C 676 -20 589 -4 509 27 C 429 58 360 105 302 167 C 244 229 198 307 166 400 C 133 493 117 601 117 725 C 117 849 133 957 167 1050 C 201 1143 247 1220 306 1282 C 364 1344 433 1390 513 1421 C 592 1452 678 1468 770 1468 Z M 770 1354 C 686 1354 613 1339 549 1309 C 485 1279 432 1237 389 1182 C 346 1127 313 1061 291 984 C 269 906 258 820 258 725 C 258 635 269 551 291 474 C 313 397 345 330 388 274 C 431 218 485 174 549 142 C 613 110 686 94 770 94 C 854 94 929 108 993 138 C 1057 167 1110 209 1153 264 C 1196 318 1229 385 1251 463 C 1273 541 1284 628 1284 725 C 1284 815 1273 899 1251 976 C 1229 1052 1196 1119 1153 1175 C 1110 1231 1057 1274 993 1306 C 929 1338 854 1354 770 1354 Z M 604 1903 L 846 1647 L 846 1604 L 782 1604 L 469 1853 L 469 1903 L 604 1903 Z" unicode="Ò" />
<glyph horiz-adv-x="1542" d="M 770 1468 C 862 1468 948 1452 1028 1422 C 1108 1391 1177 1345 1236 1283 C 1294 1221 1340 1144 1374 1051 C 1408 958 1425 849 1425 725 C 1425 603 1408 495 1374 402 C 1340 309 1293 231 1234 169 C 1175 106 1106 59 1026 27 C 946 -4 861 -20 770 -20 C 676 -20 589 -4 509 27 C 429 58 360 105 302 167 C 244 229 198 307 166 400 C 133 493 117 601 117 725 C 117 849 133 957 167 1050 C 201 1143 247 1220 306 1282 C 364 1344 433 1390 513 1421 C 592 1452 678 1468 770 1468 Z M 770 1354 C 686 1354 613 1339 549 1309 C 485 1279 432 1237 389 1182 C 346 1127 313 1061 291 984 C 269 906 258 820 258 725 C 258 635 269 551 291 474 C 313 397 345 330 388 274 C 431 218 485 174 549 142 C 613 110 686 94 770 94 C 854 94 929 108 993 138 C 1057 167 1110 209 1153 264 C 1196 318 1229 385 1251 463 C 1273 541 1284 628 1284 725 C 1284 815 1273 899 1251 976 C 1229 1052 1196 1119 1153 1175 C 1110 1231 1057 1274 993 1306 C 929 1338 854 1354 770 1354 Z M 1063 1903 L 1063 1853 L 750 1604 L 686 1604 L 686 1647 L 928 1903 L 1063 1903 Z" unicode="Ó" />
<glyph horiz-adv-x="1542" d="M 770 1468 C 862 1468 948 1452 1028 1422 C 1108 1391 1177 1345 1236 1283 C 1294 1221 1340 1144 1374 1051 C 1408 958 1425 849 1425 725 C 1425 603 1408 495 1374 402 C 1340 309 1293 231 1234 169 C 1175 106 1106 59 1026 27 C 946 -4 861 -20 770 -20 C 676 -20 589 -4 509 27 C 429 58 360 105 302 167 C 244 229 198 307 166 400 C 133 493 117 601 117 725 C 117 849 133 957 167 1050 C 201 1143 247 1220 306 1282 C 364 1344 433 1390 513 1421 C 592 1452 678 1468 770 1468 Z M 770 1354 C 686 1354 613 1339 549 1309 C 485 1279 432 1237 389 1182 C 346 1127 313 1061 291 984 C 269 906 258 820 258 725 C 258 635 269 551 291 474 C 313 397 345 330 388 274 C 431 218 485 174 549 142 C 613 110 686 94 770 94 C 854 94 929 108 993 138 C 1057 167 1110 209 1153 264 C 1196 318 1229 385 1251 463 C 1273 541 1284 628 1284 725 C 1284 815 1273 899 1251 976 C 1229 1052 1196 1119 1153 1175 C 1110 1231 1057 1274 993 1306 C 929 1338 854 1354 770 1354 Z M 821 1903 L 1026 1640 L 1026 1604 L 967 1604 L 772 1800 L 762 1800 L 567 1604 L 508 1604 L 508 1640 L 715 1903 L 821 1903 Z" unicode="Ô" />
<glyph horiz-adv-x="1542" d="M 770 1468 C 862 1468 948 1452 1028 1422 C 1108 1391 1177 1345 1236 1283 C 1294 1221 1340 1144 1374 1051 C 1408 958 1425 849 1425 725 C 1425 603 1408 495 1374 402 C 1340 309 1293 231 1234 169 C 1175 106 1106 59 1026 27 C 946 -4 861 -20 770 -20 C 676 -20 589 -4 509 27 C 429 58 360 105 302 167 C 244 229 198 307 166 400 C 133 493 117 601 117 725 C 117 849 133 957 167 1050 C 201 1143 247 1220 306 1282 C 364 1344 433 1390 513 1421 C 592 1452 678 1468 770 1468 Z M 770 1354 C 686 1354 613 1339 549 1309 C 485 1279 432 1237 389 1182 C 346 1127 313 1061 291 984 C 269 906 258 820 258 725 C 258 635 269 551 291 474 C 313 397 345 330 388 274 C 431 218 485 174 549 142 C 613 110 686 94 770 94 C 854 94 929 108 993 138 C 1057 167 1110 209 1153 264 C 1196 318 1229 385 1251 463 C 1273 541 1284 628 1284 725 C 1284 815 1273 899 1251 976 C 1229 1052 1196 1119 1153 1175 C 1110 1231 1057 1274 993 1306 C 929 1338 854 1354 770 1354 Z M 500 1765 C 532 1797 560 1819 584 1829 C 607 1839 629 1845 651 1845 C 663 1845 674 1843 685 1841 C 696 1839 707 1835 719 1829 C 730 1823 742 1816 754 1806 C 766 1796 779 1783 795 1769 L 836 1733 C 860 1707 883 1694 905 1694 C 917 1694 929 1697 941 1703 C 953 1709 968 1721 987 1739 L 1040 1792 L 1112 1743 L 1040 1671 C 1024 1655 1009 1641 995 1631 C 981 1621 968 1613 956 1607 C 944 1601 932 1596 921 1594 C 910 1592 899 1591 889 1591 C 877 1591 865 1592 854 1594 C 843 1596 832 1601 821 1607 C 809 1613 797 1620 785 1630 C 773 1640 759 1652 745 1667 L 705 1706 C 692 1717 680 1726 669 1734 C 657 1741 646 1745 635 1745 C 622 1745 610 1741 598 1734 C 586 1727 571 1715 553 1698 L 500 1645 L 428 1696 L 500 1765 Z" unicode="Õ" />
<glyph horiz-adv-x="1542" d="M 770 1468 C 862 1468 948 1452 1028 1422 C 1108 1391 1177 1345 1236 1283 C 1294 1221 1340 1144 1374 1051 C 1408 958 1425 849 1425 725 C 1425 603 1408 495 1374 402 C 1340 309 1293 231 1234 169 C 1175 106 1106 59 1026 27 C 946 -4 861 -20 770 -20 C 676 -20 589 -4 509 27 C 429 58 360 105 302 167 C 244 229 198 307 166 400 C 133 493 117 601 117 725 C 117 849 133 957 167 1050 C 201 1143 247 1220 306 1282 C 364 1344 433 1390 513 1421 C 592 1452 678 1468 770 1468 Z M 770 1354 C 686 1354 613 1339 549 1309 C 485 1279 432 1237 389 1182 C 346 1127 313 1061 291 984 C 269 906 258 820 258 725 C 258 635 269 551 291 474 C 313 397 345 330 388 274 C 431 218 485 174 549 142 C 613 110 686 94 770 94 C 854 94 929 108 993 138 C 1057 167 1110 209 1153 264 C 1196 318 1229 385 1251 463 C 1273 541 1284 628 1284 725 C 1284 815 1273 899 1251 976 C 1229 1052 1196 1119 1153 1175 C 1110 1231 1057 1274 993 1306 C 929 1338 854 1354 770 1354 Z M 623 1819 L 623 1645 L 485 1645 L 485 1819 L 623 1819 Z M 1053 1819 L 1053 1645 L 913 1645 L 913 1819 L 1053 1819 Z" unicode="Ö" />
<glyph horiz-adv-x="1167" d="M 586 659 L 1020 1096 L 1108 1010 L 672 573 L 1112 135 L 1020 43 L 580 483 L 145 45 L 57 133 L 494 567 L 57 1008 L 147 1098 L 586 659 Z" unicode="×" />
<glyph horiz-adv-x="1542" d="M 1266 1581 L 1153 1354 C 1194 1324 1231 1289 1265 1249 C 1299 1208 1327 1161 1351 1109 C 1375 1057 1393 999 1406 935 C 1418 871 1425 801 1425 725 C 1425 603 1408 495 1374 402 C 1340 309 1293 231 1234 169 C 1175 106 1106 59 1026 27 C 946 -4 861 -20 770 -20 C 720 -20 673 -15 628 -7 C 582 1 539 14 498 31 L 414 -137 L 315 -137 L 418 72 C 372 100 330 134 293 176 C 255 217 224 265 198 319 C 172 373 152 434 138 502 C 124 570 117 644 117 725 C 117 849 133 957 167 1050 C 201 1143 247 1220 306 1282 C 364 1344 433 1390 513 1421 C 592 1452 678 1468 770 1468 C 826 1468 879 1462 931 1451 C 982 1440 1031 1423 1077 1401 L 1167 1581 L 1266 1581 Z M 770 1354 C 686 1354 613 1339 549 1309 C 485 1279 432 1237 389 1182 C 346 1127 313 1061 291 984 C 269 906 258 820 258 725 C 258 665 262 609 272 556 C 281 502 295 453 314 407 C 332 361 355 319 383 281 C 411 243 443 211 479 184 L 1022 1290 C 986 1310 947 1326 905 1337 C 863 1348 818 1354 770 1354 Z M 1284 725 C 1284 835 1268 934 1236 1022 C 1204 1110 1156 1182 1094 1239 L 555 139 C 585 125 618 114 654 106 C 690 98 728 94 770 94 C 854 94 929 108 993 138 C 1057 167 1110 209 1153 264 C 1196 318 1229 385 1251 463 C 1273 541 1284 628 1284 725 Z" unicode="Ø" />
<glyph horiz-adv-x="1401" d="M 319 1446 L 319 492 C 319 458 320 424 322 391 C 324 358 329 327 337 297 C 345 267 358 240 374 216 C 390 191 413 169 441 151 C 469 133 505 119 547 109 C 589 99 640 94 700 94 C 760 94 811 99 853 109 C 895 119 930 133 958 151 C 986 169 1009 191 1025 216 C 1041 240 1054 267 1062 297 C 1070 327 1075 358 1077 391 C 1079 424 1081 458 1081 492 L 1081 1446 L 1219 1446 L 1219 477 C 1219 437 1216 398 1212 358 C 1208 318 1199 279 1187 243 C 1174 206 1156 172 1133 140 C 1109 108 1078 80 1040 56 C 1002 32 955 14 900 0 C 844 -13 778 -20 702 -20 C 625 -20 559 -13 504 0 C 448 14 401 32 363 56 C 324 80 293 108 269 140 C 245 172 227 206 214 243 C 201 279 192 318 188 358 C 184 398 182 437 182 477 L 182 1446 L 319 1446 Z M 530 1903 L 772 1647 L 772 1604 L 709 1604 L 395 1853 L 395 1903 L 530 1903 Z" unicode="Ù" />
<glyph horiz-adv-x="1401" d="M 319 1446 L 319 492 C 319 458 320 424 322 391 C 324 358 329 327 337 297 C 345 267 358 240 374 216 C 390 191 413 169 441 151 C 469 133 505 119 547 109 C 589 99 640 94 700 94 C 760 94 811 99 853 109 C 895 119 930 133 958 151 C 986 169 1009 191 1025 216 C 1041 240 1054 267 1062 297 C 1070 327 1075 358 1077 391 C 1079 424 1081 458 1081 492 L 1081 1446 L 1219 1446 L 1219 477 C 1219 437 1216 398 1212 358 C 1208 318 1199 279 1187 243 C 1174 206 1156 172 1133 140 C 1109 108 1078 80 1040 56 C 1002 32 955 14 900 0 C 844 -13 778 -20 702 -20 C 625 -20 559 -13 504 0 C 448 14 401 32 363 56 C 324 80 293 108 269 140 C 245 172 227 206 214 243 C 201 279 192 318 188 358 C 184 398 182 437 182 477 L 182 1446 L 319 1446 Z M 989 1903 L 989 1853 L 676 1604 L 612 1604 L 612 1647 L 854 1903 L 989 1903 Z" unicode="Ú" />
<glyph horiz-adv-x="1401" d="M 319 1446 L 319 492 C 319 458 320 424 322 391 C 324 358 329 327 337 297 C 345 267 358 240 374 216 C 390 191 413 169 441 151 C 469 133 505 119 547 109 C 589 99 640 94 700 94 C 760 94 811 99 853 109 C 895 119 930 133 958 151 C 986 169 1009 191 1025 216 C 1041 240 1054 267 1062 297 C 1070 327 1075 358 1077 391 C 1079 424 1081 458 1081 492 L 1081 1446 L 1219 1446 L 1219 477 C 1219 437 1216 398 1212 358 C 1208 318 1199 279 1187 243 C 1174 206 1156 172 1133 140 C 1109 108 1078 80 1040 56 C 1002 32 955 14 900 0 C 844 -13 778 -20 702 -20 C 625 -20 559 -13 504 0 C 448 14 401 32 363 56 C 324 80 293 108 269 140 C 245 172 227 206 214 243 C 201 279 192 318 188 358 C 184 398 182 437 182 477 L 182 1446 L 319 1446 Z M 748 1903 L 952 1640 L 952 1604 L 893 1604 L 698 1800 L 688 1800 L 494 1604 L 434 1604 L 434 1640 L 641 1903 L 748 1903 Z" unicode="Û" />
<glyph horiz-adv-x="1401" d="M 319 1446 L 319 492 C 319 458 320 424 322 391 C 324 358 329 327 337 297 C 345 267 358 240 374 216 C 390 191 413 169 441 151 C 469 133 505 119 547 109 C 589 99 640 94 700 94 C 760 94 811 99 853 109 C 895 119 930 133 958 151 C 986 169 1009 191 1025 216 C 1041 240 1054 267 1062 297 C 1070 327 1075 358 1077 391 C 1079 424 1081 458 1081 492 L 1081 1446 L 1219 1446 L 1219 477 C 1219 437 1216 398 1212 358 C 1208 318 1199 279 1187 243 C 1174 206 1156 172 1133 140 C 1109 108 1078 80 1040 56 C 1002 32 955 14 900 0 C 844 -13 778 -20 702 -20 C 625 -20 559 -13 504 0 C 448 14 401 32 363 56 C 324 80 293 108 269 140 C 245 172 227 206 214 243 C 201 279 192 318 188 358 C 184 398 182 437 182 477 L 182 1446 L 319 1446 Z M 549 1819 L 549 1645 L 412 1645 L 412 1819 L 549 1819 Z M 979 1819 L 979 1645 L 840 1645 L 840 1819 L 979 1819 Z" unicode="Ü" />
<glyph horiz-adv-x="1219" d="M 190 1446 L 616 651 L 1044 1446 L 1196 1446 L 676 526 L 676 0 L 541 0 L 541 526 L 25 1446 L 190 1446 Z M 905 1903 L 905 1853 L 592 1604 L 528 1604 L 528 1647 L 770 1903 L 905 1903 Z" unicode="Ý" />
<glyph horiz-adv-x="1319" d="M 342 418 L 768 418 C 828 418 877 424 917 437 C 956 449 988 468 1014 492 C 1042 520 1064 554 1078 594 C 1092 634 1100 679 1100 731 C 1100 775 1093 815 1081 853 C 1068 891 1048 923 1022 950 C 996 977 963 998 921 1013 C 879 1028 828 1036 768 1036 L 342 1036 L 342 418 Z M 342 1446 L 342 1151 L 752 1151 C 848 1151 926 1139 988 1117 C 1050 1095 1099 1064 1137 1024 C 1171 986 1197 943 1214 893 C 1230 843 1239 789 1239 731 C 1239 666 1229 607 1210 553 C 1190 499 1161 454 1122 416 C 1104 398 1083 382 1061 368 C 1038 354 1012 342 982 332 C 952 322 919 315 881 310 C 843 305 800 303 752 303 L 342 303 L 342 0 L 205 0 L 205 1446 L 342 1446 Z" unicode="Þ" />
<glyph horiz-adv-x="1118" d="M 170 1108 C 170 1180 179 1242 197 1294 C 215 1346 240 1390 272 1424 C 304 1458 344 1483 390 1499 C 436 1515 487 1524 543 1524 C 605 1524 660 1514 708 1496 C 756 1478 796 1453 829 1421 C 862 1389 887 1351 904 1309 C 921 1267 930 1222 930 1174 C 930 1138 925 1105 917 1075 C 909 1045 898 1017 885 992 C 871 967 857 945 841 925 C 825 905 809 887 793 872 C 775 856 763 843 755 833 C 747 823 743 816 743 811 C 743 801 752 786 772 766 C 791 746 820 717 858 680 C 882 656 907 632 931 608 C 955 584 977 557 996 529 C 1014 501 1029 469 1041 433 C 1053 397 1059 356 1059 309 C 1059 253 1050 204 1032 163 C 1014 122 989 88 958 61 C 927 34 891 14 851 1 C 810 -11 767 -18 723 -18 C 687 -18 653 -15 622 -11 C 591 -7 568 -3 553 0 L 553 104 C 575 100 601 96 629 92 C 657 88 687 86 721 86 C 749 86 775 89 801 97 C 827 104 849 116 869 132 C 888 148 903 170 915 196 C 926 222 932 255 932 293 C 932 333 926 369 916 399 C 905 429 891 456 875 480 C 859 503 841 524 821 543 C 801 562 783 580 766 598 C 740 622 719 644 701 662 C 683 680 668 697 657 713 C 645 728 637 743 631 757 C 625 771 623 785 623 801 C 623 825 629 847 642 866 C 655 884 675 907 702 934 C 715 948 728 962 740 976 C 752 990 762 1006 771 1023 C 780 1040 787 1059 793 1081 C 798 1102 801 1127 801 1155 C 801 1188 796 1220 787 1251 C 778 1282 763 1310 743 1334 C 723 1358 696 1377 664 1391 C 631 1405 591 1413 545 1413 C 497 1413 457 1405 425 1389 C 393 1373 368 1351 350 1322 C 331 1293 318 1258 310 1217 C 302 1175 299 1129 299 1079 L 299 0 L 170 0 L 170 1108 Z" unicode="ß" />
<glyph horiz-adv-x="1081" d="M 844 0 C 835 14 825 37 815 68 C 805 98 799 136 797 180 C 755 114 701 65 637 33 C 572 0 502 -16 426 -16 C 376 -16 330 -9 290 4 C 250 17 215 36 186 62 C 157 87 135 118 119 155 C 103 191 96 233 96 281 C 96 331 107 378 129 420 C 151 462 188 498 241 528 C 294 558 365 581 453 598 C 541 614 652 623 786 625 L 786 709 C 786 795 766 858 728 898 C 690 938 627 958 541 958 C 477 958 416 949 358 932 C 300 915 250 896 207 874 L 158 973 C 173 983 193 993 219 1005 C 244 1016 273 1026 307 1036 C 341 1046 378 1054 418 1060 C 458 1066 500 1069 545 1069 C 604 1069 657 1062 703 1049 C 749 1036 787 1015 819 985 C 850 955 874 917 890 869 C 906 821 915 763 915 694 L 915 264 C 915 230 916 199 920 171 C 924 143 928 118 934 96 C 940 74 946 56 953 40 C 960 24 967 10 973 0 L 844 0 Z M 451 88 C 502 88 548 96 590 112 C 631 128 666 149 695 175 C 724 201 746 231 762 265 C 778 298 786 332 786 367 L 786 543 C 705 539 635 533 576 525 C 517 517 467 507 425 495 C 383 483 350 470 324 455 C 298 440 278 424 264 406 C 249 388 239 370 234 351 C 229 331 227 311 227 291 C 227 227 245 177 282 141 C 319 105 375 88 451 88 Z M 375 1530 L 616 1274 L 616 1231 L 553 1231 L 240 1481 L 240 1530 L 375 1530 Z" unicode="à" />
<glyph horiz-adv-x="1081" d="M 844 0 C 835 14 825 37 815 68 C 805 98 799 136 797 180 C 755 114 701 65 637 33 C 572 0 502 -16 426 -16 C 376 -16 330 -9 290 4 C 250 17 215 36 186 62 C 157 87 135 118 119 155 C 103 191 96 233 96 281 C 96 331 107 378 129 420 C 151 462 188 498 241 528 C 294 558 365 581 453 598 C 541 614 652 623 786 625 L 786 709 C 786 795 766 858 728 898 C 690 938 627 958 541 958 C 477 958 416 949 358 932 C 300 915 250 896 207 874 L 158 973 C 173 983 193 993 219 1005 C 244 1016 273 1026 307 1036 C 341 1046 378 1054 418 1060 C 458 1066 500 1069 545 1069 C 604 1069 657 1062 703 1049 C 749 1036 787 1015 819 985 C 850 955 874 917 890 869 C 906 821 915 763 915 694 L 915 264 C 915 230 916 199 920 171 C 924 143 928 118 934 96 C 940 74 946 56 953 40 C 960 24 967 10 973 0 L 844 0 Z M 451 88 C 502 88 548 96 590 112 C 631 128 666 149 695 175 C 724 201 746 231 762 265 C 778 298 786 332 786 367 L 786 543 C 705 539 635 533 576 525 C 517 517 467 507 425 495 C 383 483 350 470 324 455 C 298 440 278 424 264 406 C 249 388 239 370 234 351 C 229 331 227 311 227 291 C 227 227 245 177 282 141 C 319 105 375 88 451 88 Z M 834 1530 L 834 1481 L 520 1231 L 457 1231 L 457 1274 L 698 1530 L 834 1530 Z" unicode="á" />
<glyph horiz-adv-x="1081" d="M 844 0 C 835 14 825 37 815 68 C 805 98 799 136 797 180 C 755 114 701 65 637 33 C 572 0 502 -16 426 -16 C 376 -16 330 -9 290 4 C 250 17 215 36 186 62 C 157 87 135 118 119 155 C 103 191 96 233 96 281 C 96 331 107 378 129 420 C 151 462 188 498 241 528 C 294 558 365 581 453 598 C 541 614 652 623 786 625 L 786 709 C 786 795 766 858 728 898 C 690 938 627 958 541 958 C 477 958 416 949 358 932 C 300 915 250 896 207 874 L 158 973 C 173 983 193 993 219 1005 C 244 1016 273 1026 307 1036 C 341 1046 378 1054 418 1060 C 458 1066 500 1069 545 1069 C 604 1069 657 1062 703 1049 C 749 1036 787 1015 819 985 C 850 955 874 917 890 869 C 906 821 915 763 915 694 L 915 264 C 915 230 916 199 920 171 C 924 143 928 118 934 96 C 940 74 946 56 953 40 C 960 24 967 10 973 0 L 844 0 Z M 451 88 C 502 88 548 96 590 112 C 631 128 666 149 695 175 C 724 201 746 231 762 265 C 778 298 786 332 786 367 L 786 543 C 705 539 635 533 576 525 C 517 517 467 507 425 495 C 383 483 350 470 324 455 C 298 440 278 424 264 406 C 249 388 239 370 234 351 C 229 331 227 311 227 291 C 227 227 245 177 282 141 C 319 105 375 88 451 88 Z M 592 1530 L 797 1268 L 797 1231 L 737 1231 L 543 1427 L 532 1427 L 338 1231 L 279 1231 L 279 1268 L 485 1530 L 592 1530 Z" unicode="â" />
<glyph horiz-adv-x="1081" d="M 844 0 C 835 14 825 37 815 68 C 805 98 799 136 797 180 C 755 114 701 65 637 33 C 572 0 502 -16 426 -16 C 376 -16 330 -9 290 4 C 250 17 215 36 186 62 C 157 87 135 118 119 155 C 103 191 96 233 96 281 C 96 331 107 378 129 420 C 151 462 188 498 241 528 C 294 558 365 581 453 598 C 541 614 652 623 786 625 L 786 709 C 786 795 766 858 728 898 C 690 938 627 958 541 958 C 477 958 416 949 358 932 C 300 915 250 896 207 874 L 158 973 C 173 983 193 993 219 1005 C 244 1016 273 1026 307 1036 C 341 1046 378 1054 418 1060 C 458 1066 500 1069 545 1069 C 604 1069 657 1062 703 1049 C 749 1036 787 1015 819 985 C 850 955 874 917 890 869 C 906 821 915 763 915 694 L 915 264 C 915 230 916 199 920 171 C 924 143 928 118 934 96 C 940 74 946 56 953 40 C 960 24 967 10 973 0 L 844 0 Z M 451 88 C 502 88 548 96 590 112 C 631 128 666 149 695 175 C 724 201 746 231 762 265 C 778 298 786 332 786 367 L 786 543 C 705 539 635 533 576 525 C 517 517 467 507 425 495 C 383 483 350 470 324 455 C 298 440 278 424 264 406 C 249 388 239 370 234 351 C 229 331 227 311 227 291 C 227 227 245 177 282 141 C 319 105 375 88 451 88 Z M 270 1393 C 302 1425 330 1447 354 1457 C 378 1467 400 1473 422 1473 C 434 1473 445 1471 456 1469 C 467 1467 478 1463 489 1457 C 500 1451 512 1443 524 1433 C 536 1423 550 1411 565 1397 L 606 1360 C 618 1347 630 1337 642 1331 C 653 1324 664 1321 676 1321 C 688 1321 700 1324 712 1330 C 724 1336 739 1348 758 1366 L 811 1419 L 883 1370 L 811 1298 C 794 1282 779 1268 765 1258 C 751 1248 738 1240 726 1234 C 714 1228 702 1224 691 1222 C 680 1220 669 1219 659 1219 C 647 1219 635 1220 624 1222 C 613 1224 602 1228 591 1234 C 580 1240 568 1247 556 1257 C 544 1267 530 1279 516 1294 L 475 1333 C 463 1344 451 1353 440 1361 C 428 1368 417 1372 406 1372 C 393 1372 381 1368 369 1361 C 357 1354 342 1342 324 1325 L 270 1272 L 199 1323 L 270 1393 Z" unicode="ã" />
<glyph horiz-adv-x="1081" d="M 844 0 C 835 14 825 37 815 68 C 805 98 799 136 797 180 C 755 114 701 65 637 33 C 572 0 502 -16 426 -16 C 376 -16 330 -9 290 4 C 250 17 215 36 186 62 C 157 87 135 118 119 155 C 103 191 96 233 96 281 C 96 331 107 378 129 420 C 151 462 188 498 241 528 C 294 558 365 581 453 598 C 541 614 652 623 786 625 L 786 709 C 786 795 766 858 728 898 C 690 938 627 958 541 958 C 477 958 416 949 358 932 C 300 915 250 896 207 874 L 158 973 C 173 983 193 993 219 1005 C 244 1016 273 1026 307 1036 C 341 1046 378 1054 418 1060 C 458 1066 500 1069 545 1069 C 604 1069 657 1062 703 1049 C 749 1036 787 1015 819 985 C 850 955 874 917 890 869 C 906 821 915 763 915 694 L 915 264 C 915 230 916 199 920 171 C 924 143 928 118 934 96 C 940 74 946 56 953 40 C 960 24 967 10 973 0 L 844 0 Z M 451 88 C 502 88 548 96 590 112 C 631 128 666 149 695 175 C 724 201 746 231 762 265 C 778 298 786 332 786 367 L 786 543 C 705 539 635 533 576 525 C 517 517 467 507 425 495 C 383 483 350 470 324 455 C 298 440 278 424 264 406 C 249 388 239 370 234 351 C 229 331 227 311 227 291 C 227 227 245 177 282 141 C 319 105 375 88 451 88 Z M 393 1446 L 393 1272 L 256 1272 L 256 1446 L 393 1446 Z M 823 1446 L 823 1272 L 684 1272 L 684 1446 L 823 1446 Z" unicode="ä" />
<glyph horiz-adv-x="1081" d="M 844 0 C 835 14 825 37 815 68 C 805 98 799 136 797 180 C 755 114 701 65 637 33 C 572 0 502 -16 426 -16 C 376 -16 330 -9 290 4 C 250 17 215 36 186 62 C 157 87 135 118 119 155 C 103 191 96 233 96 281 C 96 331 107 378 129 420 C 151 462 188 498 241 528 C 294 558 365 581 453 598 C 541 614 652 623 786 625 L 786 709 C 786 795 766 858 728 898 C 690 938 627 958 541 958 C 477 958 416 949 358 932 C 300 915 250 896 207 874 L 158 973 C 173 983 193 993 219 1005 C 244 1016 273 1026 307 1036 C 341 1046 378 1054 418 1060 C 458 1066 500 1069 545 1069 C 604 1069 657 1062 703 1049 C 749 1036 787 1015 819 985 C 850 955 874 917 890 869 C 906 821 915 763 915 694 L 915 264 C 915 230 916 199 920 171 C 924 143 928 118 934 96 C 940 74 946 56 953 40 C 960 24 967 10 973 0 L 844 0 Z M 451 88 C 502 88 548 96 590 112 C 631 128 666 149 695 175 C 724 201 746 231 762 265 C 778 298 786 332 786 367 L 786 543 C 705 539 635 533 576 525 C 517 517 467 507 425 495 C 383 483 350 470 324 455 C 298 440 278 424 264 406 C 249 388 239 370 234 351 C 229 331 227 311 227 291 C 227 227 245 177 282 141 C 319 105 375 88 451 88 Z M 313 1436 C 313 1465 318 1493 330 1519 C 342 1545 358 1568 379 1588 C 399 1608 423 1623 451 1635 C 478 1647 507 1653 539 1653 C 571 1653 600 1647 628 1635 C 655 1623 679 1608 699 1588 C 719 1568 734 1545 746 1519 C 758 1493 764 1465 764 1436 C 764 1406 758 1377 746 1351 C 734 1324 719 1301 699 1282 C 679 1262 655 1247 628 1236 C 600 1224 571 1219 539 1219 C 507 1219 478 1224 451 1236 C 423 1247 399 1262 379 1282 C 358 1301 342 1324 330 1351 C 318 1377 313 1406 313 1436 Z M 389 1436 C 389 1415 393 1396 401 1378 C 409 1360 419 1344 433 1331 C 447 1317 463 1307 481 1299 C 499 1291 518 1288 539 1288 C 559 1288 579 1291 597 1299 C 615 1307 630 1317 644 1331 C 657 1344 668 1360 676 1378 C 684 1396 688 1415 688 1436 C 688 1456 684 1475 676 1493 C 668 1511 657 1526 644 1540 C 630 1554 615 1565 597 1573 C 579 1581 559 1585 539 1585 C 518 1585 499 1581 481 1573 C 463 1565 447 1554 433 1540 C 419 1526 409 1511 401 1493 C 393 1475 389 1456 389 1436 Z" unicode="å" />
<glyph horiz-adv-x="1788" d="M 426 -16 C 376 -16 330 -9 290 4 C 249 17 214 36 186 62 C 157 87 135 118 119 155 C 103 191 96 233 96 281 C 96 331 107 378 129 420 C 151 462 188 498 241 528 C 294 558 365 581 453 598 C 541 614 652 623 786 625 L 786 709 C 786 795 766 858 728 898 C 690 938 627 958 541 958 C 477 958 416 949 358 932 C 300 915 250 896 207 874 L 158 973 C 173 983 193 993 219 1005 C 244 1016 273 1026 307 1036 C 341 1046 378 1054 418 1060 C 458 1066 500 1069 545 1069 C 590 1069 631 1064 669 1056 C 707 1047 740 1033 769 1015 C 797 997 821 973 841 943 C 860 913 875 878 885 836 C 921 908 971 964 1036 1006 C 1100 1048 1177 1069 1266 1069 C 1332 1069 1391 1057 1443 1034 C 1494 1011 1537 979 1573 938 C 1608 896 1635 847 1653 790 C 1671 733 1681 671 1681 604 C 1681 589 1680 575 1679 562 C 1678 549 1677 531 1675 508 L 915 508 C 915 453 922 401 935 351 C 948 301 969 257 998 219 C 1027 181 1065 150 1112 128 C 1159 105 1217 94 1286 94 C 1348 94 1404 104 1454 124 C 1504 144 1553 173 1602 209 L 1655 106 C 1603 67 1548 37 1489 16 C 1429 -5 1362 -16 1286 -16 C 1228 -16 1175 -9 1128 3 C 1080 15 1038 33 1001 57 C 964 80 932 108 906 142 C 879 175 858 212 842 254 C 821 207 796 167 767 133 C 738 99 706 71 670 49 C 634 27 596 10 555 0 C 513 -10 470 -16 426 -16 Z M 451 88 C 502 88 548 96 590 113 C 631 129 666 153 695 183 C 724 213 746 248 762 290 C 778 332 786 378 786 428 L 786 543 C 705 539 635 533 576 525 C 517 517 467 507 425 495 C 383 483 350 470 324 455 C 298 440 278 424 264 406 C 249 388 239 370 234 351 C 229 331 227 311 227 291 C 227 227 245 177 282 141 C 319 105 375 88 451 88 Z M 1550 608 C 1551 658 1546 704 1534 748 C 1522 791 1503 829 1479 861 C 1454 893 1423 918 1386 936 C 1348 954 1305 963 1257 963 C 1211 963 1169 954 1131 938 C 1093 922 1059 898 1030 868 C 1000 837 976 800 958 756 C 939 712 926 662 920 608 L 1550 608 Z" unicode="æ" />
<glyph horiz-adv-x="991" d="M 889 66 C 849 40 804 19 755 5 C 705 -8 648 -16 582 -16 L 555 -16 L 555 -29 C 555 -40 560 -50 571 -59 L 633 -123 C 647 -137 662 -157 676 -181 C 690 -205 698 -234 698 -270 C 698 -326 678 -371 638 -403 C 598 -435 543 -451 475 -451 C 444 -451 415 -447 388 -441 C 360 -434 337 -423 319 -408 L 340 -317 C 346 -322 355 -327 366 -331 C 377 -335 389 -338 401 -341 C 413 -344 426 -346 439 -348 C 452 -349 464 -350 475 -350 C 489 -350 502 -348 515 -346 C 528 -343 540 -338 551 -332 C 561 -325 570 -316 576 -305 C 582 -294 586 -280 586 -264 C 586 -243 580 -227 570 -215 C 560 -203 548 -190 535 -178 L 477 -123 C 471 -117 465 -110 461 -102 C 457 -94 455 -85 455 -76 L 455 -2 C 395 10 344 32 301 63 C 257 94 221 132 193 177 C 165 222 144 273 130 331 C 116 388 109 450 109 516 C 109 596 119 671 139 739 C 159 807 190 865 230 914 C 270 962 319 1000 379 1028 C 438 1055 507 1069 586 1069 C 648 1069 704 1061 754 1047 C 804 1032 849 1012 889 987 L 854 877 C 816 901 776 921 733 936 C 689 950 641 958 588 958 C 528 958 477 947 434 925 C 390 903 354 872 326 833 C 298 794 277 748 263 694 C 249 640 242 582 242 518 C 242 464 247 411 258 361 C 269 310 288 265 314 225 C 340 185 376 154 421 130 C 465 106 522 94 590 94 C 641 94 688 101 732 116 C 776 130 816 150 854 176 L 889 66 Z" unicode="ç" />
<glyph horiz-adv-x="1108" d="M 242 508 C 242 455 248 404 260 354 C 272 304 292 260 320 222 C 348 183 385 152 432 129 C 478 105 536 94 606 94 C 637 94 666 96 694 102 C 722 107 748 114 774 124 C 800 134 825 146 850 160 C 874 174 899 191 924 209 L 975 106 C 924 67 869 37 810 16 C 751 -5 683 -16 606 -16 C 520 -16 445 -2 383 24 C 320 50 268 87 228 134 C 188 181 158 237 138 301 C 118 365 109 434 109 510 C 109 591 119 666 141 734 C 163 802 194 861 235 911 C 275 961 325 999 383 1027 C 441 1055 508 1069 582 1069 C 650 1069 710 1057 762 1034 C 814 1011 857 979 893 938 C 929 896 956 847 974 790 C 992 733 1001 671 1001 604 C 1001 589 1000 575 999 562 C 998 549 997 531 995 508 L 242 508 Z M 578 963 C 532 963 490 954 452 938 C 414 922 381 898 353 868 C 324 838 301 801 283 757 C 265 713 252 663 246 608 L 870 608 C 872 658 867 704 855 748 C 843 791 824 829 799 861 C 774 893 743 918 706 936 C 669 954 626 963 578 963 Z M 399 1530 L 641 1274 L 641 1231 L 578 1231 L 264 1481 L 264 1530 L 399 1530 Z" unicode="è" />
<glyph horiz-adv-x="1108" d="M 242 508 C 242 455 248 404 260 354 C 272 304 292 260 320 222 C 348 183 385 152 432 129 C 478 105 536 94 606 94 C 637 94 666 96 694 102 C 722 107 748 114 774 124 C 800 134 825 146 850 160 C 874 174 899 191 924 209 L 975 106 C 924 67 869 37 810 16 C 751 -5 683 -16 606 -16 C 520 -16 445 -2 383 24 C 320 50 268 87 228 134 C 188 181 158 237 138 301 C 118 365 109 434 109 510 C 109 591 119 666 141 734 C 163 802 194 861 235 911 C 275 961 325 999 383 1027 C 441 1055 508 1069 582 1069 C 650 1069 710 1057 762 1034 C 814 1011 857 979 893 938 C 929 896 956 847 974 790 C 992 733 1001 671 1001 604 C 1001 589 1000 575 999 562 C 998 549 997 531 995 508 L 242 508 Z M 578 963 C 532 963 490 954 452 938 C 414 922 381 898 353 868 C 324 838 301 801 283 757 C 265 713 252 663 246 608 L 870 608 C 872 658 867 704 855 748 C 843 791 824 829 799 861 C 774 893 743 918 706 936 C 669 954 626 963 578 963 Z M 858 1530 L 858 1481 L 545 1231 L 481 1231 L 481 1274 L 723 1530 L 858 1530 Z" unicode="é" />
<glyph horiz-adv-x="1108" d="M 242 508 C 242 455 248 404 260 354 C 272 304 292 260 320 222 C 348 183 385 152 432 129 C 478 105 536 94 606 94 C 637 94 666 96 694 102 C 722 107 748 114 774 124 C 800 134 825 146 850 160 C 874 174 899 191 924 209 L 975 106 C 924 67 869 37 810 16 C 751 -5 683 -16 606 -16 C 520 -16 445 -2 383 24 C 320 50 268 87 228 134 C 188 181 158 237 138 301 C 118 365 109 434 109 510 C 109 591 119 666 141 734 C 163 802 194 861 235 911 C 275 961 325 999 383 1027 C 441 1055 508 1069 582 1069 C 650 1069 710 1057 762 1034 C 814 1011 857 979 893 938 C 929 896 956 847 974 790 C 992 733 1001 671 1001 604 C 1001 589 1000 575 999 562 C 998 549 997 531 995 508 L 242 508 Z M 578 963 C 532 963 490 954 452 938 C 414 922 381 898 353 868 C 324 838 301 801 283 757 C 265 713 252 663 246 608 L 870 608 C 872 658 867 704 855 748 C 843 791 824 829 799 861 C 774 893 743 918 706 936 C 669 954 626 963 578 963 Z M 616 1530 L 821 1268 L 821 1231 L 762 1231 L 567 1427 L 557 1427 L 362 1231 L 303 1231 L 303 1268 L 510 1530 L 616 1530 Z" unicode="ê" />
<glyph horiz-adv-x="1108" d="M 242 508 C 242 455 248 404 260 354 C 272 304 292 260 320 222 C 348 183 385 152 432 129 C 478 105 536 94 606 94 C 637 94 666 96 694 102 C 722 107 748 114 774 124 C 800 134 825 146 850 160 C 874 174 899 191 924 209 L 975 106 C 924 67 869 37 810 16 C 751 -5 683 -16 606 -16 C 520 -16 445 -2 383 24 C 320 50 268 87 228 134 C 188 181 158 237 138 301 C 118 365 109 434 109 510 C 109 591 119 666 141 734 C 163 802 194 861 235 911 C 275 961 325 999 383 1027 C 441 1055 508 1069 582 1069 C 650 1069 710 1057 762 1034 C 814 1011 857 979 893 938 C 929 896 956 847 974 790 C 992 733 1001 671 1001 604 C 1001 589 1000 575 999 562 C 998 549 997 531 995 508 L 242 508 Z M 578 963 C 532 963 490 954 452 938 C 414 922 381 898 353 868 C 324 838 301 801 283 757 C 265 713 252 663 246 608 L 870 608 C 872 658 867 704 855 748 C 843 791 824 829 799 861 C 774 893 743 918 706 936 C 669 954 626 963 578 963 Z M 418 1446 L 418 1272 L 281 1272 L 281 1446 L 418 1446 Z M 848 1446 L 848 1272 L 709 1272 L 709 1446 L 848 1446 Z" unicode="ë" />
<glyph horiz-adv-x="498" d="M 313 1053 L 313 0 L 184 0 L 184 1053 L 313 1053 Z M 88 1530 L 330 1274 L 330 1231 L 266 1231 L -47 1481 L -47 1530 L 88 1530 Z" unicode="ì" />
<glyph horiz-adv-x="498" d="M 313 1053 L 313 0 L 184 0 L 184 1053 L 313 1053 Z M 545 1530 L 545 1481 L 229 1231 L 168 1231 L 168 1274 L 410 1530 L 545 1530 Z" unicode="í" />
<glyph horiz-adv-x="498" d="M 313 1053 L 313 0 L 184 0 L 184 1053 L 313 1053 Z M 301 1530 L 508 1268 L 508 1231 L 446 1231 L 254 1427 L 244 1427 L 47 1231 L -10 1231 L -10 1268 L 195 1530 L 301 1530 Z" unicode="î" />
<glyph horiz-adv-x="498" d="M 313 1053 L 313 0 L 184 0 L 184 1053 L 313 1053 Z M 104 1446 L 104 1272 L -35 1272 L -35 1446 L 104 1446 Z M 532 1446 L 532 1272 L 393 1272 L 393 1446 L 532 1446 Z" unicode="ï" />
<glyph horiz-adv-x="1143" d="M 1034 537 C 1034 459 1023 387 1003 320 C 983 253 953 195 914 145 C 875 95 827 55 769 27 C 711 -1 645 -16 571 -16 C 499 -16 435 -2 378 23 C 321 49 273 86 233 134 C 193 182 162 239 141 305 C 119 371 109 444 109 524 C 109 600 119 671 139 737 C 159 803 189 861 228 910 C 267 959 315 998 372 1026 C 429 1054 494 1069 567 1069 C 613 1069 652 1062 684 1048 C 716 1034 746 1012 776 981 C 760 1011 741 1040 721 1070 C 700 1099 678 1127 654 1155 C 630 1183 606 1209 581 1233 C 556 1257 532 1280 508 1300 L 248 1200 L 248 1286 L 438 1362 C 427 1370 415 1379 402 1389 C 388 1399 375 1408 362 1418 C 348 1428 335 1437 323 1445 C 311 1453 301 1460 293 1466 L 403 1524 C 430 1503 456 1483 481 1464 C 506 1444 530 1425 553 1407 L 788 1497 L 788 1411 L 621 1346 C 697 1276 761 1206 814 1136 C 866 1066 909 997 942 929 C 974 861 998 794 1012 728 C 1026 662 1034 599 1034 537 Z M 571 958 C 513 958 463 946 422 924 C 380 901 346 870 320 831 C 293 792 273 747 261 695 C 248 643 242 588 242 530 C 242 472 248 416 260 364 C 272 311 292 265 318 225 C 344 185 378 153 420 129 C 462 105 512 94 571 94 C 629 94 678 105 720 128 C 762 151 796 182 823 222 C 850 262 870 308 883 360 C 896 412 903 468 903 526 C 903 584 896 639 884 691 C 872 743 852 789 825 829 C 798 868 764 899 722 923 C 680 946 629 958 571 958 Z" unicode="ð" />
<glyph horiz-adv-x="1151" d="M 862 0 L 862 700 C 862 737 857 772 848 804 C 839 836 823 863 801 887 C 780 908 754 925 722 938 C 690 951 651 958 606 958 C 558 958 516 950 480 934 C 444 918 413 899 389 875 C 364 851 345 824 332 795 C 319 765 313 737 313 711 L 313 0 L 184 0 L 184 868 L 164 1053 L 285 1053 L 305 868 C 323 904 345 935 370 961 C 394 987 421 1008 450 1024 C 478 1040 508 1051 540 1058 C 572 1065 605 1069 639 1069 C 695 1069 745 1060 788 1042 C 831 1024 868 999 899 967 C 930 935 953 896 968 850 C 983 804 991 748 991 680 L 991 0 L 862 0 Z M 315 1393 C 347 1425 375 1447 399 1457 C 423 1467 445 1473 467 1473 C 479 1473 490 1471 501 1469 C 512 1467 523 1463 534 1457 C 545 1451 557 1443 569 1433 C 581 1423 595 1411 610 1397 L 651 1360 C 663 1347 675 1337 687 1331 C 698 1324 709 1321 721 1321 C 733 1321 745 1324 757 1330 C 769 1336 784 1348 803 1366 L 856 1419 L 928 1370 L 856 1298 C 840 1282 825 1268 811 1258 C 797 1248 784 1240 772 1234 C 760 1228 748 1224 737 1222 C 726 1220 715 1219 705 1219 C 692 1219 680 1220 669 1222 C 658 1224 647 1228 636 1234 C 625 1240 613 1247 601 1257 C 589 1267 575 1279 561 1294 L 520 1333 C 508 1344 496 1353 485 1361 C 473 1368 462 1372 451 1372 C 438 1372 426 1368 414 1361 C 402 1354 387 1342 369 1325 L 315 1272 L 244 1323 L 315 1393 Z" unicode="ñ" />
<glyph horiz-adv-x="1143" d="M 573 1069 C 645 1069 709 1055 766 1029 C 823 1002 871 965 911 917 C 951 869 981 812 1002 746 C 1023 680 1034 607 1034 528 C 1034 454 1023 384 1003 318 C 983 252 953 195 914 145 C 875 95 827 56 770 27 C 712 -1 647 -16 573 -16 C 501 -16 436 -2 379 23 C 321 49 273 86 233 134 C 193 182 162 239 141 306 C 119 372 109 446 109 528 C 109 603 119 673 139 739 C 159 805 189 862 229 911 C 269 960 317 999 375 1027 C 433 1055 499 1069 573 1069 Z M 571 958 C 513 958 463 946 422 924 C 380 902 346 871 320 832 C 293 793 273 747 261 695 C 248 643 242 587 242 528 C 242 470 248 414 260 362 C 272 310 292 264 318 224 C 344 184 378 153 420 129 C 462 105 512 94 571 94 C 629 94 678 105 720 128 C 762 151 796 182 823 222 C 849 261 869 307 882 360 C 894 412 901 468 901 528 C 901 584 894 639 882 691 C 870 743 850 788 824 828 C 798 868 764 899 722 923 C 680 946 629 958 571 958 Z M 410 1530 L 651 1274 L 651 1231 L 588 1231 L 274 1481 L 274 1530 L 410 1530 Z" unicode="ò" />
<glyph horiz-adv-x="1143" d="M 573 1069 C 645 1069 709 1055 766 1029 C 823 1002 871 965 911 917 C 951 869 981 812 1002 746 C 1023 680 1034 607 1034 528 C 1034 454 1023 384 1003 318 C 983 252 953 195 914 145 C 875 95 827 56 770 27 C 712 -1 647 -16 573 -16 C 501 -16 436 -2 379 23 C 321 49 273 86 233 134 C 193 182 162 239 141 306 C 119 372 109 446 109 528 C 109 603 119 673 139 739 C 159 805 189 862 229 911 C 269 960 317 999 375 1027 C 433 1055 499 1069 573 1069 Z M 571 958 C 513 958 463 946 422 924 C 380 902 346 871 320 832 C 293 793 273 747 261 695 C 248 643 242 587 242 528 C 242 470 248 414 260 362 C 272 310 292 264 318 224 C 344 184 378 153 420 129 C 462 105 512 94 571 94 C 629 94 678 105 720 128 C 762 151 796 182 823 222 C 849 261 869 307 882 360 C 894 412 901 468 901 528 C 901 584 894 639 882 691 C 870 743 850 788 824 828 C 798 868 764 899 722 923 C 680 946 629 958 571 958 Z M 868 1530 L 868 1481 L 555 1231 L 492 1231 L 492 1274 L 733 1530 L 868 1530 Z" unicode="ó" />
<glyph horiz-adv-x="1143" d="M 573 1069 C 645 1069 709 1055 766 1029 C 823 1002 871 965 911 917 C 951 869 981 812 1002 746 C 1023 680 1034 607 1034 528 C 1034 454 1023 384 1003 318 C 983 252 953 195 914 145 C 875 95 827 56 770 27 C 712 -1 647 -16 573 -16 C 501 -16 436 -2 379 23 C 321 49 273 86 233 134 C 193 182 162 239 141 306 C 119 372 109 446 109 528 C 109 603 119 673 139 739 C 159 805 189 862 229 911 C 269 960 317 999 375 1027 C 433 1055 499 1069 573 1069 Z M 571 958 C 513 958 463 946 422 924 C 380 902 346 871 320 832 C 293 793 273 747 261 695 C 248 643 242 587 242 528 C 242 470 248 414 260 362 C 272 310 292 264 318 224 C 344 184 378 153 420 129 C 462 105 512 94 571 94 C 629 94 678 105 720 128 C 762 151 796 182 823 222 C 849 261 869 307 882 360 C 894 412 901 468 901 528 C 901 584 894 639 882 691 C 870 743 850 788 824 828 C 798 868 764 899 722 923 C 680 946 629 958 571 958 Z M 627 1530 L 831 1268 L 831 1231 L 772 1231 L 578 1427 L 567 1427 L 373 1231 L 313 1231 L 313 1268 L 520 1530 L 627 1530 Z" unicode="ô" />
<glyph horiz-adv-x="1143" d="M 573 1069 C 645 1069 709 1055 766 1029 C 823 1002 871 965 911 917 C 951 869 981 812 1002 746 C 1023 680 1034 607 1034 528 C 1034 454 1023 384 1003 318 C 983 252 953 195 914 145 C 875 95 827 56 770 27 C 712 -1 647 -16 573 -16 C 501 -16 436 -2 379 23 C 321 49 273 86 233 134 C 193 182 162 239 141 306 C 119 372 109 446 109 528 C 109 603 119 673 139 739 C 159 805 189 862 229 911 C 269 960 317 999 375 1027 C 433 1055 499 1069 573 1069 Z M 571 958 C 513 958 463 946 422 924 C 380 902 346 871 320 832 C 293 793 273 747 261 695 C 248 643 242 587 242 528 C 242 470 248 414 260 362 C 272 310 292 264 318 224 C 344 184 378 153 420 129 C 462 105 512 94 571 94 C 629 94 678 105 720 128 C 762 151 796 182 823 222 C 849 261 869 307 882 360 C 894 412 901 468 901 528 C 901 584 894 639 882 691 C 870 743 850 788 824 828 C 798 868 764 899 722 923 C 680 946 629 958 571 958 Z M 305 1393 C 337 1425 365 1447 389 1457 C 413 1467 435 1473 457 1473 C 469 1473 480 1471 491 1469 C 502 1467 513 1463 524 1457 C 535 1451 547 1443 559 1433 C 571 1423 585 1411 600 1397 L 641 1360 C 653 1347 665 1337 677 1331 C 688 1324 699 1321 711 1321 C 723 1321 735 1324 747 1330 C 759 1336 774 1348 793 1366 L 846 1419 L 918 1370 L 846 1298 C 829 1282 814 1268 800 1258 C 786 1248 773 1240 761 1234 C 749 1228 737 1224 726 1222 C 715 1220 704 1219 694 1219 C 682 1219 670 1220 659 1222 C 648 1224 637 1228 626 1234 C 615 1240 603 1247 591 1257 C 579 1267 565 1279 551 1294 L 510 1333 C 497 1344 485 1353 474 1361 C 462 1368 451 1372 440 1372 C 428 1372 416 1368 404 1361 C 392 1354 376 1342 358 1325 L 305 1272 L 233 1323 L 305 1393 Z" unicode="õ" />
<glyph horiz-adv-x="1143" d="M 573 1069 C 645 1069 709 1055 766 1029 C 823 1002 871 965 911 917 C 951 869 981 812 1002 746 C 1023 680 1034 607 1034 528 C 1034 454 1023 384 1003 318 C 983 252 953 195 914 145 C 875 95 827 56 770 27 C 712 -1 647 -16 573 -16 C 501 -16 436 -2 379 23 C 321 49 273 86 233 134 C 193 182 162 239 141 306 C 119 372 109 446 109 528 C 109 603 119 673 139 739 C 159 805 189 862 229 911 C 269 960 317 999 375 1027 C 433 1055 499 1069 573 1069 Z M 571 958 C 513 958 463 946 422 924 C 380 902 346 871 320 832 C 293 793 273 747 261 695 C 248 643 242 587 242 528 C 242 470 248 414 260 362 C 272 310 292 264 318 224 C 344 184 378 153 420 129 C 462 105 512 94 571 94 C 629 94 678 105 720 128 C 762 151 796 182 823 222 C 849 261 869 307 882 360 C 894 412 901 468 901 528 C 901 584 894 639 882 691 C 870 743 850 788 824 828 C 798 868 764 899 722 923 C 680 946 629 958 571 958 Z M 428 1446 L 428 1272 L 291 1272 L 291 1446 L 428 1446 Z M 858 1446 L 858 1272 L 719 1272 L 719 1446 L 858 1446 Z" unicode="ö" />
<glyph horiz-adv-x="1167" d="M 1061 631 L 1061 510 L 106 510 L 106 631 L 1061 631 Z M 668 213 L 668 0 L 500 0 L 500 213 L 668 213 Z M 668 1141 L 668 926 L 500 926 L 500 1141 L 668 1141 Z" unicode="÷" />
<glyph horiz-adv-x="1143" d="M 948 1171 L 850 977 C 908 929 954 867 986 790 C 1018 713 1034 626 1034 528 C 1034 454 1023 384 1003 318 C 983 252 953 195 914 145 C 875 95 827 56 770 27 C 712 -1 647 -16 573 -16 C 497 -16 431 -2 373 25 L 291 -137 L 193 -137 L 297 70 C 236 117 189 180 157 258 C 125 336 109 426 109 528 C 109 603 119 673 139 739 C 159 805 189 862 229 911 C 269 960 317 999 375 1027 C 433 1055 499 1069 573 1069 C 611 1069 646 1065 680 1057 C 714 1049 746 1038 776 1024 L 850 1171 L 948 1171 Z M 571 958 C 513 958 463 946 422 924 C 380 902 346 871 320 832 C 293 793 273 747 261 695 C 248 643 242 587 242 528 C 242 458 250 392 267 332 C 284 272 312 221 352 180 L 723 922 C 681 946 631 958 571 958 Z M 901 528 C 901 561 898 594 894 626 C 890 658 883 688 875 717 C 866 746 855 773 841 798 C 827 823 811 846 793 866 L 422 127 C 443 116 466 108 490 102 C 514 96 541 94 571 94 C 629 94 678 105 720 128 C 762 151 796 182 823 222 C 849 261 869 307 882 360 C 894 412 901 468 901 528 Z" unicode="ø" />
<glyph horiz-adv-x="1151" d="M 293 1053 L 293 352 C 293 315 297 280 306 248 C 315 216 331 188 354 166 C 374 144 401 127 434 114 C 466 100 505 94 549 94 C 595 94 637 101 674 117 C 710 133 741 153 766 177 C 790 201 809 227 822 257 C 835 286 842 314 842 342 L 842 1053 L 971 1053 L 971 184 L 991 0 L 870 0 L 850 184 C 830 147 808 116 784 91 C 760 65 733 45 705 29 C 677 13 647 1 615 -5 C 583 -12 551 -16 518 -16 C 461 -16 411 -7 367 11 C 323 29 286 53 256 84 C 226 116 203 155 187 201 C 171 247 164 305 164 373 L 164 1053 L 293 1053 Z M 420 1530 L 662 1274 L 662 1231 L 598 1231 L 285 1481 L 285 1530 L 420 1530 Z" unicode="ù" />
<glyph horiz-adv-x="1151" d="M 293 1053 L 293 352 C 293 315 297 280 306 248 C 315 216 331 188 354 166 C 374 144 401 127 434 114 C 466 100 505 94 549 94 C 595 94 637 101 674 117 C 710 133 741 153 766 177 C 790 201 809 227 822 257 C 835 286 842 314 842 342 L 842 1053 L 971 1053 L 971 184 L 991 0 L 870 0 L 850 184 C 830 147 808 116 784 91 C 760 65 733 45 705 29 C 677 13 647 1 615 -5 C 583 -12 551 -16 518 -16 C 461 -16 411 -7 367 11 C 323 29 286 53 256 84 C 226 116 203 155 187 201 C 171 247 164 305 164 373 L 164 1053 L 293 1053 Z M 879 1530 L 879 1481 L 565 1231 L 502 1231 L 502 1274 L 743 1530 L 879 1530 Z" unicode="ú" />
<glyph horiz-adv-x="1151" d="M 293 1053 L 293 352 C 293 315 297 280 306 248 C 315 216 331 188 354 166 C 374 144 401 127 434 114 C 466 100 505 94 549 94 C 595 94 637 101 674 117 C 710 133 741 153 766 177 C 790 201 809 227 822 257 C 835 286 842 314 842 342 L 842 1053 L 971 1053 L 971 184 L 991 0 L 870 0 L 850 184 C 830 147 808 116 784 91 C 760 65 733 45 705 29 C 677 13 647 1 615 -5 C 583 -12 551 -16 518 -16 C 461 -16 411 -7 367 11 C 323 29 286 53 256 84 C 226 116 203 155 187 201 C 171 247 164 305 164 373 L 164 1053 L 293 1053 Z M 637 1530 L 842 1268 L 842 1231 L 782 1231 L 588 1427 L 578 1427 L 383 1231 L 324 1231 L 324 1268 L 530 1530 L 637 1530 Z" unicode="û" />
<glyph horiz-adv-x="1151" d="M 293 1053 L 293 352 C 293 315 297 280 306 248 C 315 216 331 188 354 166 C 374 144 401 127 434 114 C 466 100 505 94 549 94 C 595 94 637 101 674 117 C 710 133 741 153 766 177 C 790 201 809 227 822 257 C 835 286 842 314 842 342 L 842 1053 L 971 1053 L 971 184 L 991 0 L 870 0 L 850 184 C 830 147 808 116 784 91 C 760 65 733 45 705 29 C 677 13 647 1 615 -5 C 583 -12 551 -16 518 -16 C 461 -16 411 -7 367 11 C 323 29 286 53 256 84 C 226 116 203 155 187 201 C 171 247 164 305 164 373 L 164 1053 L 293 1053 Z M 438 1446 L 438 1272 L 301 1272 L 301 1446 L 438 1446 Z M 868 1446 L 868 1272 L 729 1272 L 729 1446 L 868 1446 Z" unicode="ü" />
<glyph horiz-adv-x="932" d="M 150 1053 L 451 227 L 471 147 L 479 147 L 500 227 L 778 1053 L 920 1053 L 479 -152 C 465 -190 449 -228 433 -264 C 416 -300 397 -333 375 -361 C 353 -389 327 -412 299 -429 C 271 -446 239 -455 203 -455 C 186 -455 171 -454 157 -452 C 143 -450 133 -447 125 -442 L 115 -344 C 151 -344 182 -340 208 -334 C 233 -328 254 -318 272 -304 C 290 -290 305 -272 317 -250 C 329 -228 341 -202 352 -172 L 410 -16 L 6 1053 L 150 1053 Z M 760 1530 L 760 1481 L 446 1231 L 383 1231 L 383 1274 L 625 1530 L 760 1530 Z" unicode="ý" />
<glyph horiz-adv-x="1167" d="M 313 1507 L 313 893 C 353 952 398 996 448 1025 C 498 1054 559 1069 631 1069 C 706 1069 770 1054 824 1026 C 878 998 922 959 957 911 C 991 862 1017 805 1033 741 C 1049 677 1057 609 1057 537 C 1057 496 1054 454 1049 411 C 1043 368 1034 326 1022 285 C 1009 244 992 205 972 169 C 951 132 925 100 894 73 C 863 45 827 24 785 8 C 743 -8 695 -16 641 -16 C 608 -16 576 -13 544 -7 C 512 -1 482 7 454 20 C 426 33 400 50 376 72 C 352 93 331 120 313 152 L 313 -451 L 184 -451 L 184 1507 L 313 1507 Z M 616 958 C 563 958 518 949 480 932 C 442 914 410 893 386 867 C 361 841 343 814 331 786 C 319 758 313 733 313 711 L 313 340 C 313 316 319 290 331 262 C 343 233 360 206 384 181 C 408 156 438 135 474 119 C 510 102 552 94 600 94 C 667 94 722 106 765 131 C 808 156 842 189 866 230 C 890 270 907 316 916 368 C 925 420 930 472 930 526 C 930 580 925 633 916 685 C 906 737 890 783 866 823 C 842 863 810 896 770 921 C 730 945 678 958 616 958 Z" unicode="þ" />
<glyph horiz-adv-x="932" d="M 150 1053 L 451 227 L 471 147 L 479 147 L 500 227 L 778 1053 L 920 1053 L 479 -152 C 465 -190 449 -228 433 -264 C 416 -300 397 -333 375 -361 C 353 -389 327 -412 299 -429 C 271 -446 239 -455 203 -455 C 186 -455 171 -454 157 -452 C 143 -450 133 -447 125 -442 L 115 -344 C 151 -344 182 -340 208 -334 C 233 -328 254 -318 272 -304 C 290 -290 305 -272 317 -250 C 329 -228 341 -202 352 -172 L 410 -16 L 6 1053 L 150 1053 Z M 319 1446 L 319 1272 L 182 1272 L 182 1446 L 319 1446 Z M 750 1446 L 750 1272 L 610 1272 L 610 1446 L 750 1446 Z" unicode="ÿ" />
<glyph horiz-adv-x="498" d="M 313 1053 L 313 0 L 184 0 L 184 1053 L 313 1053 Z" unicode="ı" />
<glyph horiz-adv-x="1102" d="M 55 584 L 246 725 L 246 1446 L 383 1446 L 383 827 L 729 1087 L 729 956 L 383 696 L 383 115 L 1085 115 L 1085 0 L 246 0 L 246 594 L 55 453 L 55 584 Z" unicode="Ł" />
<glyph horiz-adv-x="522" d="M 43 651 L 197 766 L 197 1507 L 326 1507 L 326 864 L 481 981 L 481 846 L 326 729 L 326 0 L 197 0 L 197 631 L 43 516 L 43 651 Z" unicode="ł" />
<glyph horiz-adv-x="2382" d="M 2222 1446 L 2222 1331 L 1415 1331 L 1415 811 L 2130 811 L 2130 696 L 1415 696 L 1415 115 L 2243 115 L 2243 0 L 1280 0 L 1280 283 C 1253 231 1221 187 1185 149 C 1149 111 1109 79 1065 54 C 1021 29 974 10 924 -1 C 874 -13 823 -20 770 -20 C 678 -20 593 -4 514 27 C 434 58 365 105 307 167 C 248 229 202 307 168 400 C 134 493 117 601 117 725 C 117 849 133 957 167 1050 C 201 1143 247 1220 306 1282 C 364 1344 433 1390 513 1421 C 592 1452 678 1468 770 1468 C 824 1468 875 1461 925 1449 C 975 1437 1021 1418 1065 1393 C 1109 1367 1149 1336 1185 1298 C 1221 1260 1253 1215 1280 1163 L 1280 1446 L 2222 1446 Z M 770 1354 C 686 1354 613 1339 549 1309 C 485 1279 432 1237 389 1182 C 346 1127 313 1061 291 984 C 269 906 258 820 258 725 C 258 635 268 551 290 474 C 311 397 343 330 386 274 C 428 218 482 174 546 142 C 610 110 684 94 770 94 C 852 94 926 108 990 138 C 1054 167 1107 209 1151 264 C 1195 318 1228 385 1250 463 C 1272 541 1284 628 1284 725 C 1284 815 1273 899 1251 976 C 1229 1052 1196 1119 1153 1175 C 1110 1231 1057 1274 993 1306 C 929 1338 854 1354 770 1354 Z" unicode="Œ" />
<glyph horiz-adv-x="1901" d="M 573 1069 C 620 1069 664 1062 705 1049 C 746 1036 783 1017 817 993 C 850 968 879 938 905 904 C 931 869 952 830 969 786 C 986 830 1008 869 1034 904 C 1060 938 1091 968 1125 993 C 1159 1017 1197 1036 1239 1049 C 1281 1062 1326 1069 1374 1069 C 1442 1069 1502 1057 1554 1034 C 1606 1011 1650 979 1686 938 C 1722 896 1749 847 1767 790 C 1785 733 1794 671 1794 604 C 1794 589 1793 575 1792 562 C 1791 549 1790 531 1788 508 L 1028 508 C 1028 453 1035 401 1048 351 C 1061 301 1082 257 1111 219 C 1140 181 1178 150 1225 128 C 1272 105 1330 94 1399 94 C 1461 94 1517 104 1567 124 C 1617 144 1666 173 1714 209 L 1767 106 C 1715 67 1660 37 1601 16 C 1542 -5 1475 -16 1399 -16 C 1343 -16 1291 -9 1245 3 C 1199 15 1157 33 1121 57 C 1084 81 1052 109 1026 142 C 1000 175 979 212 963 254 C 945 214 924 177 899 144 C 874 111 845 83 812 59 C 779 35 743 16 703 3 C 663 -9 619 -16 573 -16 C 501 -16 436 -2 379 23 C 321 49 273 86 233 134 C 193 182 162 239 141 306 C 119 372 109 446 109 528 C 109 603 119 673 139 739 C 159 805 189 862 229 911 C 269 960 317 999 375 1027 C 433 1055 499 1069 573 1069 Z M 1370 963 C 1324 963 1282 954 1244 938 C 1206 922 1172 898 1143 868 C 1113 837 1089 800 1070 756 C 1051 712 1038 662 1032 608 L 1663 608 C 1664 658 1659 704 1647 748 C 1635 791 1616 829 1592 861 C 1567 893 1536 918 1499 936 C 1461 954 1418 963 1370 963 Z M 571 958 C 513 958 463 946 422 924 C 380 902 346 871 320 832 C 293 793 273 747 261 695 C 248 643 242 587 242 528 C 242 470 248 414 260 362 C 272 310 292 264 318 224 C 344 184 378 153 420 129 C 462 105 512 94 571 94 C 629 94 678 105 720 128 C 762 151 796 182 823 222 C 849 261 869 307 882 360 C 894 412 901 468 901 528 C 901 584 894 639 882 691 C 870 743 850 788 824 828 C 798 868 764 899 722 923 C 680 946 629 958 571 958 Z" unicode="œ" />
<glyph horiz-adv-x="1120" d="M 940 1282 C 892 1302 839 1320 779 1334 C 719 1348 656 1356 592 1356 C 546 1356 503 1351 462 1342 C 420 1332 384 1317 353 1297 C 322 1276 297 1249 279 1216 C 261 1183 252 1143 252 1096 C 252 1046 262 1004 282 972 C 302 940 329 913 361 892 C 393 870 430 853 470 840 C 510 826 550 814 590 803 C 652 785 710 764 765 742 C 819 720 867 693 908 661 C 949 629 982 590 1006 545 C 1030 500 1042 446 1042 383 C 1042 321 1030 264 1006 213 C 982 162 947 119 901 83 C 855 47 800 19 734 -1 C 668 -21 592 -31 508 -31 C 474 -31 439 -29 403 -26 C 367 -22 331 -17 295 -11 C 259 -5 223 3 189 13 C 155 23 123 35 94 49 L 127 172 C 155 158 186 145 219 134 C 251 123 285 114 319 106 C 353 98 387 93 422 89 C 456 85 490 84 522 84 C 573 84 622 89 668 99 C 714 109 754 126 789 148 C 824 170 852 198 872 232 C 892 266 903 308 903 356 C 903 408 891 452 868 488 C 844 524 815 554 779 578 C 743 602 703 622 661 637 C 618 652 577 665 539 676 C 510 684 480 692 448 702 C 416 711 384 722 353 736 C 321 749 291 765 262 785 C 233 804 208 827 186 854 C 164 881 147 913 134 949 C 121 985 115 1028 115 1077 C 115 1141 126 1198 150 1247 C 174 1296 207 1337 250 1370 C 293 1402 344 1427 404 1443 C 464 1459 530 1468 602 1468 C 676 1468 743 1461 803 1447 C 863 1433 919 1418 971 1401 L 940 1282 Z M 508 1604 L 301 1864 L 301 1903 L 360 1903 L 555 1704 L 565 1704 L 760 1903 L 819 1903 L 819 1864 L 614 1604 L 508 1604 Z" unicode="Š" />
<glyph horiz-adv-x="907" d="M 127 141 C 141 133 159 126 179 118 C 199 110 222 102 247 96 C 271 89 297 84 325 80 C 353 76 382 74 412 74 C 447 74 481 77 514 84 C 547 90 576 101 602 116 C 627 131 647 151 663 175 C 678 199 686 229 686 264 C 686 298 678 326 664 350 C 649 373 629 393 603 410 C 577 427 546 442 510 456 C 474 469 435 482 393 496 C 361 506 328 518 296 534 C 264 550 234 569 208 593 C 182 616 160 643 144 675 C 127 707 119 744 119 788 C 119 834 127 874 145 909 C 163 944 187 973 219 997 C 250 1021 288 1039 332 1051 C 376 1063 424 1069 477 1069 C 503 1069 529 1067 556 1065 C 582 1063 608 1059 634 1055 C 660 1050 684 1044 707 1037 C 730 1030 751 1022 770 1014 L 741 905 C 699 921 656 935 611 947 C 566 959 519 965 469 965 C 437 965 407 961 379 955 C 351 949 327 939 307 926 C 287 912 271 895 259 875 C 247 854 242 829 242 801 C 242 769 248 743 261 721 C 273 699 291 681 315 665 C 338 649 366 635 399 623 C 432 611 469 600 510 588 C 544 578 580 565 616 551 C 652 537 684 518 713 495 C 742 472 766 443 785 409 C 803 375 813 333 813 283 C 813 229 802 182 780 142 C 758 102 728 70 692 44 C 655 18 612 0 564 -12 C 516 -24 466 -31 414 -31 C 380 -31 346 -28 313 -24 C 280 -19 249 -13 221 -7 C 192 -1 167 5 146 13 C 125 20 110 27 100 33 L 127 141 Z M 403 1231 L 197 1491 L 197 1530 L 256 1530 L 451 1331 L 461 1331 L 655 1530 L 715 1530 L 715 1491 L 510 1231 L 403 1231 Z" unicode="š" />
<glyph horiz-adv-x="1219" d="M 190 1446 L 616 651 L 1044 1446 L 1196 1446 L 676 526 L 676 0 L 541 0 L 541 526 L 25 1446 L 190 1446 Z M 465 1819 L 465 1645 L 328 1645 L 328 1819 L 465 1819 Z M 895 1819 L 895 1645 L 756 1645 L 756 1819 L 895 1819 Z" unicode="Ÿ" />
<glyph horiz-adv-x="1260" d="M 1153 1446 L 1153 1348 L 266 115 L 1163 115 L 1163 0 L 96 0 L 96 98 L 979 1331 L 170 1331 L 170 1446 L 1153 1446 Z M 578 1604 L 371 1864 L 371 1903 L 430 1903 L 625 1704 L 635 1704 L 829 1903 L 889 1903 L 889 1864 L 684 1604 L 578 1604 Z" unicode="Ž" />
<glyph horiz-adv-x="907" d="M 823 1053 L 823 971 L 227 100 L 840 100 L 840 0 L 76 0 L 76 82 L 672 952 L 125 952 L 125 1053 L 823 1053 Z M 424 1231 L 217 1491 L 217 1530 L 276 1530 L 471 1331 L 481 1331 L 676 1530 L 735 1530 L 735 1491 L 530 1231 L 424 1231 Z" unicode="ž" />
<glyph horiz-adv-x="1167" d="M 571 748 L 633 1090 C 640 1130 652 1167 670 1201 C 687 1235 709 1265 735 1291 C 761 1316 791 1336 826 1350 C 860 1364 898 1372 940 1372 C 973 1372 999 1370 1018 1367 C 1036 1363 1049 1359 1057 1354 L 1020 1251 C 1009 1254 996 1257 980 1259 C 964 1261 949 1262 934 1262 C 884 1262 845 1248 818 1220 C 790 1192 772 1151 762 1096 L 700 748 L 987 748 L 987 647 L 684 647 L 539 -170 C 531 -210 519 -247 502 -281 C 484 -315 462 -345 436 -371 C 410 -397 379 -417 345 -431 C 311 -445 273 -453 233 -453 C 199 -453 172 -451 154 -447 C 135 -443 123 -439 117 -434 L 152 -332 C 162 -335 175 -337 191 -339 C 207 -341 223 -342 238 -342 C 288 -342 326 -328 354 -301 C 382 -273 400 -232 410 -176 L 555 647 L 317 647 L 317 748 L 571 748 Z" unicode="ƒ" />
<glyph horiz-adv-x="840" d="M 473 1530 L 678 1268 L 678 1231 L 618 1231 L 424 1427 L 414 1427 L 219 1231 L 160 1231 L 160 1268 L 367 1530 L 473 1530 Z" unicode="ˆ" />
<glyph horiz-adv-x="840" d="M 367 1231 L 160 1491 L 160 1530 L 219 1530 L 414 1331 L 424 1331 L 618 1530 L 678 1530 L 678 1491 L 473 1231 L 367 1231 Z" unicode="ˇ" />
<glyph horiz-adv-x="840" d="M 221 1530 L 221 1503 C 221 1475 224 1450 231 1426 C 238 1402 249 1382 265 1365 C 280 1347 300 1334 326 1324 C 351 1314 382 1309 420 1309 C 456 1309 487 1314 513 1326 C 538 1337 558 1352 574 1370 C 589 1388 600 1408 607 1432 C 614 1455 618 1479 618 1503 L 618 1530 L 698 1530 L 698 1483 C 698 1447 692 1412 680 1380 C 668 1347 651 1318 628 1294 C 604 1270 575 1250 541 1236 C 506 1221 466 1214 420 1214 C 374 1214 334 1221 300 1235 C 265 1249 236 1268 213 1292 C 189 1316 172 1345 160 1378 C 148 1410 143 1445 143 1483 L 143 1530 L 221 1530 Z" unicode="˘" />
<glyph horiz-adv-x="840" d="M 494 1446 L 494 1260 L 346 1260 L 346 1446 L 494 1446 Z" unicode="˙" />
<glyph horiz-adv-x="840" d="M 195 1436 C 195 1465 200 1493 212 1519 C 224 1545 240 1568 260 1588 C 280 1608 304 1623 332 1635 C 359 1647 388 1653 420 1653 C 452 1653 481 1647 509 1635 C 536 1623 560 1608 580 1588 C 600 1568 615 1545 627 1519 C 639 1493 645 1465 645 1436 C 645 1406 639 1377 627 1351 C 615 1324 600 1301 580 1282 C 560 1262 536 1247 509 1236 C 481 1224 452 1219 420 1219 C 388 1219 359 1224 332 1236 C 304 1247 280 1262 260 1282 C 240 1301 224 1324 212 1351 C 200 1377 195 1406 195 1436 Z M 270 1436 C 270 1415 274 1396 282 1378 C 290 1360 300 1344 314 1331 C 328 1317 344 1307 362 1299 C 380 1291 399 1288 420 1288 C 440 1288 460 1291 478 1299 C 496 1307 511 1317 525 1331 C 538 1344 549 1360 557 1378 C 565 1396 569 1415 569 1436 C 569 1456 565 1475 557 1493 C 549 1511 538 1526 525 1540 C 511 1554 496 1565 478 1573 C 460 1581 440 1585 420 1585 C 399 1585 380 1581 362 1573 C 344 1565 328 1554 314 1540 C 300 1526 290 1511 282 1493 C 274 1475 270 1456 270 1436 Z" unicode="˚" />
<glyph horiz-adv-x="840" d="M 625 6 L 625 0 L 467 -145 C 442 -164 424 -182 412 -198 C 400 -214 395 -233 395 -256 C 395 -274 398 -289 404 -301 C 410 -313 419 -322 430 -330 C 440 -337 452 -342 465 -345 C 478 -348 492 -350 506 -350 C 516 -350 528 -349 540 -348 C 552 -346 565 -344 577 -342 C 589 -339 600 -336 611 -333 C 621 -329 630 -326 637 -322 L 655 -414 C 637 -426 616 -435 590 -441 C 564 -447 536 -451 506 -451 C 437 -451 383 -434 343 -401 C 303 -368 283 -322 283 -262 C 283 -242 285 -225 290 -209 C 294 -193 301 -178 309 -164 C 317 -150 326 -138 337 -126 C 347 -114 359 -103 371 -92 C 383 -82 395 -73 405 -65 C 415 -57 424 -50 433 -43 C 442 -35 451 -28 461 -20 C 471 -12 482 -4 494 6 L 625 6 Z" unicode="˛" />
<glyph horiz-adv-x="840" d="M 152 1393 C 168 1409 183 1422 197 1432 C 211 1442 224 1451 236 1457 C 248 1463 259 1467 270 1469 C 281 1471 292 1473 303 1473 C 315 1473 326 1471 337 1469 C 348 1467 359 1463 370 1457 C 381 1451 393 1443 405 1433 C 417 1423 431 1411 446 1397 L 487 1360 C 513 1334 536 1321 557 1321 C 569 1321 581 1324 593 1330 C 605 1336 620 1348 639 1366 L 692 1419 L 764 1370 L 692 1298 C 676 1282 661 1268 647 1258 C 633 1248 620 1240 608 1234 C 596 1228 584 1224 573 1222 C 562 1220 551 1219 541 1219 C 529 1219 517 1220 506 1222 C 495 1224 484 1228 473 1234 C 461 1240 449 1247 437 1257 C 425 1267 411 1279 397 1294 L 356 1333 C 344 1344 332 1353 321 1361 C 309 1368 298 1372 287 1372 C 274 1372 262 1368 250 1361 C 238 1354 223 1342 205 1325 L 152 1272 L 80 1323 L 152 1393 Z" unicode="˜" />
<glyph horiz-adv-x="840" d="M 455 1530 L 455 1481 L 283 1231 L 221 1231 L 221 1274 L 340 1530 L 455 1530 Z M 780 1530 L 780 1481 L 592 1231 L 530 1231 L 530 1274 L 668 1530 L 780 1530 Z" unicode="˝" />
<glyph horiz-adv-x="1444" d="M 817 1446 L 1323 113 L 1323 0 L 119 0 L 119 109 L 627 1446 L 817 1446 Z M 670 1184 L 266 119 L 1178 119 L 776 1184 L 729 1323 L 717 1323 L 670 1184 Z" unicode="Δ" />
<glyph horiz-adv-x="1585" d="M 164 121 L 403 121 L 457 117 L 457 125 C 414 157 374 193 336 231 C 298 269 264 312 235 360 C 206 408 183 461 166 521 C 149 581 141 649 141 725 C 141 849 157 957 191 1050 C 225 1143 271 1220 330 1282 C 388 1344 457 1390 537 1421 C 616 1452 701 1468 793 1468 C 884 1468 969 1452 1049 1421 C 1129 1390 1198 1344 1257 1282 C 1315 1220 1361 1143 1395 1050 C 1429 957 1446 849 1446 725 C 1446 649 1437 581 1420 521 C 1403 461 1380 408 1351 360 C 1322 312 1289 269 1251 231 C 1213 193 1172 157 1130 125 L 1130 117 L 1184 121 L 1423 121 L 1423 0 L 887 0 L 887 96 C 952 116 1010 145 1062 184 C 1114 223 1158 270 1194 324 C 1230 378 1257 438 1276 506 C 1295 574 1305 647 1305 725 C 1305 820 1293 906 1271 984 C 1249 1061 1216 1127 1173 1182 C 1129 1237 1076 1279 1013 1309 C 949 1339 877 1354 795 1354 C 711 1354 638 1339 574 1309 C 510 1279 457 1237 414 1182 C 371 1127 338 1061 316 984 C 294 906 283 820 283 725 C 283 647 292 574 311 506 C 330 438 357 378 393 324 C 428 270 471 223 523 184 C 574 145 632 116 698 96 L 698 0 L 164 0 L 164 121 Z" unicode="Ω" />
<glyph horiz-adv-x="1186" d="M 870 184 C 851 147 829 116 805 91 C 781 65 754 45 726 29 C 698 13 668 1 636 -5 C 604 -12 572 -16 539 -16 C 515 -16 492 -13 469 -8 C 446 -2 424 5 404 15 C 384 25 365 37 349 52 C 332 67 319 84 309 104 L 301 98 L 315 -55 L 315 -451 L 184 -451 L 184 1053 L 313 1053 L 313 334 C 313 306 317 278 326 250 C 334 222 349 196 369 173 C 389 149 415 130 448 116 C 480 101 521 94 569 94 C 616 94 658 101 694 117 C 730 133 761 153 786 177 C 811 201 830 227 843 257 C 855 286 862 314 862 342 L 862 1053 L 991 1053 L 991 264 C 991 230 992 199 996 171 C 1000 143 1004 118 1010 96 C 1016 74 1022 56 1029 40 C 1036 24 1043 10 1049 0 L 920 0 C 916 6 911 16 906 29 C 900 41 895 56 890 72 C 885 88 881 106 877 125 C 873 144 870 164 870 184 Z" unicode="μ" />
<glyph horiz-adv-x="1272" d="M 848 913 L 412 913 L 412 0 L 283 0 L 283 913 L 121 913 L 121 1053 L 1130 1053 L 1130 913 L 977 913 L 977 274 C 977 203 983 145 996 101 C 1009 56 1022 22 1034 0 L 893 0 C 885 20 875 51 864 93 C 853 135 848 188 848 254 L 848 913 Z" unicode="π" />
<glyph horiz-adv-x="1167" d="M 1085 621 L 1085 520 L 82 520 L 82 621 L 1085 621 Z" unicode="–" />
<glyph horiz-adv-x="2048" d="M 1966 621 L 1966 520 L 82 520 L 82 621 L 1966 621 Z" unicode="—" />
<glyph horiz-adv-x="422" d="M 51 954 L 258 1446 L 375 1446 L 217 954 L 51 954 Z" unicode="‘" />
<glyph horiz-adv-x="422" d="M 371 1446 L 164 954 L 47 954 L 205 1446 L 371 1446 Z" unicode="’" />
<glyph horiz-adv-x="422" d="M 373 219 L 166 -272 L 49 -272 L 207 219 L 373 219 Z" unicode="‚" />
<glyph horiz-adv-x="776" d="M 406 954 L 614 1446 L 731 1446 L 571 954 L 406 954 Z M 51 954 L 258 1446 L 375 1446 L 217 954 L 51 954 Z" unicode="“" />
<glyph horiz-adv-x="776" d="M 371 1446 L 164 954 L 47 954 L 205 1446 L 371 1446 Z M 725 1446 L 518 954 L 401 954 L 559 1446 L 725 1446 Z" unicode="”" />
<glyph horiz-adv-x="776" d="M 373 219 L 166 -272 L 49 -272 L 207 219 L 373 219 Z M 727 219 L 520 -272 L 403 -272 L 561 219 L 727 219 Z" unicode="„" />
<glyph horiz-adv-x="897" d="M 514 1446 L 514 1362 L 479 1157 L 489 1147 L 670 1180 L 756 1180 L 756 1051 L 672 1051 L 489 1087 L 479 1073 L 514 393 L 514 307 L 385 307 L 385 393 L 418 1073 L 408 1087 L 223 1051 L 139 1051 L 139 1180 L 223 1180 L 408 1147 L 420 1157 L 385 1362 L 385 1446 L 514 1446 Z" unicode="†" />
<glyph horiz-adv-x="897" d="M 514 1446 L 514 1362 L 477 1159 L 492 1145 L 670 1180 L 756 1180 L 756 1051 L 672 1051 L 492 1087 L 479 1069 L 516 944 L 516 815 L 477 688 L 492 668 L 670 705 L 756 705 L 756 575 L 672 575 L 492 610 L 477 598 L 514 393 L 514 307 L 385 307 L 385 393 L 422 598 L 408 610 L 223 575 L 139 575 L 139 705 L 223 705 L 408 668 L 422 690 L 385 813 L 385 942 L 422 1071 L 408 1087 L 223 1051 L 139 1051 L 139 1180 L 223 1180 L 408 1145 L 422 1159 L 385 1362 L 385 1446 L 514 1446 Z" unicode="‡" />
<glyph horiz-adv-x="797" d="M 399 842 C 439 842 476 835 509 823 C 541 811 569 793 592 770 C 615 747 633 719 645 687 C 657 654 664 618 664 578 C 664 537 657 500 645 468 C 633 435 615 407 592 384 C 569 360 541 342 509 330 C 476 317 439 311 399 311 C 359 311 322 317 289 330 C 256 342 228 360 205 384 C 182 407 164 435 152 468 C 139 500 133 537 133 578 C 133 618 139 654 152 687 C 164 719 182 747 205 770 C 228 793 256 811 289 823 C 322 835 359 842 399 842 Z" unicode="•" />
<glyph horiz-adv-x="2048" d="M 502 219 L 502 0 L 330 0 L 330 219 L 502 219 Z M 1108 219 L 1108 0 L 938 0 L 938 219 L 1108 219 Z M 1716 219 L 1716 0 L 1544 0 L 1544 219 L 1716 219 Z" unicode="…" />
<glyph horiz-adv-x="2544" d="M 1339 1364 L 563 0 L 455 0 L 1231 1364 L 1339 1364 Z M 416 1376 C 474 1376 523 1366 564 1346 C 604 1326 637 1298 663 1264 C 688 1230 706 1190 718 1144 C 729 1098 735 1050 735 999 C 735 937 728 881 715 832 C 701 782 681 741 655 707 C 628 673 595 647 555 629 C 515 611 468 602 416 602 C 355 602 304 613 264 636 C 223 658 190 688 165 726 C 140 763 122 805 112 852 C 101 899 96 947 96 997 C 96 1123 122 1218 176 1281 C 230 1344 310 1376 416 1376 Z M 416 1284 C 373 1284 338 1276 311 1261 C 283 1245 262 1224 246 1198 C 230 1172 218 1141 212 1107 C 206 1073 203 1037 203 999 C 203 979 204 957 206 934 C 208 910 211 887 217 865 C 222 842 230 820 240 799 C 250 778 262 760 278 744 C 294 728 313 716 336 706 C 358 696 385 692 416 692 C 458 692 493 700 521 718 C 549 736 570 759 586 788 C 601 817 612 850 618 886 C 624 922 627 959 627 997 C 627 1029 624 1063 619 1097 C 613 1131 603 1161 588 1189 C 572 1217 551 1239 524 1257 C 496 1275 460 1284 416 1284 Z M 1372 762 C 1430 762 1480 752 1521 732 C 1561 712 1594 684 1620 650 C 1645 616 1663 576 1675 530 C 1686 484 1692 436 1692 385 C 1692 322 1685 266 1671 217 C 1657 168 1637 127 1611 93 C 1584 59 1551 33 1511 15 C 1471 -3 1424 -12 1372 -12 C 1311 -12 1260 0 1220 22 C 1179 44 1146 74 1122 111 C 1097 148 1079 190 1069 238 C 1058 285 1053 333 1053 383 C 1053 635 1159 762 1372 762 Z M 1372 670 C 1329 670 1294 662 1267 647 C 1239 631 1218 610 1202 584 C 1186 558 1174 527 1168 493 C 1162 459 1159 423 1159 385 C 1159 354 1161 321 1166 285 C 1171 249 1181 215 1196 185 C 1211 154 1233 128 1261 108 C 1289 88 1326 78 1372 78 C 1414 78 1449 86 1477 104 C 1505 122 1526 145 1542 174 C 1557 202 1568 235 1574 272 C 1580 308 1583 345 1583 383 C 1583 415 1580 449 1575 483 C 1569 517 1559 547 1544 575 C 1528 603 1507 625 1480 643 C 1452 661 1416 670 1372 670 Z M 2126 766 C 2184 766 2233 756 2274 736 C 2314 716 2347 688 2373 654 C 2398 620 2416 580 2428 534 C 2439 488 2445 440 2445 389 C 2445 326 2438 270 2425 221 C 2411 172 2391 131 2365 97 C 2338 63 2305 37 2265 19 C 2225 1 2178 -8 2126 -8 C 2065 -8 2014 3 1974 26 C 1933 48 1900 78 1875 115 C 1850 152 1832 194 1822 242 C 1811 289 1806 337 1806 387 C 1806 513 1832 608 1886 671 C 1940 734 2020 766 2126 766 Z M 2126 674 C 2083 674 2048 666 2021 650 C 1993 634 1972 613 1956 587 C 1940 561 1930 530 1924 496 C 1918 461 1915 425 1915 387 C 1915 357 1917 324 1922 288 C 1927 252 1937 219 1952 189 C 1967 158 1988 132 2016 112 C 2044 92 2080 82 2126 82 C 2169 82 2204 90 2232 108 C 2260 126 2281 149 2297 178 C 2313 207 2324 240 2330 276 C 2336 312 2339 349 2339 387 C 2339 419 2336 453 2330 487 C 2324 521 2314 551 2299 579 C 2283 607 2262 629 2234 647 C 2206 665 2170 674 2126 674 Z" unicode="‰" />
<glyph horiz-adv-x="610" d="M 453 887 L 178 578 L 453 268 L 315 268 L 78 526 L 78 631 L 315 887 L 453 887 Z" unicode="‹" />
<glyph horiz-adv-x="610" d="M 295 887 L 532 631 L 532 526 L 293 268 L 156 268 L 430 578 L 156 887 L 295 887 Z" unicode="›" />
<glyph horiz-adv-x="344" d="M 614 1364 L -162 0 L -268 0 L 508 1364 L 614 1364 Z" unicode="⁄" />
<glyph horiz-adv-x="780" d="M 389 1376 C 443 1376 490 1364 528 1341 C 566 1317 596 1286 620 1247 C 644 1207 661 1162 672 1111 C 682 1059 688 1006 688 950 C 688 801 662 690 612 616 C 561 542 487 506 389 506 C 333 506 285 518 247 543 C 209 568 178 601 155 642 C 131 683 115 730 105 784 C 95 837 90 892 90 948 C 90 1091 115 1198 166 1269 C 217 1340 291 1376 389 1376 Z M 389 1284 C 351 1284 319 1274 295 1256 C 271 1238 251 1213 237 1182 C 223 1151 213 1115 207 1075 C 201 1035 199 993 199 950 C 199 914 201 875 205 833 C 209 791 218 753 232 718 C 245 683 264 654 289 631 C 314 607 347 596 389 596 C 427 596 459 605 484 625 C 508 645 528 671 542 704 C 556 737 566 775 572 817 C 577 859 580 902 580 948 C 580 984 577 1022 573 1062 C 568 1102 559 1138 545 1171 C 531 1204 512 1231 487 1252 C 462 1273 429 1284 389 1284 Z" unicode="⁰" />
<glyph horiz-adv-x="756" d="M 559 1364 L 559 793 L 698 793 L 698 705 L 559 705 L 559 516 L 451 516 L 451 705 L 59 705 L 59 809 L 446 1364 L 559 1364 Z M 143 793 L 451 793 L 451 1139 L 459 1229 L 453 1231 L 143 793 Z" unicode="⁴" />
<glyph horiz-adv-x="745" d="M 197 588 C 309 588 395 607 456 645 C 516 683 547 743 547 823 C 547 843 544 864 539 884 C 534 904 526 922 514 938 C 502 954 486 966 466 976 C 446 986 421 991 391 991 C 375 991 359 989 343 987 C 327 984 311 979 295 973 C 278 966 260 957 242 946 C 223 934 203 920 182 903 L 121 930 L 152 1364 L 629 1364 L 625 1272 L 238 1272 L 217 1004 C 237 1018 255 1031 272 1041 C 288 1051 304 1059 320 1065 C 336 1071 351 1075 366 1077 C 381 1079 397 1081 414 1081 C 454 1081 489 1074 519 1062 C 549 1049 574 1031 594 1009 C 614 986 628 959 638 928 C 648 897 653 863 653 827 C 653 765 641 713 617 671 C 593 628 560 593 519 567 C 478 541 430 522 374 510 C 318 498 259 492 197 492 C 179 492 165 492 155 493 C 144 494 135 496 127 498 L 121 592 C 131 590 142 589 154 589 C 166 588 180 588 197 588 Z" unicode="⁵" />
<glyph horiz-adv-x="764" d="M 506 1393 C 525 1393 542 1392 556 1391 C 570 1389 583 1387 594 1384 C 594 1370 594 1357 594 1343 C 594 1329 594 1312 596 1294 C 585 1295 571 1296 554 1297 C 537 1297 521 1298 506 1298 C 412 1298 339 1269 288 1212 C 236 1155 205 1068 193 952 C 219 987 252 1014 292 1033 C 331 1051 372 1061 416 1061 C 454 1061 489 1055 521 1043 C 553 1031 581 1013 605 990 C 629 967 647 939 661 906 C 675 873 682 835 682 793 C 682 746 674 705 659 669 C 644 633 623 603 597 579 C 570 555 539 536 503 524 C 467 512 427 506 385 506 C 341 506 301 512 265 525 C 228 537 196 558 170 587 C 143 615 122 652 108 698 C 93 744 86 800 86 866 C 86 909 89 952 95 996 C 101 1039 110 1080 124 1119 C 137 1158 154 1194 176 1228 C 198 1261 224 1290 255 1314 C 286 1338 322 1358 364 1372 C 405 1386 452 1393 506 1393 Z M 197 866 C 195 856 193 846 193 837 C 193 828 193 818 193 807 C 193 777 197 749 205 723 C 213 697 226 675 242 656 C 258 636 279 621 304 610 C 328 599 357 594 389 594 C 443 594 488 610 522 643 C 556 675 573 723 573 786 C 573 846 556 892 523 924 C 490 956 445 973 389 973 C 367 973 347 970 327 964 C 307 958 289 951 273 942 C 256 932 241 921 228 908 C 215 894 205 880 197 866 Z" unicode="⁶" />
<glyph horiz-adv-x="684" d="M 639 1364 L 639 1282 C 619 1260 592 1229 558 1189 C 524 1148 490 1096 455 1034 C 420 971 387 897 356 811 C 325 725 303 627 289 516 L 170 516 C 181 606 201 691 230 771 C 258 851 290 923 325 988 C 359 1052 394 1109 430 1157 C 465 1205 495 1244 520 1272 L 68 1272 L 68 1364 L 639 1364 Z" unicode="⁷" />
<glyph horiz-adv-x="791" d="M 258 965 C 244 967 229 973 213 982 C 197 991 181 1003 167 1019 C 153 1035 141 1054 131 1076 C 121 1098 117 1123 117 1151 C 117 1179 123 1207 135 1234 C 147 1260 165 1284 189 1304 C 213 1324 242 1341 276 1353 C 310 1365 350 1372 395 1372 C 439 1372 479 1365 514 1353 C 548 1341 577 1324 601 1304 C 625 1284 643 1260 655 1234 C 667 1207 674 1179 674 1151 C 674 1123 669 1098 659 1076 C 649 1054 636 1035 622 1019 C 607 1003 591 991 575 982 C 558 973 543 967 530 965 L 530 956 C 548 954 567 948 587 938 C 607 928 625 915 641 899 C 657 882 671 862 682 838 C 692 814 698 786 698 756 C 698 713 690 676 674 645 C 658 613 637 587 610 567 C 582 546 550 531 514 521 C 477 511 437 506 395 506 C 351 506 311 511 275 521 C 238 531 206 546 179 567 C 151 587 130 613 115 645 C 99 676 92 713 92 756 C 92 786 97 814 108 838 C 118 862 132 882 148 899 C 164 915 181 928 201 938 C 221 948 240 954 258 956 L 258 965 Z M 221 1141 C 221 1121 224 1102 232 1084 C 239 1066 250 1051 264 1038 C 278 1025 296 1015 318 1008 C 340 1000 365 997 395 997 C 423 997 448 1000 470 1008 C 492 1015 510 1025 525 1038 C 539 1051 550 1066 558 1084 C 565 1102 569 1121 569 1141 C 569 1160 565 1178 557 1196 C 549 1214 538 1229 524 1243 C 509 1257 491 1268 469 1276 C 447 1284 423 1288 395 1288 C 367 1288 342 1284 320 1276 C 298 1268 280 1257 266 1243 C 251 1229 240 1214 232 1196 C 224 1178 221 1160 221 1141 Z M 395 592 C 461 592 510 607 542 638 C 574 668 590 710 590 762 C 590 784 586 804 579 823 C 572 841 561 857 545 871 C 529 885 509 895 485 903 C 460 911 430 915 395 915 C 359 915 329 911 305 903 C 281 895 261 885 246 871 C 230 857 219 841 213 823 C 206 804 203 784 203 762 C 203 710 218 668 249 638 C 279 607 328 592 395 592 Z" unicode="⁸" />
<glyph horiz-adv-x="764" d="M 258 492 C 238 492 221 492 207 494 C 192 495 180 498 170 502 C 170 514 170 528 170 545 C 170 562 169 577 168 590 C 178 588 191 588 209 588 C 226 588 242 588 258 588 C 442 588 547 703 571 934 C 544 898 511 871 472 853 C 432 834 391 825 348 825 C 310 825 274 831 242 843 C 210 855 182 872 158 895 C 134 917 116 945 102 978 C 88 1011 82 1049 82 1092 C 82 1138 89 1179 105 1215 C 120 1251 141 1281 167 1305 C 193 1329 225 1348 261 1361 C 297 1373 337 1380 379 1380 C 422 1380 462 1373 499 1360 C 535 1347 567 1326 593 1298 C 619 1269 640 1232 655 1186 C 670 1140 678 1085 678 1020 C 678 954 671 890 657 827 C 643 763 619 707 587 657 C 554 607 511 567 457 537 C 403 507 337 492 258 492 Z M 567 1020 C 569 1029 570 1038 571 1047 C 572 1056 573 1067 573 1079 C 573 1109 568 1136 560 1162 C 551 1188 538 1210 522 1230 C 505 1249 484 1264 460 1275 C 435 1286 407 1292 375 1292 C 320 1292 276 1275 243 1243 C 209 1210 193 1162 193 1100 C 193 1039 209 993 241 961 C 273 929 319 913 377 913 C 397 913 417 915 437 921 C 457 926 475 933 491 943 C 507 952 522 963 535 977 C 548 990 559 1004 567 1020 Z" unicode="⁹" />
<glyph horiz-adv-x="444" d="M 346 313 C 317 333 287 362 255 398 C 223 434 194 477 168 527 C 142 577 120 632 103 694 C 86 755 78 821 78 891 C 78 959 86 1023 103 1083 C 120 1143 142 1197 168 1246 C 194 1295 223 1338 255 1374 C 287 1410 317 1439 346 1460 L 422 1460 L 422 1442 C 390 1418 360 1388 331 1350 C 302 1312 276 1268 254 1220 C 231 1172 213 1120 200 1064 C 186 1008 180 950 180 891 C 180 829 186 770 200 713 C 213 656 231 603 254 554 C 276 505 302 461 331 423 C 360 385 390 354 422 332 L 422 313 L 346 313 Z" unicode="⁽" />
<glyph horiz-adv-x="444" d="M 23 313 L 23 332 C 53 354 83 385 112 423 C 140 461 166 505 189 554 C 211 603 229 656 243 713 C 257 770 264 829 264 891 C 264 950 257 1008 243 1064 C 229 1120 211 1172 189 1220 C 166 1268 140 1312 112 1350 C 83 1388 53 1418 23 1442 L 23 1460 L 98 1460 C 126 1439 155 1410 187 1374 C 218 1338 247 1295 273 1246 C 299 1197 321 1143 339 1083 C 356 1023 365 959 365 891 C 365 821 356 755 339 694 C 321 632 299 577 273 527 C 247 477 218 434 187 398 C 155 362 126 333 98 313 L 23 313 Z" unicode="⁾" />
<glyph horiz-adv-x="918" d="M 672 645 L 672 1186 C 672 1214 668 1239 661 1262 C 654 1285 642 1306 625 1325 C 609 1340 590 1352 566 1362 C 542 1371 513 1376 479 1376 C 445 1376 414 1370 387 1359 C 360 1347 337 1333 319 1315 C 300 1297 286 1277 276 1255 C 266 1233 262 1212 262 1192 L 262 645 L 150 645 L 150 1315 L 133 1458 L 240 1458 L 254 1319 C 285 1376 323 1416 367 1439 C 411 1461 460 1473 512 1473 C 556 1473 594 1466 628 1452 C 662 1438 690 1419 713 1395 C 737 1370 756 1339 768 1303 C 780 1266 786 1221 786 1169 L 786 645 L 672 645 Z" unicode="ⁿ" />
<glyph horiz-adv-x="780" d="M 389 604 C 443 604 490 592 528 569 C 566 545 596 514 620 475 C 644 435 661 390 672 339 C 682 287 688 234 688 178 C 688 29 662 -81 612 -155 C 561 -229 487 -266 389 -266 C 333 -266 285 -253 247 -228 C 209 -203 178 -170 155 -129 C 131 -88 115 -41 105 12 C 95 65 90 120 90 176 C 90 319 115 426 166 497 C 217 568 291 604 389 604 Z M 389 512 C 351 512 319 502 295 484 C 271 466 251 441 237 410 C 223 379 213 343 207 303 C 201 263 199 221 199 178 C 199 142 201 103 205 61 C 209 19 218 -18 232 -53 C 245 -88 264 -117 289 -141 C 314 -164 347 -176 389 -176 C 427 -176 459 -166 484 -146 C 508 -126 528 -100 542 -67 C 556 -34 566 3 572 45 C 577 87 580 130 580 176 C 580 212 577 250 573 290 C 568 330 559 366 545 399 C 531 432 512 459 487 480 C 462 501 429 512 389 512 Z" unicode="₀" />
<glyph horiz-adv-x="500" d="M 236 592 L 326 592 L 317 506 L 317 -256 L 209 -256 L 209 469 L 213 494 L 209 494 L 70 434 L 70 530 L 236 592 Z" unicode="₁" />
<glyph horiz-adv-x="766" d="M 659 -256 L 100 -256 L 100 -160 L 424 162 C 439 178 454 193 468 209 C 482 225 494 241 505 258 C 516 274 525 291 531 308 C 537 324 541 342 541 360 C 541 379 537 398 530 417 C 522 435 512 452 498 466 C 484 480 466 492 446 501 C 426 509 403 514 377 514 C 293 514 229 468 184 377 L 94 412 C 104 435 117 458 134 481 C 150 504 171 525 195 543 C 219 561 246 575 278 587 C 310 598 346 604 387 604 C 428 604 465 597 498 585 C 530 573 558 556 581 534 C 603 512 621 487 633 458 C 645 429 651 398 651 365 C 651 341 647 318 641 297 C 634 275 625 255 614 235 C 602 215 588 196 572 178 C 556 160 538 141 520 123 L 227 -166 L 659 -166 L 659 -256 Z" unicode="₂" />
<glyph horiz-adv-x="745" d="M 76 451 C 88 469 102 487 120 505 C 138 523 158 539 182 554 C 205 568 231 580 261 590 C 291 599 324 604 360 604 C 394 604 427 599 458 590 C 489 580 516 567 540 550 C 563 532 581 511 595 485 C 609 459 616 431 616 399 C 616 374 612 352 604 332 C 596 312 586 295 574 280 C 562 265 547 253 531 243 C 514 233 497 225 479 219 L 479 211 C 500 208 521 202 541 192 C 561 182 580 169 596 153 C 612 137 624 117 634 94 C 644 71 649 45 649 16 C 649 -34 636 -77 611 -115 C 586 -152 552 -183 509 -208 C 466 -233 416 -252 359 -264 C 301 -276 240 -283 176 -283 C 144 -283 122 -280 109 -276 L 102 -182 C 110 -183 121 -184 134 -185 C 146 -185 160 -186 176 -186 C 232 -186 282 -181 327 -172 C 372 -162 410 -149 442 -131 C 473 -113 497 -92 514 -67 C 530 -42 539 -14 539 18 C 539 41 534 61 526 78 C 517 94 506 108 492 119 C 478 129 462 137 444 142 C 426 147 407 150 389 150 C 385 150 381 149 376 149 C 370 148 362 147 352 146 C 341 144 327 142 311 140 C 294 137 272 133 246 129 L 229 213 L 330 229 C 353 233 375 239 397 248 C 419 256 438 267 454 281 C 470 294 483 309 493 327 C 503 345 508 365 508 387 C 508 424 493 455 465 479 C 437 503 399 516 352 516 C 332 516 315 513 299 509 C 283 504 267 497 252 488 C 237 479 222 468 207 455 C 191 441 175 426 158 408 L 76 451 L 76 451 Z" unicode="₃" />
<glyph horiz-adv-x="756" d="M 559 592 L 559 20 L 698 20 L 698 -68 L 559 -68 L 559 -256 L 451 -256 L 451 -68 L 59 -68 L 59 37 L 446 592 L 559 592 Z M 143 20 L 451 20 L 451 367 L 459 457 L 453 459 L 143 20 Z" unicode="₄" />
<glyph horiz-adv-x="745" d="M 197 -186 C 308 -186 394 -166 455 -128 C 516 -90 547 -31 547 49 C 547 69 544 90 539 110 C 534 130 526 148 514 164 C 502 180 486 192 466 202 C 446 212 421 217 391 217 C 375 217 359 215 343 213 C 327 210 311 205 295 199 C 278 192 260 183 242 172 C 223 160 203 146 182 129 L 121 156 L 152 592 L 629 592 L 625 500 L 238 500 L 217 229 C 237 243 255 256 272 266 C 288 276 304 284 320 290 C 336 296 351 300 366 303 C 381 305 397 307 414 307 C 454 307 489 300 519 288 C 549 275 574 257 594 235 C 614 212 628 185 638 154 C 648 123 653 89 653 53 C 653 -8 641 -60 617 -103 C 593 -145 560 -180 519 -207 C 478 -233 430 -253 374 -265 C 318 -277 259 -283 197 -283 C 179 -283 165 -282 155 -281 C 144 -280 135 -278 127 -276 L 121 -182 C 131 -183 142 -184 154 -185 C 166 -185 180 -186 197 -186 Z" unicode="₅" />
<glyph horiz-adv-x="764" d="M 506 621 C 543 621 572 618 594 612 C 594 598 594 585 594 571 C 594 557 594 540 596 522 C 585 523 571 524 554 525 C 537 525 521 526 506 526 C 412 526 339 497 288 440 C 236 383 205 296 193 180 C 219 215 252 242 292 261 C 331 279 372 289 416 289 C 454 289 489 283 521 271 C 553 259 581 241 605 218 C 629 195 647 167 661 134 C 675 100 682 62 682 20 C 682 -26 674 -67 659 -103 C 644 -139 623 -169 597 -193 C 570 -217 539 -235 503 -247 C 467 -259 427 -266 385 -266 C 341 -266 301 -259 265 -247 C 228 -234 196 -213 170 -185 C 143 -156 122 -119 108 -73 C 93 -27 86 28 86 94 C 86 137 89 180 95 224 C 101 267 110 308 124 347 C 137 386 154 422 176 456 C 198 489 224 518 255 542 C 286 566 322 586 364 600 C 405 614 452 621 506 621 Z M 197 94 C 195 84 193 74 193 65 C 193 56 193 46 193 35 C 193 5 197 -22 205 -48 C 213 -74 226 -96 242 -116 C 258 -135 279 -150 304 -161 C 328 -172 357 -178 389 -178 C 443 -178 488 -161 522 -129 C 556 -96 573 -48 573 14 C 573 74 556 120 523 152 C 490 184 445 201 389 201 C 367 201 347 198 327 192 C 307 186 289 179 273 170 C 256 160 241 149 228 136 C 215 122 205 108 197 94 Z" unicode="₆" />
<glyph horiz-adv-x="684" d="M 639 592 L 639 510 C 619 488 592 457 558 417 C 524 376 490 324 455 262 C 420 199 387 125 356 39 C 325 -47 303 -145 289 -256 L 170 -256 C 181 -165 201 -80 230 -1 C 258 78 290 150 325 215 C 359 280 394 337 430 385 C 465 433 495 472 520 500 L 68 500 L 68 592 L 639 592 Z" unicode="₇" />
<glyph horiz-adv-x="791" d="M 258 193 C 244 195 229 201 213 210 C 197 219 181 231 167 247 C 153 263 141 282 131 304 C 121 326 117 351 117 379 C 117 407 123 435 135 462 C 147 488 165 512 189 532 C 213 552 242 569 276 581 C 310 593 350 600 395 600 C 439 600 479 593 514 581 C 548 569 577 552 601 532 C 625 512 643 488 655 462 C 667 435 674 407 674 379 C 674 351 669 326 659 304 C 649 282 636 263 622 247 C 607 231 591 219 575 210 C 558 201 543 195 530 193 L 530 184 C 548 182 567 176 587 166 C 607 156 625 143 641 126 C 657 109 671 89 682 65 C 692 41 698 14 698 -16 C 698 -58 690 -95 674 -127 C 658 -158 637 -184 610 -205 C 582 -225 550 -241 514 -251 C 477 -261 437 -266 395 -266 C 351 -266 311 -261 275 -251 C 238 -241 206 -225 179 -205 C 151 -184 130 -158 115 -127 C 99 -95 92 -58 92 -16 C 92 14 97 41 108 65 C 118 89 132 109 148 126 C 164 143 181 156 201 166 C 221 176 240 182 258 184 L 258 193 Z M 221 369 C 221 349 224 330 232 312 C 239 294 250 279 264 266 C 278 253 296 243 318 236 C 340 228 365 225 395 225 C 423 225 448 228 470 236 C 492 243 510 253 525 266 C 539 279 550 294 558 312 C 565 330 569 349 569 369 C 569 388 565 406 557 424 C 549 442 538 457 524 471 C 509 485 491 496 469 504 C 447 512 423 516 395 516 C 367 516 342 512 320 504 C 298 496 280 485 266 471 C 251 457 240 442 232 424 C 224 406 221 388 221 369 Z M 395 -180 C 461 -180 510 -164 542 -134 C 574 -103 590 -62 590 -10 C 590 12 586 32 579 51 C 572 69 561 85 545 99 C 529 113 509 123 485 131 C 460 139 430 143 395 143 C 359 143 329 139 305 131 C 281 123 261 113 246 99 C 230 85 219 69 213 51 C 206 32 203 12 203 -10 C 203 -62 218 -103 249 -134 C 279 -164 328 -180 395 -180 Z" unicode="₈" />
<glyph horiz-adv-x="764" d="M 258 -285 C 238 -285 221 -284 207 -283 C 192 -281 180 -278 170 -274 C 170 -262 170 -247 170 -230 C 170 -213 169 -198 168 -186 C 178 -187 191 -188 209 -188 C 226 -188 242 -188 258 -188 C 442 -188 547 -72 571 158 C 544 122 511 95 472 77 C 432 58 391 49 348 49 C 310 49 274 54 242 66 C 210 78 182 95 158 118 C 134 140 116 168 102 201 C 88 234 82 272 82 315 C 82 361 89 403 105 439 C 120 475 141 505 167 529 C 193 553 225 572 261 585 C 297 597 337 604 379 604 C 422 604 462 597 499 584 C 535 571 567 550 593 522 C 619 493 640 456 655 410 C 670 364 678 309 678 244 C 678 178 671 114 657 51 C 643 -12 619 -68 587 -118 C 554 -168 511 -208 457 -239 C 403 -269 337 -285 258 -285 Z M 567 244 C 569 253 570 262 571 271 C 572 280 573 291 573 303 C 573 333 568 360 560 386 C 551 412 538 434 522 454 C 505 473 484 488 460 499 C 435 510 407 516 375 516 C 320 516 276 499 243 467 C 209 434 193 386 193 324 C 193 263 209 217 241 185 C 273 153 319 137 377 137 C 397 137 417 139 437 145 C 457 150 475 157 491 167 C 507 176 522 187 535 201 C 548 214 559 228 567 244 Z" unicode="₉" />
<glyph horiz-adv-x="1167" d="M 86 897 L 279 897 C 291 969 310 1034 336 1094 C 362 1154 395 1205 435 1249 C 475 1292 522 1326 577 1350 C 632 1374 695 1386 766 1386 C 791 1386 818 1384 846 1381 C 874 1377 901 1373 929 1367 C 956 1361 982 1354 1007 1346 C 1031 1338 1053 1329 1073 1319 L 1040 1212 C 1022 1220 1001 1228 979 1236 C 956 1243 932 1249 908 1255 C 883 1260 858 1264 833 1267 C 808 1270 784 1272 762 1272 C 710 1272 665 1262 627 1243 C 588 1224 555 1198 527 1165 C 499 1131 476 1092 458 1046 C 440 1000 427 951 418 897 L 889 897 L 889 797 L 406 797 C 403 779 401 761 401 743 C 401 725 401 707 401 690 C 401 671 401 652 401 634 C 401 615 403 597 406 580 L 889 580 L 889 479 L 416 479 C 424 425 437 374 454 327 C 471 280 493 239 519 205 C 545 170 577 143 613 123 C 649 103 691 94 739 94 C 801 94 858 99 908 110 C 958 121 1002 135 1040 152 L 1073 45 C 1053 35 1029 26 1002 18 C 975 10 947 3 917 -2 C 887 -8 856 -12 825 -15 C 794 -18 765 -20 737 -20 C 668 -20 607 -8 554 16 C 501 40 455 73 417 117 C 378 161 347 213 323 275 C 299 336 282 404 272 479 L 86 479 L 86 580 L 262 580 C 260 594 260 608 260 624 C 260 639 260 654 260 670 C 260 713 262 755 266 797 L 86 797 L 86 897 Z" unicode="€" />
<glyph horiz-adv-x="1167" d="M 868 63 C 852 51 833 40 812 30 C 791 20 769 11 746 5 C 722 -1 698 -6 674 -10 C 649 -14 624 -16 600 -16 C 560 -16 523 -10 491 0 C 458 9 430 25 407 46 C 384 67 366 94 354 126 C 342 158 336 196 336 240 L 336 371 L 180 254 L 180 387 L 336 502 L 336 1098 C 336 1168 343 1226 359 1274 C 375 1321 396 1359 422 1388 C 448 1416 479 1437 514 1449 C 549 1461 586 1468 625 1468 C 663 1468 699 1461 732 1449 C 765 1437 794 1417 818 1389 C 842 1361 860 1324 874 1280 C 888 1236 895 1182 895 1118 C 895 1058 888 1000 874 946 C 860 891 836 837 803 785 C 770 732 726 679 671 627 C 616 575 547 521 465 467 L 465 244 C 465 191 478 153 505 129 C 532 105 574 94 631 94 C 661 94 688 96 712 102 C 736 107 758 113 778 121 C 798 129 815 137 830 146 C 845 154 858 162 868 168 L 868 63 Z M 465 598 C 524 640 573 680 612 719 C 651 757 682 797 705 837 C 728 877 744 918 754 962 C 763 1006 768 1054 768 1106 C 768 1153 764 1193 757 1225 C 750 1257 740 1283 727 1303 C 714 1323 698 1337 680 1345 C 661 1353 640 1358 616 1358 C 594 1358 574 1354 556 1347 C 538 1340 522 1327 509 1309 C 495 1290 485 1265 477 1233 C 469 1201 465 1161 465 1112 L 465 598 Z" unicode="ℓ" />
<glyph horiz-adv-x="1839" d="M 1741 686 C 1741 609 1731 535 1711 464 C 1691 393 1662 327 1626 266 C 1589 204 1545 148 1494 98 C 1442 48 1385 5 1323 -30 C 1261 -66 1194 -93 1122 -113 C 1050 -133 976 -143 899 -143 C 822 -143 748 -133 677 -113 C 606 -93 540 -66 478 -30 C 416 5 359 48 308 98 C 257 148 213 204 177 266 C 141 327 113 393 93 464 C 73 535 63 609 63 686 C 63 762 73 835 93 905 C 113 975 141 1041 177 1102 C 213 1162 257 1218 308 1268 C 359 1318 416 1360 478 1396 C 540 1431 606 1458 677 1478 C 748 1497 822 1507 899 1507 C 976 1507 1050 1497 1122 1478 C 1194 1458 1261 1431 1323 1396 C 1385 1360 1442 1318 1494 1268 C 1545 1218 1589 1162 1626 1102 C 1662 1041 1691 975 1711 905 C 1731 835 1741 762 1741 686 Z M 1036 668 C 1054 668 1074 670 1095 675 C 1116 679 1135 687 1152 699 C 1169 711 1183 727 1195 747 C 1206 767 1212 793 1212 825 C 1212 856 1206 882 1194 902 C 1182 922 1167 937 1149 949 C 1131 960 1111 968 1090 972 C 1068 976 1048 979 1030 979 L 719 979 L 719 668 L 1036 668 Z M 719 557 L 719 313 L 594 313 L 594 1090 L 1001 1090 C 1023 1090 1046 1088 1072 1086 C 1098 1083 1123 1078 1148 1071 C 1173 1063 1197 1053 1220 1041 C 1243 1029 1263 1013 1281 994 C 1299 974 1313 951 1323 923 C 1333 895 1339 863 1339 827 C 1339 777 1329 736 1311 702 C 1293 668 1269 640 1241 618 C 1212 596 1180 581 1144 571 C 1108 561 1072 557 1038 557 L 719 557 Z M 899 -45 C 965 -45 1029 -36 1091 -19 C 1153 -1 1211 23 1265 55 C 1319 87 1368 125 1413 169 C 1457 213 1495 263 1527 317 C 1559 371 1583 430 1601 492 C 1619 554 1628 618 1628 686 C 1628 752 1619 817 1601 879 C 1583 941 1559 998 1527 1052 C 1495 1106 1457 1155 1413 1199 C 1368 1243 1319 1280 1265 1312 C 1211 1343 1153 1367 1091 1385 C 1029 1402 965 1411 899 1411 C 833 1411 769 1402 707 1385 C 645 1367 588 1343 535 1311 C 481 1279 432 1242 388 1198 C 344 1154 306 1105 275 1051 C 243 997 219 940 202 878 C 184 816 176 752 176 686 C 176 619 184 554 202 492 C 219 430 243 372 275 318 C 306 264 344 214 388 170 C 432 125 481 87 535 55 C 588 23 645 0 707 -18 C 769 -36 833 -45 899 -45 Z" unicode="℗" />
<glyph horiz-adv-x="1343" d="M 502 1446 L 502 1380 L 324 1380 L 324 860 L 246 860 L 246 1380 L 72 1380 L 72 1446 L 502 1446 Z M 750 1446 L 911 1055 L 920 1055 L 1081 1446 L 1204 1446 L 1204 860 L 1130 860 L 1130 1333 L 1133 1382 L 1124 1382 L 1110 1333 L 958 971 L 872 971 L 719 1333 L 705 1382 L 698 1382 L 700 1333 L 700 860 L 627 860 L 627 1446 L 750 1446 Z" unicode="™" />
<glyph horiz-adv-x="1585" d="M 164 121 L 403 121 L 457 117 L 457 125 C 414 157 374 193 336 231 C 298 269 264 312 235 360 C 206 408 183 461 166 521 C 149 581 141 649 141 725 C 141 849 157 957 191 1050 C 225 1143 271 1220 330 1282 C 388 1344 457 1390 537 1421 C 616 1452 701 1468 793 1468 C 884 1468 969 1452 1049 1421 C 1129 1390 1198 1344 1257 1282 C 1315 1220 1361 1143 1395 1050 C 1429 957 1446 849 1446 725 C 1446 649 1437 581 1420 521 C 1403 461 1380 408 1351 360 C 1322 312 1289 269 1251 231 C 1213 193 1172 157 1130 125 L 1130 117 L 1184 121 L 1423 121 L 1423 0 L 887 0 L 887 96 C 952 116 1010 145 1062 184 C 1114 223 1158 270 1194 324 C 1230 378 1257 438 1276 506 C 1295 574 1305 647 1305 725 C 1305 820 1293 906 1271 984 C 1249 1061 1216 1127 1173 1182 C 1129 1237 1076 1279 1013 1309 C 949 1339 877 1354 795 1354 C 711 1354 638 1339 574 1309 C 510 1279 457 1237 414 1182 C 371 1127 338 1061 316 984 C 294 906 283 820 283 725 C 283 647 292 574 311 506 C 330 438 357 378 393 324 C 428 270 471 223 523 184 C 574 145 632 116 698 96 L 698 0 L 164 0 L 164 121 Z" unicode="Ω" />
<glyph horiz-adv-x="1626" d="M 369 641 C 369 635 370 632 373 631 C 376 629 379 629 383 629 L 1241 629 C 1244 629 1247 629 1251 631 C 1255 632 1257 635 1257 641 L 1257 926 C 1257 932 1256 938 1255 945 C 1253 951 1250 958 1245 965 C 1223 995 1196 1021 1165 1045 C 1134 1069 1100 1089 1063 1105 C 1026 1121 987 1133 945 1142 C 903 1150 859 1155 815 1155 C 779 1155 740 1150 698 1141 C 656 1131 614 1118 574 1101 C 533 1084 496 1064 462 1041 C 428 1017 403 992 385 965 C 381 958 377 951 374 945 C 370 938 369 932 369 926 L 369 641 Z M 369 283 C 369 272 369 262 371 253 C 372 244 377 235 385 227 C 447 164 515 117 589 87 C 663 56 739 41 815 41 C 857 41 900 45 942 53 C 984 61 1025 73 1064 89 C 1103 105 1140 125 1175 149 C 1210 173 1242 202 1272 236 L 1368 236 C 1332 192 1293 154 1250 122 C 1207 90 1162 64 1114 44 C 1066 24 1017 9 967 -1 C 916 -11 865 -16 815 -16 C 758 -16 702 -9 646 4 C 590 18 537 37 487 63 C 436 88 389 119 346 155 C 302 191 265 232 233 278 C 201 323 177 372 159 426 C 141 480 132 537 133 598 C 133 660 142 719 160 774 C 178 828 203 878 235 924 C 267 969 304 1009 348 1045 C 391 1081 438 1111 489 1136 C 539 1160 592 1179 648 1192 C 703 1205 759 1212 815 1212 C 875 1212 934 1205 992 1191 C 1049 1177 1103 1158 1153 1132 C 1203 1106 1250 1075 1292 1037 C 1334 999 1370 957 1400 909 C 1430 861 1453 809 1470 752 C 1486 695 1495 634 1495 569 L 383 569 C 379 569 376 567 373 564 C 370 560 369 557 369 553 L 369 283 Z" unicode="℮" />
<glyph horiz-adv-x="1589" d="M 236 1364 L 326 1364 L 317 1278 L 317 516 L 209 516 L 209 1241 L 213 1266 L 209 1266 L 70 1206 L 70 1303 L 236 1364 Z M 1116 1364 L 340 0 L 231 0 L 1008 1364 L 1116 1364 Z M 922 707 C 934 725 948 743 966 761 C 984 779 1004 795 1028 810 C 1051 824 1077 836 1107 846 C 1137 855 1170 860 1206 860 C 1240 860 1272 855 1303 846 C 1334 836 1361 823 1384 806 C 1407 788 1425 767 1439 741 C 1453 715 1460 687 1460 655 C 1460 630 1456 608 1448 588 C 1440 568 1430 551 1418 536 C 1406 521 1391 509 1375 499 C 1358 489 1341 481 1323 475 L 1323 467 C 1345 464 1366 458 1386 448 C 1406 438 1425 425 1441 409 C 1457 393 1469 373 1479 350 C 1488 327 1493 301 1493 272 C 1493 222 1480 178 1455 141 C 1430 103 1396 72 1354 47 C 1311 22 1261 3 1203 -8 C 1145 -20 1084 -27 1020 -27 C 990 -27 968 -24 954 -20 L 946 74 C 955 72 966 71 978 71 C 990 70 1005 70 1022 70 C 1078 70 1128 74 1173 84 C 1218 93 1256 106 1287 124 C 1318 142 1342 163 1359 188 C 1375 213 1384 242 1384 274 C 1384 297 1379 317 1371 334 C 1362 350 1351 364 1337 375 C 1323 385 1307 393 1289 398 C 1271 403 1253 406 1235 406 C 1231 406 1227 405 1222 405 C 1216 404 1208 403 1198 402 C 1187 400 1173 398 1157 396 C 1140 393 1118 389 1092 385 L 1075 469 L 1176 485 C 1199 489 1221 495 1243 504 C 1265 512 1284 523 1300 537 C 1316 550 1329 565 1339 583 C 1349 601 1354 621 1354 643 C 1354 680 1339 711 1311 735 C 1283 759 1245 772 1198 772 C 1178 772 1161 769 1145 765 C 1129 760 1113 753 1098 744 C 1083 735 1068 724 1053 711 C 1037 697 1021 682 1004 664 L 922 707 Z" unicode="⅓" />
<glyph horiz-adv-x="1855" d="M 659 516 L 100 516 L 100 612 L 424 934 C 439 950 454 965 468 981 C 482 997 494 1013 505 1030 C 516 1046 525 1063 531 1080 C 537 1097 541 1115 541 1133 C 541 1152 537 1171 530 1189 C 522 1207 512 1224 498 1238 C 484 1252 466 1264 446 1273 C 426 1281 403 1286 377 1286 C 293 1286 229 1240 184 1149 L 94 1184 C 104 1207 117 1230 134 1253 C 150 1276 171 1297 195 1315 C 219 1333 246 1347 278 1359 C 310 1370 346 1376 387 1376 C 428 1376 465 1369 498 1357 C 530 1345 558 1328 581 1306 C 603 1284 621 1259 633 1230 C 645 1201 651 1170 651 1137 C 651 1113 647 1090 641 1069 C 634 1047 625 1027 614 1007 C 602 987 588 968 572 950 C 556 932 538 913 520 895 L 227 606 L 659 606 L 659 516 Z M 1380 1364 L 604 0 L 498 0 L 1274 1364 L 1380 1364 Z M 1186 707 C 1198 725 1213 743 1231 761 C 1249 779 1269 795 1293 810 C 1316 824 1342 836 1372 846 C 1402 855 1435 860 1473 860 C 1507 860 1539 855 1569 846 C 1599 836 1626 823 1650 806 C 1673 788 1691 767 1705 741 C 1719 715 1726 687 1726 655 C 1726 630 1722 608 1714 588 C 1706 568 1696 551 1684 536 C 1672 521 1657 509 1641 499 C 1624 489 1607 481 1589 475 L 1589 467 C 1611 464 1632 458 1652 448 C 1672 438 1691 425 1707 409 C 1723 393 1735 373 1745 350 C 1754 327 1759 301 1759 272 C 1759 222 1746 178 1721 141 C 1696 103 1662 72 1620 47 C 1577 22 1527 3 1469 -8 C 1411 -20 1350 -27 1286 -27 C 1256 -27 1233 -24 1219 -20 L 1212 74 C 1221 72 1232 71 1244 71 C 1256 70 1271 70 1288 70 C 1344 70 1394 74 1439 84 C 1483 93 1521 106 1553 124 C 1584 142 1608 163 1625 188 C 1642 213 1651 242 1651 274 C 1651 297 1646 317 1637 334 C 1628 350 1617 364 1603 375 C 1589 385 1573 393 1555 398 C 1537 403 1519 406 1501 406 C 1497 406 1493 405 1487 405 C 1481 404 1473 403 1463 402 C 1452 400 1438 398 1422 396 C 1405 393 1384 389 1358 385 L 1341 469 L 1440 485 C 1464 489 1486 495 1508 504 C 1530 512 1549 523 1566 537 C 1582 550 1595 565 1605 583 C 1615 601 1620 621 1620 643 C 1620 661 1616 678 1608 694 C 1600 710 1590 723 1576 735 C 1562 746 1546 755 1527 762 C 1507 768 1486 772 1464 772 C 1444 772 1426 769 1410 765 C 1394 760 1378 753 1363 744 C 1348 735 1333 724 1318 711 C 1303 697 1287 682 1270 664 L 1186 707 Z" unicode="⅔" />
<glyph horiz-adv-x="1634" d="M 236 1364 L 326 1364 L 317 1278 L 317 516 L 209 516 L 209 1241 L 213 1266 L 209 1266 L 70 1206 L 70 1303 L 236 1364 Z M 1114 1364 L 338 0 L 229 0 L 1006 1364 L 1114 1364 Z M 1102 449 C 1088 451 1073 457 1057 466 C 1041 475 1025 487 1011 503 C 997 519 985 538 975 560 C 965 582 961 607 961 635 C 961 663 967 691 979 718 C 991 744 1008 768 1032 788 C 1056 808 1085 825 1119 837 C 1153 849 1193 856 1239 856 C 1283 856 1323 849 1357 837 C 1391 825 1420 808 1444 788 C 1467 768 1485 744 1497 718 C 1509 691 1516 663 1516 635 C 1516 607 1511 582 1501 560 C 1491 538 1479 519 1465 503 C 1450 487 1434 475 1418 466 C 1402 457 1387 451 1374 449 L 1374 440 C 1392 438 1410 432 1430 422 C 1450 412 1468 399 1485 382 C 1501 365 1515 345 1526 321 C 1536 297 1542 270 1542 240 C 1542 197 1534 160 1518 129 C 1502 97 1481 71 1454 51 C 1426 30 1394 15 1358 5 C 1321 -5 1281 -10 1239 -10 C 1195 -10 1155 -5 1118 5 C 1080 15 1048 30 1021 51 C 993 71 972 97 957 129 C 941 160 934 197 934 240 C 934 270 939 297 950 321 C 960 345 974 365 991 382 C 1007 399 1025 412 1045 422 C 1065 432 1084 438 1102 440 L 1102 449 Z M 1065 625 C 1065 605 1068 586 1075 568 C 1082 550 1093 535 1108 522 C 1122 509 1140 499 1162 492 C 1184 484 1209 481 1239 481 C 1267 481 1292 484 1314 492 C 1336 499 1354 509 1369 522 C 1383 535 1394 550 1402 568 C 1409 586 1413 605 1413 625 C 1413 644 1409 662 1401 680 C 1393 698 1382 713 1368 727 C 1353 741 1335 752 1313 760 C 1291 768 1267 772 1239 772 C 1210 772 1185 768 1163 760 C 1141 752 1123 741 1109 727 C 1094 713 1083 698 1076 680 C 1068 662 1065 644 1065 625 Z M 1044 246 C 1044 194 1059 152 1091 122 C 1123 91 1172 76 1239 76 C 1305 76 1353 91 1385 122 C 1416 152 1432 194 1432 246 C 1432 268 1428 288 1421 307 C 1414 325 1403 341 1388 355 C 1372 369 1352 379 1328 387 C 1304 395 1274 399 1239 399 C 1203 399 1173 395 1149 387 C 1124 379 1104 369 1088 355 C 1072 341 1061 325 1054 307 C 1047 288 1044 268 1044 246 Z" unicode="⅛" />
<glyph horiz-adv-x="1880" d="M 76 1225 C 88 1243 102 1261 120 1279 C 138 1297 158 1313 182 1328 C 205 1342 231 1354 261 1364 C 291 1373 324 1378 360 1378 C 394 1378 427 1373 458 1364 C 489 1355 516 1342 540 1324 C 563 1306 581 1285 595 1260 C 609 1234 616 1206 616 1174 C 616 1149 612 1127 604 1107 C 596 1087 586 1069 574 1054 C 562 1039 547 1027 531 1017 C 514 1007 497 999 479 993 L 479 985 C 500 982 521 976 541 966 C 561 956 580 943 596 927 C 612 911 624 891 634 868 C 644 845 649 819 649 791 C 649 741 636 697 611 659 C 586 621 552 590 509 566 C 466 541 416 522 359 510 C 301 498 240 492 176 492 C 159 492 145 492 135 493 C 125 494 116 496 109 498 L 102 592 C 110 590 121 589 134 589 C 146 588 160 588 176 588 C 232 588 282 592 327 602 C 372 611 410 624 442 642 C 473 660 497 681 514 707 C 530 732 539 761 539 793 C 539 815 534 835 526 852 C 517 868 506 882 492 893 C 478 903 462 911 444 916 C 426 921 407 924 389 924 C 385 924 381 923 376 923 C 370 923 362 922 352 920 C 341 918 327 916 311 914 C 294 911 272 907 246 903 L 229 987 L 330 1004 C 353 1007 375 1013 397 1022 C 419 1030 438 1041 454 1055 C 470 1068 483 1083 493 1101 C 503 1119 508 1139 508 1161 C 508 1198 493 1229 465 1253 C 437 1277 399 1290 352 1290 C 332 1290 315 1287 299 1283 C 283 1278 267 1271 252 1262 C 237 1253 222 1242 207 1229 C 191 1215 175 1200 158 1182 L 76 1225 Z M 1360 1364 L 584 0 L 477 0 L 1253 1364 L 1360 1364 Z M 1348 449 C 1334 451 1319 457 1303 466 C 1286 475 1270 487 1256 503 C 1242 519 1230 538 1220 560 C 1210 582 1206 607 1206 635 C 1206 663 1212 691 1224 718 C 1236 744 1254 768 1278 788 C 1301 808 1330 825 1365 837 C 1399 849 1439 856 1485 856 C 1529 856 1569 849 1603 837 C 1637 825 1666 808 1690 788 C 1713 768 1731 744 1743 718 C 1755 691 1761 663 1761 635 C 1761 607 1756 582 1746 560 C 1736 538 1724 519 1710 503 C 1696 487 1680 475 1664 466 C 1648 457 1633 451 1620 449 L 1620 440 C 1638 438 1656 432 1676 422 C 1696 412 1714 399 1731 382 C 1747 365 1761 345 1772 321 C 1782 297 1788 270 1788 240 C 1788 197 1780 160 1764 129 C 1748 97 1727 71 1700 51 C 1672 30 1640 15 1604 5 C 1567 -5 1527 -10 1485 -10 C 1441 -10 1401 -5 1364 5 C 1326 15 1294 30 1267 51 C 1239 71 1218 97 1203 129 C 1187 160 1180 197 1180 240 C 1180 270 1185 297 1196 321 C 1206 345 1220 365 1237 382 C 1253 399 1271 412 1291 422 C 1311 432 1330 438 1348 440 L 1348 449 Z M 1311 625 C 1311 605 1314 586 1321 568 C 1328 550 1339 535 1354 522 C 1368 509 1386 499 1408 492 C 1430 484 1455 481 1485 481 C 1513 481 1538 484 1560 492 C 1582 499 1600 509 1615 522 C 1629 535 1640 550 1648 568 C 1655 586 1659 605 1659 625 C 1659 644 1655 662 1647 680 C 1639 698 1628 713 1614 727 C 1599 741 1581 752 1559 760 C 1537 768 1513 772 1485 772 C 1456 772 1431 768 1409 760 C 1387 752 1369 741 1355 727 C 1340 713 1329 698 1322 680 C 1314 662 1311 644 1311 625 Z M 1485 76 C 1550 76 1598 91 1630 122 C 1661 153 1677 194 1677 246 C 1677 268 1673 288 1667 307 C 1660 325 1649 341 1634 355 C 1618 369 1598 379 1574 387 C 1550 395 1520 399 1485 399 C 1449 399 1419 395 1394 387 C 1369 379 1349 369 1334 355 C 1318 341 1307 325 1300 307 C 1293 288 1290 268 1290 246 C 1290 194 1305 152 1337 122 C 1369 91 1418 76 1485 76 Z" unicode="⅜" />
<glyph horiz-adv-x="1880" d="M 197 588 C 309 588 395 607 456 645 C 516 683 547 743 547 823 C 547 843 544 864 539 884 C 534 904 526 922 514 938 C 502 954 486 966 466 976 C 446 986 421 991 391 991 C 375 991 359 989 343 987 C 327 984 311 979 295 973 C 278 966 260 957 242 946 C 223 934 203 920 182 903 L 121 930 L 152 1366 L 629 1366 L 625 1274 L 238 1274 L 217 1004 C 237 1018 255 1031 272 1041 C 288 1051 304 1059 320 1065 C 336 1071 351 1075 366 1077 C 381 1079 397 1081 414 1081 C 454 1081 489 1074 519 1062 C 549 1049 574 1031 594 1009 C 614 986 628 959 638 928 C 648 897 653 863 653 827 C 653 765 641 713 617 671 C 593 628 560 593 519 567 C 478 541 430 522 374 510 C 318 498 259 492 197 492 C 179 492 165 492 155 493 C 144 494 135 496 127 498 L 121 592 C 131 590 142 589 154 589 C 166 588 180 588 197 588 Z M 1360 1364 L 584 0 L 477 0 L 1253 1364 L 1360 1364 Z M 1348 449 C 1334 451 1319 457 1303 466 C 1286 475 1270 487 1256 503 C 1242 519 1230 538 1220 560 C 1210 582 1206 607 1206 635 C 1206 663 1212 691 1224 718 C 1236 744 1254 768 1278 788 C 1301 808 1330 825 1365 837 C 1399 849 1439 856 1485 856 C 1529 856 1569 849 1603 837 C 1637 825 1666 808 1690 788 C 1713 768 1731 744 1743 718 C 1755 691 1761 663 1761 635 C 1761 607 1756 582 1746 560 C 1736 538 1724 519 1710 503 C 1696 487 1680 475 1664 466 C 1648 457 1633 451 1620 449 L 1620 440 C 1638 438 1656 432 1676 422 C 1696 412 1714 399 1731 382 C 1747 365 1761 345 1772 321 C 1782 297 1788 270 1788 240 C 1788 197 1780 160 1764 129 C 1748 97 1727 71 1700 51 C 1672 30 1640 15 1604 5 C 1567 -5 1527 -10 1485 -10 C 1441 -10 1401 -5 1364 5 C 1326 15 1294 30 1267 51 C 1239 71 1218 97 1203 129 C 1187 160 1180 197 1180 240 C 1180 270 1185 297 1196 321 C 1206 345 1220 365 1237 382 C 1253 399 1271 412 1291 422 C 1311 432 1330 438 1348 440 L 1348 449 Z M 1311 625 C 1311 605 1314 586 1321 568 C 1328 550 1339 535 1354 522 C 1368 509 1386 499 1408 492 C 1430 484 1455 481 1485 481 C 1513 481 1538 484 1560 492 C 1582 499 1600 509 1615 522 C 1629 535 1640 550 1648 568 C 1655 586 1659 605 1659 625 C 1659 644 1655 662 1647 680 C 1639 698 1628 713 1614 727 C 1599 741 1581 752 1559 760 C 1537 768 1513 772 1485 772 C 1456 772 1431 768 1409 760 C 1387 752 1369 741 1355 727 C 1340 713 1329 698 1322 680 C 1314 662 1311 644 1311 625 Z M 1485 76 C 1550 76 1598 91 1630 122 C 1661 153 1677 194 1677 246 C 1677 268 1673 288 1667 307 C 1660 325 1649 341 1634 355 C 1618 369 1598 379 1574 387 C 1550 395 1520 399 1485 399 C 1449 399 1419 395 1394 387 C 1369 379 1349 369 1334 355 C 1318 341 1307 325 1300 307 C 1293 288 1290 268 1290 246 C 1290 194 1305 152 1337 122 C 1369 91 1418 76 1485 76 Z" unicode="⅝" />
<glyph horiz-adv-x="1737" d="M 639 1364 L 639 1282 C 619 1260 592 1229 558 1189 C 524 1148 490 1096 455 1034 C 420 971 387 897 356 811 C 325 725 303 627 289 516 L 170 516 C 181 606 201 691 230 771 C 258 851 290 923 325 988 C 359 1052 394 1109 430 1157 C 465 1205 495 1244 520 1272 L 68 1272 L 68 1364 L 639 1364 Z M 1217 1364 L 440 0 L 334 0 L 1110 1364 L 1217 1364 Z M 1204 449 C 1190 451 1175 457 1159 466 C 1143 475 1127 487 1113 503 C 1099 519 1087 538 1077 560 C 1067 582 1063 607 1063 635 C 1063 663 1069 691 1081 718 C 1093 744 1110 768 1134 788 C 1158 808 1187 825 1221 837 C 1255 849 1295 856 1341 856 C 1385 856 1425 849 1459 837 C 1493 825 1522 808 1546 788 C 1570 768 1588 744 1600 718 C 1612 691 1618 663 1618 635 C 1618 607 1613 582 1603 560 C 1593 538 1581 519 1567 503 C 1553 487 1537 475 1521 466 C 1505 457 1490 451 1477 449 L 1477 440 C 1495 438 1513 432 1533 422 C 1553 412 1571 399 1587 382 C 1603 365 1617 345 1628 321 C 1639 297 1645 270 1645 240 C 1645 197 1637 160 1621 129 C 1605 97 1584 71 1557 51 C 1529 30 1497 15 1460 5 C 1423 -5 1383 -10 1341 -10 C 1297 -10 1257 -5 1220 5 C 1182 15 1150 30 1123 51 C 1095 71 1074 97 1059 129 C 1043 160 1036 197 1036 240 C 1036 270 1041 297 1052 321 C 1063 345 1077 365 1093 382 C 1109 399 1127 412 1147 422 C 1167 432 1186 438 1204 440 L 1204 449 Z M 1167 625 C 1167 605 1170 586 1178 568 C 1185 550 1196 535 1210 522 C 1224 509 1242 499 1264 492 C 1286 484 1311 481 1341 481 C 1369 481 1395 484 1417 492 C 1439 499 1457 509 1472 522 C 1486 535 1497 550 1505 568 C 1512 586 1516 605 1516 625 C 1516 644 1512 662 1504 680 C 1496 698 1485 713 1471 727 C 1456 741 1438 752 1416 760 C 1394 768 1369 772 1341 772 C 1312 772 1287 768 1265 760 C 1243 752 1225 741 1211 727 C 1196 713 1185 698 1178 680 C 1170 662 1167 644 1167 625 Z M 1341 76 C 1407 76 1455 91 1487 122 C 1518 153 1534 194 1534 246 C 1534 268 1530 288 1524 307 C 1517 325 1506 341 1491 355 C 1475 369 1455 379 1431 387 C 1406 395 1376 399 1341 399 C 1305 399 1275 395 1251 387 C 1226 379 1206 369 1191 355 C 1175 341 1164 325 1157 307 C 1150 288 1147 268 1147 246 C 1147 194 1162 152 1194 122 C 1225 91 1274 76 1341 76 Z" unicode="⅞" />
<glyph horiz-adv-x="1167" d="M 467 1372 C 502 1372 537 1368 571 1361 C 605 1354 638 1344 669 1332 C 700 1320 729 1305 756 1287 C 783 1269 807 1250 829 1229 C 951 1099 1012 874 1012 555 C 1012 441 999 345 974 267 C 949 189 912 127 864 82 C 827 48 785 23 738 7 C 690 -8 640 -16 586 -16 C 522 -16 464 -7 410 10 C 356 27 310 54 271 92 C 231 129 200 177 178 235 C 156 293 145 364 145 446 C 145 510 154 569 174 621 C 194 673 221 718 256 755 C 290 791 331 820 379 840 C 427 860 479 870 535 870 C 603 870 663 860 714 840 C 764 820 803 796 831 770 L 870 741 C 862 837 849 918 830 983 C 810 1048 781 1101 741 1143 C 723 1162 702 1178 680 1192 C 657 1205 633 1216 608 1224 C 582 1232 556 1238 529 1242 C 502 1246 475 1248 449 1249 L 406 1251 L 406 1356 C 414 1362 421 1366 428 1368 C 435 1370 444 1372 455 1372 L 467 1372 Z M 854 608 C 828 650 792 684 746 711 C 699 738 642 752 575 752 C 480 752 408 724 358 669 C 308 614 283 535 283 432 C 283 322 308 239 359 183 C 409 126 484 98 582 98 C 624 98 660 104 692 117 C 724 129 751 147 774 170 C 809 204 834 246 850 298 C 866 350 874 408 874 473 C 874 527 867 572 854 608 Z" unicode="∂" />
<glyph horiz-adv-x="1444" d="M 817 1446 L 1323 113 L 1323 0 L 119 0 L 119 109 L 627 1446 L 817 1446 Z M 670 1184 L 266 119 L 1178 119 L 776 1184 L 729 1323 L 717 1323 L 670 1184 Z" unicode="∆" />
<glyph horiz-adv-x="1597" d="M 1503 1446 L 1503 1309 L 1319 1309 L 1319 -236 L 1182 -236 L 1182 1309 L 416 1309 L 416 -236 L 279 -236 L 279 1309 L 94 1309 L 94 1446 L 1503 1446 Z" unicode="∏" />
<glyph horiz-adv-x="1518" d="M 1358 1446 L 1358 1317 L 418 1317 L 293 1325 L 293 1307 L 416 1239 L 1100 664 L 1100 551 L 416 -31 L 293 -96 L 293 -117 L 418 -109 L 1358 -109 L 1358 -236 L 178 -236 L 178 -53 L 901 563 L 958 602 L 958 618 L 901 659 L 178 1266 L 178 1446 L 1358 1446 Z" unicode="∑" />
<glyph horiz-adv-x="1167" d="M 1159 631 L 1159 510 L 8 510 L 8 631 L 1159 631 Z" unicode="−" />
<glyph horiz-adv-x="1499" d="M 455 1053 L 752 225 L 1335 1878 L 1481 1878 L 791 0 L 682 0 L 336 930 L 61 930 L 61 1053 L 455 1053 Z" unicode="√" />
<glyph horiz-adv-x="2040" d="M 582 958 C 602 958 624 955 646 950 C 668 945 691 937 715 925 C 739 913 764 896 791 876 C 817 856 846 831 877 801 L 1020 655 L 1163 801 C 1193 831 1222 856 1249 876 C 1275 896 1301 913 1325 925 C 1349 937 1371 945 1393 950 C 1414 955 1435 958 1456 958 L 1548 958 C 1596 958 1642 948 1684 929 C 1726 910 1762 885 1793 853 C 1823 821 1847 785 1865 745 C 1883 704 1892 662 1892 618 L 1892 528 C 1892 484 1883 442 1865 401 C 1847 360 1823 324 1793 292 C 1762 260 1726 235 1684 216 C 1642 197 1596 188 1548 188 L 1456 188 C 1436 188 1416 190 1394 195 C 1372 200 1350 209 1326 221 C 1302 233 1276 250 1249 270 C 1222 290 1193 316 1163 346 L 1020 492 L 877 346 C 846 316 817 290 791 270 C 764 250 739 233 715 221 C 691 209 668 200 646 195 C 624 190 602 188 582 188 L 489 188 C 441 188 396 197 354 216 C 312 235 276 260 246 292 C 215 324 191 360 173 401 C 155 442 147 484 147 528 L 147 618 C 147 662 155 704 173 745 C 191 785 215 821 246 853 C 276 885 312 910 354 929 C 396 948 441 958 489 958 L 582 958 Z M 1104 575 L 1237 436 C 1261 410 1285 388 1307 372 C 1329 356 1350 343 1370 333 C 1389 323 1407 317 1424 314 C 1440 310 1456 309 1470 309 L 1546 309 C 1576 309 1605 315 1632 327 C 1658 339 1681 355 1701 375 C 1721 395 1736 418 1748 444 C 1759 470 1765 496 1765 524 L 1765 623 C 1765 649 1759 676 1748 702 C 1736 728 1721 751 1701 771 C 1681 791 1658 807 1632 819 C 1605 831 1576 838 1546 838 L 1470 838 C 1456 838 1440 836 1424 833 C 1407 829 1389 823 1370 814 C 1350 805 1329 792 1307 776 C 1285 760 1261 739 1237 713 L 1104 575 Z M 274 524 C 274 496 279 470 291 444 C 302 418 318 395 338 375 C 358 355 381 339 408 327 C 434 315 463 309 494 309 L 569 309 C 583 309 599 310 616 314 C 632 317 650 323 669 333 C 688 343 709 356 731 372 C 753 388 776 410 801 436 L 934 573 L 801 713 C 776 739 753 760 731 776 C 709 792 688 805 669 814 C 650 823 632 829 616 833 C 599 836 583 838 569 838 L 494 838 C 463 838 434 831 408 819 C 381 807 358 791 338 771 C 318 751 302 728 291 702 C 279 676 274 649 274 623 L 274 524 Z" unicode="∞" />
<glyph horiz-adv-x="770" d="M 659 1597 C 671 1597 681 1595 689 1592 C 697 1589 705 1585 715 1579 L 715 1487 L 612 1487 C 590 1487 569 1482 550 1472 C 531 1462 514 1448 500 1431 C 486 1414 475 1394 467 1372 C 459 1349 455 1325 455 1300 L 455 -94 C 455 -137 447 -177 432 -214 C 416 -250 396 -283 371 -311 C 347 -335 320 -354 290 -368 C 259 -382 227 -389 193 -389 L 111 -389 C 99 -389 89 -387 81 -385 C 73 -383 64 -378 55 -371 L 55 -276 L 160 -276 C 182 -276 202 -271 221 -261 C 240 -251 257 -237 271 -220 C 285 -203 297 -184 305 -162 C 313 -140 317 -116 317 -92 L 317 1303 C 317 1345 324 1384 339 1421 C 353 1458 374 1490 401 1518 C 423 1542 450 1562 481 1576 C 511 1590 544 1597 580 1597 L 659 1597 Z" unicode="∫" />
<glyph horiz-adv-x="1167" d="M 57 817 C 79 836 102 854 128 870 C 153 886 179 899 205 911 C 231 922 258 931 285 937 C 311 943 337 946 362 946 C 400 946 432 942 459 936 C 486 930 510 922 532 912 C 554 902 574 892 593 881 C 612 870 632 860 654 850 C 676 840 700 832 727 826 C 754 820 787 817 825 817 C 875 817 924 828 972 851 C 1020 874 1066 906 1110 946 L 1110 813 C 1088 794 1064 777 1039 762 C 1014 747 989 734 963 724 C 937 713 911 705 885 699 C 859 693 833 690 809 690 C 771 690 738 693 711 699 C 683 705 659 713 637 722 C 615 731 594 741 576 752 C 557 763 537 773 515 782 C 493 791 469 799 442 805 C 415 811 383 815 346 815 C 298 815 248 803 198 781 C 148 758 101 727 57 688 L 57 817 Z M 57 328 C 79 346 102 363 128 379 C 153 395 179 408 205 419 C 231 430 258 439 285 445 C 311 451 337 455 362 455 C 400 455 432 451 459 445 C 486 439 510 431 532 422 C 554 412 574 402 593 391 C 612 380 632 370 654 361 C 676 351 700 343 727 337 C 754 331 787 328 825 328 C 875 328 924 339 972 362 C 1020 384 1066 415 1110 455 L 1110 322 C 1088 303 1064 286 1039 271 C 1014 256 989 243 963 233 C 937 222 911 214 885 208 C 859 202 833 199 809 199 C 771 199 738 202 711 208 C 683 214 659 222 637 231 C 615 240 594 250 576 261 C 557 272 537 282 515 291 C 493 300 469 308 442 314 C 415 320 383 324 346 324 C 298 324 248 312 198 289 C 148 266 101 235 57 197 L 57 328 Z" unicode="≈" />
<glyph horiz-adv-x="1167" d="M 455 254 L 307 0 L 190 0 L 338 254 L 57 254 L 57 373 L 408 373 L 639 766 L 57 766 L 57 887 L 709 887 L 858 1141 L 975 1141 L 825 887 L 1110 887 L 1110 766 L 756 766 L 524 373 L 1110 373 L 1110 254 L 455 254 Z" unicode="≠" />
<glyph horiz-adv-x="1167" d="M 1110 1233 L 1110 1087 L 389 819 L 238 760 L 238 741 L 389 688 L 1110 418 L 1110 274 L 57 709 L 57 795 L 1110 1233 Z M 1110 119 L 1110 0 L 57 0 L 57 119 L 1110 119 Z" unicode="≤" />
<glyph horiz-adv-x="1167" d="M 1110 119 L 1110 0 L 57 0 L 57 119 L 1110 119 Z M 1110 795 L 1110 709 L 57 274 L 57 418 L 776 688 L 930 741 L 930 760 L 776 819 L 57 1087 L 57 1233 L 1110 795 Z" unicode="≥" />
<glyph horiz-adv-x="1288" d="M 696 1364 L 1176 750 L 1176 616 L 696 0 L 592 0 L 113 616 L 113 750 L 592 1364 L 696 1364 Z M 233 698 L 233 670 L 633 156 L 653 156 L 1053 670 L 1053 698 L 653 1208 L 633 1208 L 233 698 Z" unicode="◊" />
<glyph horiz-adv-x="1126" d="M 1114 1407 C 1104 1410 1090 1412 1073 1414 C 1056 1416 1040 1417 1026 1417 C 976 1417 940 1403 918 1376 C 896 1348 885 1307 885 1251 L 885 1053 L 1130 1053 L 1130 952 L 885 952 L 885 0 L 756 0 L 756 952 L 322 952 L 322 0 L 193 0 L 193 952 L 18 952 L 18 1053 L 193 1053 L 193 1245 C 193 1285 198 1322 210 1356 C 221 1390 237 1420 259 1446 C 281 1472 307 1492 339 1506 C 371 1520 407 1528 449 1528 C 481 1528 507 1526 527 1522 C 547 1518 561 1514 569 1509 L 551 1407 C 540 1410 526 1412 510 1414 C 493 1416 477 1417 463 1417 C 412 1417 376 1403 354 1376 C 332 1348 322 1307 322 1251 L 322 1053 L 756 1053 L 756 1245 C 756 1285 761 1322 773 1356 C 784 1390 800 1420 822 1446 C 844 1472 870 1492 902 1506 C 934 1520 970 1528 1012 1528 C 1044 1528 1070 1526 1090 1522 C 1110 1518 1124 1514 1133 1509 L 1114 1407 Z" unicode="ﬀ" />
<glyph horiz-adv-x="1061" d="M 551 1407 C 540 1410 526 1412 510 1414 C 493 1416 477 1417 463 1417 C 412 1417 376 1403 354 1376 C 332 1348 322 1307 322 1251 L 322 1053 L 567 1053 L 567 952 L 322 952 L 322 0 L 193 0 L 193 952 L 18 952 L 18 1053 L 193 1053 L 193 1245 C 193 1285 198 1322 210 1356 C 221 1390 237 1420 259 1446 C 281 1472 307 1492 339 1506 C 371 1520 407 1528 449 1528 C 481 1528 507 1526 527 1522 C 547 1518 561 1514 569 1509 L 551 1407 Z M 887 1507 L 887 1321 L 737 1321 L 737 1507 L 887 1507 Z M 877 1053 L 877 0 L 748 0 L 748 1053 L 877 1053 Z" unicode="ﬁ" />
<glyph horiz-adv-x="1061" d="M 551 1407 C 540 1410 526 1412 510 1414 C 493 1416 477 1417 463 1417 C 412 1417 376 1403 354 1376 C 332 1348 322 1307 322 1251 L 322 1053 L 567 1053 L 567 952 L 322 952 L 322 0 L 193 0 L 193 952 L 18 952 L 18 1053 L 193 1053 L 193 1245 C 193 1285 198 1322 210 1356 C 221 1390 237 1420 259 1446 C 281 1472 307 1492 339 1506 C 371 1520 407 1528 449 1528 C 481 1528 507 1526 527 1522 C 547 1518 561 1514 569 1509 L 551 1407 Z M 877 1507 L 877 0 L 748 0 L 748 1507 L 877 1507 Z" unicode="ﬂ" />
<glyph horiz-adv-x="1624" d="M 1450 1507 L 1450 1321 L 1300 1321 L 1300 1507 L 1450 1507 Z M 1440 1053 L 1440 0 L 1311 0 L 1311 1053 L 1440 1053 Z M 1114 1407 C 1104 1410 1090 1412 1073 1414 C 1056 1416 1040 1417 1026 1417 C 976 1417 940 1403 918 1376 C 896 1348 885 1307 885 1251 L 885 1053 L 1130 1053 L 1130 952 L 885 952 L 885 0 L 756 0 L 756 952 L 322 952 L 322 0 L 193 0 L 193 952 L 18 952 L 18 1053 L 193 1053 L 193 1245 C 193 1285 198 1322 210 1356 C 221 1390 237 1420 259 1446 C 281 1472 307 1492 339 1506 C 371 1520 407 1528 449 1528 C 481 1528 507 1526 527 1522 C 547 1518 561 1514 569 1509 L 551 1407 C 540 1410 526 1412 510 1414 C 493 1416 477 1417 463 1417 C 412 1417 376 1403 354 1376 C 332 1348 322 1307 322 1251 L 322 1053 L 756 1053 L 756 1245 C 756 1285 761 1322 773 1356 C 784 1390 800 1420 822 1446 C 844 1472 870 1492 902 1506 C 934 1520 970 1528 1012 1528 C 1044 1528 1070 1526 1090 1522 C 1110 1518 1124 1514 1133 1509 L 1114 1407 Z" unicode="ﬃ" />
<glyph horiz-adv-x="1624" d="M 1114 1407 C 1104 1410 1090 1412 1073 1414 C 1056 1416 1040 1417 1026 1417 C 976 1417 940 1403 918 1376 C 896 1348 885 1307 885 1251 L 885 1053 L 1130 1053 L 1130 952 L 885 952 L 885 0 L 756 0 L 756 952 L 322 952 L 322 0 L 193 0 L 193 952 L 18 952 L 18 1053 L 193 1053 L 193 1245 C 193 1285 198 1322 210 1356 C 221 1390 237 1420 259 1446 C 281 1472 307 1492 339 1506 C 371 1520 407 1528 449 1528 C 481 1528 507 1526 527 1522 C 547 1518 561 1514 569 1509 L 551 1407 C 540 1410 526 1412 510 1414 C 493 1416 477 1417 463 1417 C 412 1417 376 1403 354 1376 C 332 1348 322 1307 322 1251 L 322 1053 L 756 1053 L 756 1245 C 756 1285 761 1322 773 1356 C 784 1390 800 1420 822 1446 C 844 1472 870 1492 902 1506 C 934 1520 970 1528 1012 1528 C 1044 1528 1070 1526 1090 1522 C 1110 1518 1124 1514 1133 1509 L 1114 1407 Z M 1440 1507 L 1440 0 L 1311 0 L 1311 1507 L 1440 1507 Z" unicode="ﬄ" />
</font>
</defs>
</svg>
